<ttFont>
    <TTGlyph name="A" xMin="41" yMin="0" xMax="1193" yMax="1437">
      <contour>
        <pt x="335" y="327" on="1"/>
        <pt x="236" y="0" on="1"/>
        <pt x="41" y="0" on="1"/>
        <pt x="517" y="1437" on="1"/>
        <pt x="718" y="1437" on="1"/>
        <pt x="1193" y="0" on="1"/>
        <pt x="997" y="0" on="1"/>
        <pt x="899" y="327" on="1"/>
      </contour>
      <contour>
        <pt x="368" y="439" on="1"/>
        <pt x="865" y="439" on="1"/>
        <pt x="618" y="1243" on="1"/>
      </contour>
    </TTGlyph>
    <TTGlyph name="AE" xMin="19" yMin="0" xMax="1471" yMax="1409">
      <contour>
        <pt x="706" y="0" on="1"/>
        <pt x="706" y="288" on="1"/>
        <pt x="351" y="288" on="1"/>
        <pt x="240" y="0" on="1"/>
        <pt x="19" y="0" on="1"/>
        <pt x="581" y="1409" on="1"/>
        <pt x="1459" y="1409" on="1"/>
        <pt x="1459" y="1263" on="1"/>
        <pt x="894" y="1263" on="1"/>
        <pt x="894" y="810" on="1"/>
        <pt x="1400" y="810" on="1"/>
        <pt x="1400" y="665" on="1"/>
        <pt x="894" y="665" on="1"/>
        <pt x="894" y="146" on="1"/>
        <pt x="1471" y="146" on="1"/>
        <pt x="1471" y="0" on="1"/>
      </contour>
      <contour>
        <pt x="387" y="421" on="1"/>
        <pt x="706" y="421" on="1"/>
        <pt x="706" y="1276" on="1"/>
        <pt x="599" y="960" on="1"/>
      </contour>
    </TTGlyph>
    <TTGlyph name="Aacute" xMin="41" yMin="0" xMax="1193" yMax="2113">
      <component glyphName="A" x="0" y="0" flags="0x1204"/>
      <component glyphName="acute" x="386" y="406" flags="0x1004"/>
    </TTGlyph>
    <TTGlyph name="Acircumflex" xMin="41" yMin="0" xMax="1193" yMax="2071">
      <component glyphName="A" x="0" y="0" flags="0x1204"/>
      <component glyphName="circumflex" x="240" y="406" flags="0x1004"/>
    </TTGlyph>
    <TTGlyph name="Adieresis" xMin="41" yMin="0" xMax="1193" yMax="1737">
      <component glyphName="A" x="0" y="0" flags="0x1204"/>
      <component glyphName="dieresis" x="193" y="406" flags="0x1004"/>
    </TTGlyph>
    <TTGlyph name="Agrave" xMin="41" yMin="0" xMax="1193" yMax="2141">
      <component glyphName="A" x="0" y="0" flags="0x1204"/>
      <component glyphName="grave" x="461" y="406" flags="0x1004"/>
    </TTGlyph>
    <TTGlyph name="Aring" xMin="41" yMin="0" xMax="1193" yMax="1993">
      <component glyphName="A" x="0" y="0" flags="0x1204"/>
      <component glyphName="ring" x="328" y="406" flags="0x1004"/>
    </TTGlyph>
    <TTGlyph name="Atilde" xMin="41" yMin="0" xMax="1193" yMax="1820">
      <component glyphName="A" x="0" y="0" flags="0x1204"/>
      <component glyphName="tilde" x="169" y="406" flags="0x1004"/>
    </TTGlyph>
    <TTGlyph name="B" xMin="185" yMin="0" xMax="1155" yMax="1437">
      <contour>
        <pt x="366" y="825" on="1"/>
        <pt x="599" y="825" on="1"/>
        <pt x="685" y="825" on="0"/>
        <pt x="803" y="858" on="0"/>
        <pt x="875" y="918" on="0"/>
        <pt x="907" y="1008" on="0"/>
        <pt x="907" y="1068" on="1"/>
        <pt x="907" y="1138" on="0"/>
        <pt x="868" y="1221" on="0"/>
        <pt x="783" y="1270" on="0"/>
        <pt x="649" y="1292" on="0"/>
        <pt x="555" y="1292" on="1"/>
        <pt x="366" y="1292" on="1"/>
      </contour>
      <contour>
        <pt x="977" y="417" on="1"/>
        <pt x="977" y="501" on="0"/>
        <pt x="933" y="608" on="0"/>
        <pt x="841" y="672" on="0"/>
        <pt x="701" y="698" on="0"/>
        <pt x="605" y="698" on="1"/>
        <pt x="366" y="698" on="1"/>
        <pt x="366" y="144" on="1"/>
        <pt x="608" y="144" on="1"/>
        <pt x="699" y="144" on="0"/>
        <pt x="838" y="166" on="0"/>
        <pt x="930" y="223" on="0"/>
        <pt x="977" y="329" on="0"/>
      </contour>
      <contour>
        <pt x="1155" y="415" on="1"/>
        <pt x="1155" y="200" on="0"/>
        <pt x="906" y="0" on="0"/>
        <pt x="656" y="0" on="1"/>
        <pt x="185" y="0" on="1"/>
        <pt x="185" y="1437" on="1"/>
        <pt x="580" y="1437" on="1"/>
        <pt x="719" y="1437" on="0"/>
        <pt x="913" y="1395" on="0"/>
        <pt x="1033" y="1305" on="0"/>
        <pt x="1087" y="1164" on="0"/>
        <pt x="1087" y="1060" on="1"/>
        <pt x="1087" y="1008" on="0"/>
        <pt x="1060" y="925" on="0"/>
        <pt x="1015" y="863" on="0"/>
        <pt x="960" y="816" on="0"/>
        <pt x="903" y="788" on="0"/>
        <pt x="850" y="774" on="0"/>
        <pt x="831" y="772" on="1"/>
        <pt x="922" y="765" on="0"/>
        <pt x="993" y="725" on="1"/>
        <pt x="1023" y="708" on="0"/>
        <pt x="1082" y="656" on="0"/>
        <pt x="1127" y="583" on="0"/>
        <pt x="1155" y="483" on="0"/>
      </contour>
    </TTGlyph>
    <TTGlyph name="C" xMin="119" yMin="-24" xMax="1107" yMax="1464">
      <contour>
        <pt x="692" y="-24" on="1"/>
        <pt x="571" y="-24" on="0"/>
        <pt x="363" y="45" on="0"/>
        <pt x="209" y="219" on="0"/>
        <pt x="120" y="512" on="0"/>
        <pt x="119" y="727" on="1"/>
        <pt x="119" y="935" on="0"/>
        <pt x="208" y="1217" on="0"/>
        <pt x="367" y="1390" on="0"/>
        <pt x="584" y="1464" on="0"/>
        <pt x="712" y="1464" on="1"/>
        <pt x="793" y="1464" on="0"/>
        <pt x="932" y="1445" on="0"/>
        <pt x="983" y="1434" on="1"/>
        <pt x="1043" y="1421" on="0"/>
        <pt x="1091" y="1405" on="1"/>
        <pt x="1107" y="1250" on="1"/>
        <pt x="1057" y="1268" on="0"/>
        <pt x="997" y="1283" on="1"/>
        <pt x="946" y="1294" on="0"/>
        <pt x="810" y="1314" on="0"/>
        <pt x="733" y="1314" on="1"/>
        <pt x="636" y="1314" on="0"/>
        <pt x="482" y="1254" on="0"/>
        <pt x="374" y="1118" on="0"/>
        <pt x="317" y="897" on="0"/>
        <pt x="317" y="729" on="1"/>
        <pt x="318" y="570" on="0"/>
        <pt x="367" y="337" on="0"/>
        <pt x="466" y="192" on="0"/>
        <pt x="615" y="126" on="0"/>
        <pt x="714" y="127" on="1"/>
        <pt x="797" y="126" on="0"/>
        <pt x="939" y="147" on="0"/>
        <pt x="993" y="163" on="1"/>
        <pt x="1055" y="179" on="0"/>
        <pt x="1107" y="199" on="1"/>
        <pt x="1090" y="43" on="1"/>
        <pt x="1041" y="24" on="0"/>
        <pt x="979" y="9" on="1"/>
        <pt x="926" y="-4" on="0"/>
        <pt x="780" y="-24" on="0"/>
      </contour>
    </TTGlyph>
    <TTGlyph name="Ccedilla" xMin="119" yMin="-538" xMax="1107" yMax="1464">
      <component glyphName="C" x="0" y="0" flags="0x1204"/>
      <component glyphName="cedilla" x="485" y="0" flags="0x1004"/>
    </TTGlyph>
    <TTGlyph name="D" xMin="185" yMin="0" xMax="1261" yMax="1437">
      <contour>
        <pt x="579" y="144" on="1"/>
        <pt x="725" y="144" on="0"/>
        <pt x="916" y="205" on="0"/>
        <pt x="1028" y="339" on="0"/>
        <pt x="1073" y="567" on="0"/>
        <pt x="1073" y="740" on="1"/>
        <pt x="1073" y="881" on="0"/>
        <pt x="1034" y="1085" on="0"/>
        <pt x="937" y="1222" on="0"/>
        <pt x="773" y="1292" on="0"/>
        <pt x="649" y="1292" on="1"/>
        <pt x="377" y="1292" on="1"/>
        <pt x="377" y="144" on="1"/>
      </contour>
      <contour>
        <pt x="185" y="0" on="1"/>
        <pt x="185" y="1437" on="1"/>
        <pt x="597" y="1437" on="1"/>
        <pt x="681" y="1437" on="0"/>
        <pt x="844" y="1420" on="0"/>
        <pt x="992" y="1367" on="0"/>
        <pt x="1117" y="1274" on="0"/>
        <pt x="1209" y="1123" on="0"/>
        <pt x="1261" y="905" on="0"/>
        <pt x="1261" y="748" on="1"/>
        <pt x="1261" y="578" on="0"/>
        <pt x="1208" y="304" on="0"/>
        <pt x="1070" y="105" on="0"/>
        <pt x="829" y="0" on="0"/>
        <pt x="642" y="0" on="1"/>
      </contour>
    </TTGlyph>
    <TTGlyph name="Delta" xMin="52" yMin="-2" xMax="1037" yMax="1130">
      <contour>
        <pt x="829" y="99" on="1"/>
        <pt x="547" y="973" on="1"/>
        <pt x="259" y="99" on="1"/>
      </contour>
      <contour>
        <pt x="52" y="-2" on="1"/>
        <pt x="460" y="1130" on="1"/>
        <pt x="632" y="1130" on="1"/>
        <pt x="1037" y="-2" on="1"/>
      </contour>
    </TTGlyph>
    <TTGlyph name="E" xMin="185" yMin="0" xMax="1001" yMax="1437">
      <contour>
        <pt x="185" y="0" on="1"/>
        <pt x="185" y="1437" on="1"/>
        <pt x="1001" y="1437" on="1"/>
        <pt x="977" y="1292" on="1"/>
        <pt x="374" y="1292" on="1"/>
        <pt x="374" y="809" on="1"/>
        <pt x="866" y="809" on="1"/>
        <pt x="866" y="670" on="1"/>
        <pt x="374" y="670" on="1"/>
        <pt x="374" y="145" on="1"/>
        <pt x="999" y="145" on="1"/>
        <pt x="976" y="0" on="1"/>
      </contour>
    </TTGlyph>
    <TTGlyph name="Eacute" xMin="185" yMin="0" xMax="1001" yMax="2113">
      <component glyphName="E" x="0" y="0" flags="0x1204"/>
      <component glyphName="acute" x="314" y="406" flags="0x1004"/>
    </TTGlyph>
    <TTGlyph name="Ecircumflex" xMin="185" yMin="0" xMax="1001" yMax="2071">
      <component glyphName="E" x="0" y="0" flags="0x1204"/>
      <component glyphName="circumflex" x="168" y="406" flags="0x1004"/>
    </TTGlyph>
    <TTGlyph name="Edieresis" xMin="185" yMin="0" xMax="1001" yMax="1737">
      <component glyphName="E" x="0" y="0" flags="0x1204"/>
      <component glyphName="dieresis" x="121" y="406" flags="0x1004"/>
    </TTGlyph>
    <TTGlyph name="Egrave" xMin="185" yMin="0" xMax="1001" yMax="2141">
      <component glyphName="E" x="0" y="0" flags="0x1204"/>
      <component glyphName="grave" x="389" y="406" flags="0x1004"/>
    </TTGlyph>
    <TTGlyph name="Eth" xMin="45" yMin="0" xMax="1271" yMax="1437">
      <contour>
        <pt x="194" y="0" on="1"/>
        <pt x="194" y="677" on="1"/>
        <pt x="45" y="677" on="1"/>
        <pt x="45" y="806" on="1"/>
        <pt x="194" y="806" on="1"/>
        <pt x="194" y="1437" on="1"/>
        <pt x="606" y="1437" on="1"/>
        <pt x="690" y="1437" on="0"/>
        <pt x="853" y="1420" on="0"/>
        <pt x="1001" y="1368" on="0"/>
        <pt x="1127" y="1276" on="0"/>
        <pt x="1219" y="1126" on="0"/>
        <pt x="1271" y="910" on="0"/>
        <pt x="1271" y="749" on="1"/>
        <pt x="1271" y="622" on="0"/>
        <pt x="1249" y="427" on="0"/>
        <pt x="1194" y="264" on="0"/>
        <pt x="1103" y="136" on="0"/>
        <pt x="965" y="47" on="0"/>
        <pt x="777" y="0" on="0"/>
        <pt x="652" y="0" on="1"/>
      </contour>
      <contour>
        <pt x="588" y="139" on="1"/>
        <pt x="685" y="139" on="0"/>
        <pt x="835" y="163" on="0"/>
        <pt x="945" y="217" on="0"/>
        <pt x="1019" y="306" on="0"/>
        <pt x="1064" y="436" on="0"/>
        <pt x="1083" y="611" on="0"/>
        <pt x="1083" y="741" on="1"/>
        <pt x="1083" y="886" on="0"/>
        <pt x="1044" y="1088" on="0"/>
        <pt x="946" y="1224" on="0"/>
        <pt x="782" y="1293" on="0"/>
        <pt x="658" y="1293" on="1"/>
        <pt x="386" y="1293" on="1"/>
        <pt x="386" y="806" on="1"/>
        <pt x="612" y="806" on="1"/>
        <pt x="612" y="677" on="1"/>
        <pt x="386" y="677" on="1"/>
        <pt x="386" y="139" on="1"/>
      </contour>
    </TTGlyph>
    <TTGlyph name="Euro" xMin="80" yMin="-28" xMax="1180" yMax="1436">
      <contour>
        <pt x="80" y="890" on="1"/>
        <pt x="204" y="890" on="1"/>
        <pt x="223" y="1041" on="0"/>
        <pt x="325" y="1250" on="0"/>
        <pt x="478" y="1379" on="0"/>
        <pt x="673" y="1436" on="0"/>
        <pt x="786" y="1436" on="1"/>
        <pt x="867" y="1436" on="0"/>
        <pt x="1006" y="1417" on="0"/>
        <pt x="1057" y="1406" on="1"/>
        <pt x="1117" y="1393" on="0"/>
        <pt x="1165" y="1377" on="1"/>
        <pt x="1180" y="1226" on="1"/>
        <pt x="1130" y="1243" on="0"/>
        <pt x="1070" y="1257" on="1"/>
        <pt x="1019" y="1268" on="0"/>
        <pt x="884" y="1288" on="0"/>
        <pt x="807" y="1288" on="1"/>
        <pt x="725" y="1288" on="0"/>
        <pt x="589" y="1246" on="0"/>
        <pt x="486" y="1151" on="0"/>
        <pt x="417" y="1000" on="0"/>
        <pt x="403" y="890" on="1"/>
        <pt x="699" y="890" on="1"/>
        <pt x="699" y="762" on="1"/>
        <pt x="391" y="762" on="1"/>
        <pt x="391" y="718" on="1"/>
        <pt x="391" y="700" on="0"/>
        <pt x="391" y="666" on="0"/>
        <pt x="392" y="649" on="1"/>
        <pt x="701" y="649" on="1"/>
        <pt x="701" y="521" on="1"/>
        <pt x="406" y="521" on="1"/>
        <pt x="419" y="413" on="0"/>
        <pt x="481" y="261" on="0"/>
        <pt x="576" y="165" on="0"/>
        <pt x="706" y="121" on="0"/>
        <pt x="788" y="121" on="1"/>
        <pt x="870" y="121" on="0"/>
        <pt x="1012" y="142" on="0"/>
        <pt x="1066" y="156" on="1"/>
        <pt x="1128" y="171" on="0"/>
        <pt x="1180" y="191" on="1"/>
        <pt x="1164" y="39" on="1"/>
        <pt x="1115" y="20" on="0"/>
        <pt x="1053" y="5" on="1"/>
        <pt x="1000" y="-8" on="0"/>
        <pt x="854" y="-28" on="0"/>
        <pt x="766" y="-28" on="1"/>
        <pt x="661" y="-28" on="0"/>
        <pt x="474" y="24" on="0"/>
        <pt x="327" y="151" on="0"/>
        <pt x="227" y="362" on="0"/>
        <pt x="207" y="521" on="1"/>
        <pt x="81" y="521" on="1"/>
        <pt x="81" y="649" on="1"/>
        <pt x="194" y="649" on="1"/>
        <pt x="193" y="666" on="0"/>
        <pt x="192" y="699" on="0"/>
        <pt x="192" y="716" on="1"/>
        <pt x="192" y="722" on="0"/>
        <pt x="192" y="756" on="0"/>
        <pt x="193" y="762" on="1"/>
        <pt x="80" y="762" on="1"/>
      </contour>
    </TTGlyph>
    <TTGlyph name="F" xMin="185" yMin="0" xMax="1019" yMax="1437">
      <contour>
        <pt x="370" y="0" on="1"/>
        <pt x="185" y="0" on="1"/>
        <pt x="185" y="1437" on="1"/>
        <pt x="1019" y="1437" on="1"/>
        <pt x="995" y="1292" on="1"/>
        <pt x="370" y="1292" on="1"/>
        <pt x="370" y="820" on="1"/>
        <pt x="925" y="820" on="1"/>
        <pt x="925" y="672" on="1"/>
        <pt x="370" y="672" on="1"/>
      </contour>
    </TTGlyph>
    <TTGlyph name="G" xMin="115" yMin="-24" xMax="1207" yMax="1464">
      <contour>
        <pt x="1103" y="4" on="1"/>
        <pt x="1065" y="145" on="1"/>
        <pt x="1032" y="98" on="0"/>
        <pt x="980" y="61" on="1"/>
        <pt x="936" y="27" on="0"/>
        <pt x="794" y="-24" on="0"/>
        <pt x="694" y="-24" on="1"/>
        <pt x="572" y="-24" on="0"/>
        <pt x="360" y="59" on="0"/>
        <pt x="204" y="237" on="0"/>
        <pt x="115" y="521" on="0"/>
        <pt x="115" y="721" on="1"/>
        <pt x="115" y="864" on="0"/>
        <pt x="163" y="1088" on="0"/>
        <pt x="249" y="1252" on="0"/>
        <pt x="367" y="1366" on="0"/>
        <pt x="507" y="1435" on="0"/>
        <pt x="664" y="1464" on="0"/>
        <pt x="746" y="1464" on="1"/>
        <pt x="824" y="1464" on="0"/>
        <pt x="960" y="1442" on="0"/>
        <pt x="1012" y="1428" on="1"/>
        <pt x="1072" y="1412" on="0"/>
        <pt x="1123" y="1393" on="1"/>
        <pt x="1137" y="1240" on="1"/>
        <pt x="1087" y="1260" on="0"/>
        <pt x="1026" y="1277" on="1"/>
        <pt x="974" y="1292" on="0"/>
        <pt x="833" y="1314" on="0"/>
        <pt x="751" y="1314" on="1"/>
        <pt x="642" y="1314" on="0"/>
        <pt x="478" y="1245" on="0"/>
        <pt x="368" y="1108" on="0"/>
        <pt x="313" y="895" on="0"/>
        <pt x="313" y="749" on="1"/>
        <pt x="313" y="594" on="0"/>
        <pt x="357" y="359" on="0"/>
        <pt x="453" y="203" on="0"/>
        <pt x="605" y="127" on="0"/>
        <pt x="712" y="127" on="1"/>
        <pt x="793" y="127" on="0"/>
        <pt x="918" y="167" on="0"/>
        <pt x="961" y="190" on="1"/>
        <pt x="1011" y="217" on="0"/>
        <pt x="1048" y="253" on="1"/>
        <pt x="1048" y="609" on="1"/>
        <pt x="903" y="605" on="1"/>
        <pt x="777" y="605" on="1"/>
        <pt x="758" y="743" on="1"/>
        <pt x="1207" y="743" on="1"/>
        <pt x="1207" y="4" on="1"/>
      </contour>
    </TTGlyph>
    <TTGlyph name="H" xMin="185" yMin="0" xMax="1254" yMax="1437">
      <contour>
        <pt x="1069" y="677" on="1"/>
        <pt x="370" y="677" on="1"/>
        <pt x="370" y="0" on="1"/>
        <pt x="185" y="0" on="1"/>
        <pt x="185" y="1437" on="1"/>
        <pt x="370" y="1437" on="1"/>
        <pt x="370" y="817" on="1"/>
        <pt x="1069" y="817" on="1"/>
        <pt x="1069" y="1437" on="1"/>
        <pt x="1254" y="1437" on="1"/>
        <pt x="1254" y="0" on="1"/>
        <pt x="1069" y="0" on="1"/>
      </contour>
    </TTGlyph>
    <TTGlyph name="I" xMin="185" yMin="0" xMax="368" yMax="1437">
      <contour>
        <pt x="185" y="0" on="1"/>
        <pt x="185" y="1437" on="1"/>
        <pt x="368" y="1437" on="1"/>
        <pt x="368" y="0" on="1"/>
      </contour>
    </TTGlyph>
    <TTGlyph name="Iacute" xMin="120" yMin="0" xMax="432" yMax="2113">
      <component glyphName="I" x="0" y="0" flags="0x1204"/>
      <component glyphName="acute" x="45" y="406" flags="0x1004"/>
    </TTGlyph>
    <TTGlyph name="Icircumflex" xMin="-37" yMin="0" xMax="593" yMax="2071">
      <component glyphName="I" x="0" y="0" flags="0x1204"/>
      <component glyphName="circumflex" x="-99" y="406" flags="0x1004"/>
    </TTGlyph>
    <TTGlyph name="Idieresis" xMin="3" yMin="0" xMax="552" yMax="1737">
      <component glyphName="I" x="0" y="0" flags="0x1204"/>
      <component glyphName="dieresis" x="-146" y="406" flags="0x1004"/>
    </TTGlyph>
    <TTGlyph name="Igrave" xMin="130" yMin="0" xMax="423" yMax="2141">
      <component glyphName="I" x="0" y="0" flags="0x1204"/>
      <component glyphName="grave" x="121" y="406" flags="0x1004"/>
    </TTGlyph>
    <TTGlyph name="J" xMin="35" yMin="-81" xMax="520" yMax="1437">
      <contour>
        <pt x="59" y="-14" on="1"/>
        <pt x="35" y="53" on="1"/>
        <pt x="104" y="53" on="0"/>
        <pt x="202" y="65" on="0"/>
        <pt x="268" y="95" on="0"/>
        <pt x="307" y="145" on="0"/>
        <pt x="327" y="222" on="0"/>
        <pt x="333" y="328" on="0"/>
        <pt x="333" y="399" on="1"/>
        <pt x="333" y="1437" on="1"/>
        <pt x="520" y="1437" on="1"/>
        <pt x="516" y="308" on="1"/>
        <pt x="516" y="226" on="0"/>
        <pt x="481" y="84" on="0"/>
        <pt x="386" y="-20" on="0"/>
        <pt x="217" y="-81" on="0"/>
        <pt x="83" y="-81" on="1"/>
      </contour>
    </TTGlyph>
    <TTGlyph name="K" xMin="185" yMin="0" xMax="1273" yMax="1437">
      <contour>
        <pt x="1221" y="1384" on="1"/>
        <pt x="641" y="780" on="1"/>
        <pt x="1273" y="47" on="1"/>
        <pt x="1273" y="0" on="1"/>
        <pt x="1081" y="0" on="1"/>
        <pt x="512" y="672" on="1"/>
        <pt x="370" y="530" on="1"/>
        <pt x="370" y="0" on="1"/>
        <pt x="185" y="0" on="1"/>
        <pt x="185" y="1437" on="1"/>
        <pt x="370" y="1437" on="1"/>
        <pt x="370" y="740" on="1"/>
        <pt x="1036" y="1437" on="1"/>
        <pt x="1221" y="1437" on="1"/>
      </contour>
    </TTGlyph>
    <TTGlyph name="L" xMin="185" yMin="0" xMax="958" yMax="1437">
      <contour>
        <pt x="185" y="0" on="1"/>
        <pt x="185" y="1437" on="1"/>
        <pt x="370" y="1437" on="1"/>
        <pt x="370" y="142" on="1"/>
        <pt x="958" y="142" on="1"/>
        <pt x="941" y="0" on="1"/>
      </contour>
    </TTGlyph>
    <TTGlyph name="Lslash" xMin="49" yMin="0" xMax="970" yMax="1408">
      <contour>
        <pt x="197" y="0" on="1"/>
        <pt x="197" y="641" on="1"/>
        <pt x="49" y="577" on="1"/>
        <pt x="49" y="722" on="1"/>
        <pt x="197" y="786" on="1"/>
        <pt x="197" y="1408" on="1"/>
        <pt x="382" y="1408" on="1"/>
        <pt x="382" y="862" on="1"/>
        <pt x="729" y="1014" on="1"/>
        <pt x="729" y="870" on="1"/>
        <pt x="382" y="717" on="1"/>
        <pt x="382" y="145" on="1"/>
        <pt x="970" y="145" on="1"/>
        <pt x="953" y="0" on="1"/>
      </contour>
    </TTGlyph>
    <TTGlyph name="M" xMin="157" yMin="0" xMax="1595" yMax="1437">
      <contour>
        <pt x="221" y="1437" on="1"/>
        <pt x="495" y="1437" on="1"/>
        <pt x="816" y="380" on="1"/>
        <pt x="884" y="149" on="1"/>
        <pt x="946" y="380" on="1"/>
        <pt x="1268" y="1437" on="1"/>
        <pt x="1542" y="1437" on="1"/>
        <pt x="1595" y="0" on="1"/>
        <pt x="1412" y="0" on="1"/>
        <pt x="1381" y="988" on="1"/>
        <pt x="1380" y="1276" on="1"/>
        <pt x="1295" y="941" on="1"/>
        <pt x="1000" y="32" on="1"/>
        <pt x="763" y="32" on="1"/>
        <pt x="468" y="941" on="1"/>
        <pt x="384" y="1276" on="1"/>
        <pt x="381" y="987" on="1"/>
        <pt x="341" y="0" on="1"/>
        <pt x="157" y="0" on="1"/>
      </contour>
    </TTGlyph>
    <TTGlyph name="N" xMin="185" yMin="0" xMax="1302" yMax="1437">
      <contour>
        <pt x="361" y="1148" on="1"/>
        <pt x="361" y="0" on="1"/>
        <pt x="185" y="0" on="1"/>
        <pt x="185" y="1437" on="1"/>
        <pt x="375" y="1437" on="1"/>
        <pt x="1126" y="289" on="1"/>
        <pt x="1126" y="1437" on="1"/>
        <pt x="1302" y="1437" on="1"/>
        <pt x="1302" y="0" on="1"/>
        <pt x="1120" y="1" on="1"/>
      </contour>
    </TTGlyph>
    <TTGlyph name="Ntilde" xMin="185" yMin="0" xMax="1302" yMax="1820">
      <component glyphName="N" x="0" y="0" flags="0x1204"/>
      <component glyphName="tilde" x="296" y="406" flags="0x1004"/>
    </TTGlyph>
    <TTGlyph name="O" xMin="120" yMin="-24" xMax="1279" yMax="1464">
      <contour>
        <pt x="311" y="722" on="1"/>
        <pt x="311" y="581" on="0"/>
        <pt x="354" y="360" on="0"/>
        <pt x="448" y="207" on="0"/>
        <pt x="594" y="127" on="0"/>
        <pt x="698" y="127" on="1"/>
        <pt x="803" y="127" on="0"/>
        <pt x="950" y="207" on="0"/>
        <pt x="1044" y="360" on="0"/>
        <pt x="1087" y="581" on="0"/>
        <pt x="1087" y="722" on="1"/>
        <pt x="1087" y="862" on="0"/>
        <pt x="1044" y="1082" on="0"/>
        <pt x="950" y="1234" on="0"/>
        <pt x="803" y="1314" on="0"/>
        <pt x="698" y="1314" on="1"/>
        <pt x="595" y="1314" on="0"/>
        <pt x="448" y="1234" on="0"/>
        <pt x="355" y="1082" on="0"/>
        <pt x="311" y="862" on="0"/>
      </contour>
      <contour>
        <pt x="120" y="722" on="1"/>
        <pt x="120" y="1098" on="0"/>
        <pt x="416" y="1464" on="0"/>
        <pt x="698" y="1464" on="1"/>
        <pt x="982" y="1464" on="0"/>
        <pt x="1279" y="1098" on="0"/>
        <pt x="1279" y="722" on="1"/>
        <pt x="1279" y="342" on="0"/>
        <pt x="982" y="-24" on="0"/>
        <pt x="698" y="-24" on="1"/>
        <pt x="557" y="-24" on="0"/>
        <pt x="341" y="67" on="0"/>
        <pt x="195" y="252" on="0"/>
        <pt x="120" y="532" on="0"/>
      </contour>
    </TTGlyph>
    <TTGlyph name="OE" xMin="118" yMin="-18" xMax="1886" yMax="1464">
      <contour>
        <pt x="118" y="724" on="1"/>
        <pt x="118" y="936" on="0"/>
        <pt x="209" y="1213" on="0"/>
        <pt x="365" y="1387" on="0"/>
        <pt x="572" y="1464" on="0"/>
        <pt x="689" y="1464" on="1"/>
        <pt x="748" y="1464" on="0"/>
        <pt x="844" y="1446" on="0"/>
        <pt x="921" y="1414" on="0"/>
        <pt x="980" y="1375" on="0"/>
        <pt x="1002" y="1354" on="1"/>
        <pt x="1053" y="1305" on="0"/>
        <pt x="1078" y="1243" on="1"/>
        <pt x="1078" y="1437" on="1"/>
        <pt x="1876" y="1437" on="1"/>
        <pt x="1876" y="1292" on="1"/>
        <pt x="1263" y="1292" on="1"/>
        <pt x="1263" y="826" on="1"/>
        <pt x="1793" y="826" on="1"/>
        <pt x="1793" y="681" on="1"/>
        <pt x="1263" y="681" on="1"/>
        <pt x="1263" y="146" on="1"/>
        <pt x="1886" y="146" on="1"/>
        <pt x="1886" y="0" on="1"/>
        <pt x="1078" y="0" on="1"/>
        <pt x="1078" y="216" on="1"/>
        <pt x="1052" y="138" on="0"/>
        <pt x="1001" y="99" on="1"/>
        <pt x="979" y="77" on="0"/>
        <pt x="920" y="35" on="0"/>
        <pt x="843" y="2" on="0"/>
        <pt x="747" y="-18" on="0"/>
        <pt x="689" y="-18" on="1"/>
        <pt x="572" y="-18" on="0"/>
        <pt x="364" y="60" on="0"/>
        <pt x="208" y="235" on="0"/>
        <pt x="118" y="516" on="0"/>
      </contour>
      <contour>
        <pt x="316" y="724" on="1"/>
        <pt x="316" y="552" on="0"/>
        <pt x="370" y="326" on="0"/>
        <pt x="468" y="188" on="0"/>
        <pt x="605" y="130" on="0"/>
        <pt x="689" y="130" on="1"/>
        <pt x="774" y="130" on="0"/>
        <pt x="913" y="188" on="0"/>
        <pt x="1011" y="326" on="0"/>
        <pt x="1064" y="552" on="0"/>
        <pt x="1064" y="724" on="1"/>
        <pt x="1064" y="902" on="0"/>
        <pt x="1011" y="1124" on="0"/>
        <pt x="913" y="1260" on="0"/>
        <pt x="774" y="1317" on="0"/>
        <pt x="689" y="1317" on="1"/>
        <pt x="605" y="1317" on="0"/>
        <pt x="468" y="1260" on="0"/>
        <pt x="370" y="1124" on="0"/>
        <pt x="316" y="902" on="0"/>
      </contour>
    </TTGlyph>
    <TTGlyph name="Oacute" xMin="120" yMin="-24" xMax="1279" yMax="2113">
      <component glyphName="O" x="0" y="0" flags="0x1204"/>
      <component glyphName="acute" x="468" y="406" flags="0x1004"/>
    </TTGlyph>
    <TTGlyph name="Ocircumflex" xMin="120" yMin="-24" xMax="1279" yMax="2071">
      <component glyphName="O" x="0" y="0" flags="0x1204"/>
      <component glyphName="circumflex" x="322" y="406" flags="0x1004"/>
    </TTGlyph>
    <TTGlyph name="Odieresis" xMin="120" yMin="-24" xMax="1279" yMax="1737">
      <component glyphName="O" x="0" y="0" flags="0x1204"/>
      <component glyphName="dieresis" x="276" y="406" flags="0x1004"/>
    </TTGlyph>
    <TTGlyph name="Ograve" xMin="120" yMin="-24" xMax="1279" yMax="2141">
      <component glyphName="O" x="0" y="0" flags="0x1204"/>
      <component glyphName="grave" x="544" y="406" flags="0x1004"/>
    </TTGlyph>
    <TTGlyph name="Oslash" xMin="120" yMin="-135" xMax="1278" yMax="1586">
      <contour>
        <pt x="289" y="-106" on="1"/>
        <pt x="365" y="62" on="1"/>
        <pt x="120" y="231" on="0"/>
        <pt x="120" y="720" on="1"/>
        <pt x="120" y="1098" on="0"/>
        <pt x="415" y="1466" on="0"/>
        <pt x="697" y="1466" on="1"/>
        <pt x="776" y="1466" on="0"/>
        <pt x="917" y="1434" on="0"/>
        <pt x="977" y="1402" on="1"/>
        <pt x="1060" y="1586" on="1"/>
        <pt x="1117" y="1554" on="1"/>
        <pt x="1033" y="1370" on="1"/>
        <pt x="1158" y="1285" on="0"/>
        <pt x="1278" y="959" on="0"/>
        <pt x="1278" y="720" on="1"/>
        <pt x="1278" y="338" on="0"/>
        <pt x="981" y="-30" on="0"/>
        <pt x="697" y="-30" on="1"/>
        <pt x="538" y="-30" on="0"/>
        <pt x="421" y="28" on="1"/>
        <pt x="346" y="-135" on="1"/>
      </contour>
      <contour>
        <pt x="697" y="117" on="1"/>
        <pt x="802" y="117" on="0"/>
        <pt x="949" y="198" on="0"/>
        <pt x="1043" y="352" on="0"/>
        <pt x="1086" y="578" on="0"/>
        <pt x="1086" y="720" on="1"/>
        <pt x="1086" y="884" on="0"/>
        <pt x="1030" y="1136" on="0"/>
        <pt x="961" y="1214" on="1"/>
        <pt x="488" y="176" on="1"/>
        <pt x="572" y="117" on="0"/>
      </contour>
      <contour>
        <pt x="311" y="720" on="1"/>
        <pt x="311" y="548" on="0"/>
        <pt x="372" y="299" on="0"/>
        <pt x="439" y="222" on="1"/>
        <pt x="911" y="1257" on="1"/>
        <pt x="867" y="1290" on="0"/>
        <pt x="760" y="1319" on="0"/>
        <pt x="697" y="1319" on="1"/>
        <pt x="594" y="1319" on="0"/>
        <pt x="448" y="1238" on="0"/>
        <pt x="355" y="1085" on="0"/>
        <pt x="311" y="862" on="0"/>
      </contour>
    </TTGlyph>
    <TTGlyph name="Otilde" xMin="120" yMin="-24" xMax="1279" yMax="1820">
      <component glyphName="O" x="0" y="0" flags="0x1204"/>
      <component glyphName="tilde" x="252" y="406" flags="0x1004"/>
    </TTGlyph>
    <TTGlyph name="P" xMin="185" yMin="0" xMax="1147" yMax="1437">
      <contour>
        <pt x="544" y="717" on="1"/>
        <pt x="665" y="717" on="0"/>
        <pt x="824" y="748" on="0"/>
        <pt x="917" y="816" on="0"/>
        <pt x="954" y="921" on="0"/>
        <pt x="954" y="1000" on="1"/>
        <pt x="954" y="1094" on="0"/>
        <pt x="918" y="1207" on="0"/>
        <pt x="822" y="1270" on="0"/>
        <pt x="652" y="1293" on="0"/>
        <pt x="517" y="1293" on="1"/>
        <pt x="370" y="1293" on="1"/>
        <pt x="370" y="717" on="1"/>
      </contour>
      <contour>
        <pt x="1147" y="998" on="1"/>
        <pt x="1147" y="876" on="0"/>
        <pt x="1075" y="715" on="0"/>
        <pt x="924" y="615" on="0"/>
        <pt x="690" y="571" on="0"/>
        <pt x="528" y="571" on="1"/>
        <pt x="433" y="571" on="1"/>
        <pt x="403" y="571" on="0"/>
        <pt x="370" y="572" on="1"/>
        <pt x="370" y="0" on="1"/>
        <pt x="185" y="0" on="1"/>
        <pt x="185" y="1437" on="1"/>
        <pt x="494" y="1437" on="1"/>
        <pt x="688" y="1437" on="0"/>
        <pt x="940" y="1394" on="0"/>
        <pt x="1088" y="1292" on="0"/>
        <pt x="1147" y="1125" on="0"/>
      </contour>
    </TTGlyph>
    <TTGlyph name="Q" xMin="122" yMin="-400" xMax="1277" yMax="1464">
      <contour>
        <pt x="122" y="722" on="1"/>
        <pt x="122" y="917" on="0"/>
        <pt x="202" y="1200" on="0"/>
        <pt x="352" y="1381" on="0"/>
        <pt x="565" y="1464" on="0"/>
        <pt x="698" y="1464" on="1"/>
        <pt x="833" y="1464" on="0"/>
        <pt x="1047" y="1381" on="0"/>
        <pt x="1197" y="1200" on="0"/>
        <pt x="1277" y="917" on="0"/>
        <pt x="1277" y="722" on="1"/>
        <pt x="1277" y="545" on="0"/>
        <pt x="1209" y="282" on="0"/>
        <pt x="1085" y="102" on="0"/>
        <pt x="910" y="1" on="0"/>
        <pt x="803" y="-14" on="1"/>
        <pt x="829" y="-35" on="0"/>
        <pt x="902" y="-94" on="0"/>
        <pt x="992" y="-162" on="0"/>
        <pt x="1096" y="-231" on="0"/>
        <pt x="1153" y="-265" on="1"/>
        <pt x="1153" y="-266" on="0"/>
        <pt x="1139" y="-286" on="0"/>
        <pt x="1119" y="-315" on="0"/>
        <pt x="1095" y="-348" on="0"/>
        <pt x="1075" y="-379" on="0"/>
        <pt x="1061" y="-399" on="0"/>
        <pt x="1061" y="-400" on="1"/>
        <pt x="986" y="-359" on="0"/>
        <pt x="849" y="-262" on="0"/>
        <pt x="732" y="-162" on="0"/>
        <pt x="636" y="-64" on="0"/>
        <pt x="602" y="-20" on="1"/>
        <pt x="489" y="-6" on="0"/>
        <pt x="311" y="97" on="0"/>
        <pt x="187" y="280" on="0"/>
        <pt x="122" y="546" on="0"/>
      </contour>
      <contour>
        <pt x="313" y="722" on="1"/>
        <pt x="313" y="582" on="0"/>
        <pt x="356" y="359" on="0"/>
        <pt x="450" y="206" on="0"/>
        <pt x="596" y="127" on="0"/>
        <pt x="700" y="127" on="1"/>
        <pt x="803" y="127" on="0"/>
        <pt x="950" y="206" on="0"/>
        <pt x="1043" y="359" on="0"/>
        <pt x="1086" y="582" on="0"/>
        <pt x="1086" y="722" on="1"/>
        <pt x="1086" y="861" on="0"/>
        <pt x="1042" y="1083" on="0"/>
        <pt x="949" y="1233" on="0"/>
        <pt x="802" y="1314" on="0"/>
        <pt x="700" y="1314" on="1"/>
        <pt x="597" y="1314" on="0"/>
        <pt x="450" y="1233" on="0"/>
        <pt x="357" y="1083" on="0"/>
        <pt x="313" y="861" on="0"/>
      </contour>
    </TTGlyph>
    <TTGlyph name="R" xMin="185" yMin="0" xMax="1164" yMax="1437">
      <contour>
        <pt x="1164" y="0" on="1"/>
        <pt x="983" y="0" on="1"/>
        <pt x="573" y="600" on="1"/>
        <pt x="373" y="600" on="1"/>
        <pt x="373" y="0" on="1"/>
        <pt x="185" y="0" on="1"/>
        <pt x="185" y="1437" on="1"/>
        <pt x="615" y="1437" on="1"/>
        <pt x="734" y="1437" on="0"/>
        <pt x="921" y="1404" on="0"/>
        <pt x="1050" y="1313" on="0"/>
        <pt x="1118" y="1155" on="0"/>
        <pt x="1118" y="1028" on="1"/>
        <pt x="1118" y="912" on="0"/>
        <pt x="1055" y="762" on="0"/>
        <pt x="954" y="671" on="0"/>
        <pt x="826" y="626" on="0"/>
        <pt x="760" y="618" on="1"/>
        <pt x="1164" y="57" on="1"/>
      </contour>
      <contour>
        <pt x="373" y="740" on="1"/>
        <pt x="597" y="740" on="1"/>
        <pt x="697" y="740" on="0"/>
        <pt x="830" y="767" on="0"/>
        <pt x="911" y="831" on="0"/>
        <pt x="945" y="934" on="0"/>
        <pt x="945" y="1011" on="1"/>
        <pt x="945" y="1104" on="0"/>
        <pt x="909" y="1216" on="0"/>
        <pt x="822" y="1277" on="0"/>
        <pt x="675" y="1299" on="0"/>
        <pt x="565" y="1299" on="1"/>
        <pt x="373" y="1299" on="1"/>
      </contour>
    </TTGlyph>
    <TTGlyph name="S" xMin="103" yMin="-24" xMax="1031" yMax="1464">
      <contour>
        <pt x="103" y="1091" on="1"/>
        <pt x="103" y="1182" on="0"/>
        <pt x="172" y="1321" on="0"/>
        <pt x="296" y="1416" on="0"/>
        <pt x="466" y="1464" on="0"/>
        <pt x="568" y="1464" on="1"/>
        <pt x="646" y="1464" on="0"/>
        <pt x="782" y="1446" on="0"/>
        <pt x="833" y="1435" on="1"/>
        <pt x="893" y="1423" on="0"/>
        <pt x="943" y="1408" on="1"/>
        <pt x="964" y="1249" on="1"/>
        <pt x="913" y="1267" on="0"/>
        <pt x="852" y="1282" on="1"/>
        <pt x="799" y="1294" on="0"/>
        <pt x="660" y="1313" on="0"/>
        <pt x="579" y="1314" on="1"/>
        <pt x="513" y="1314" on="0"/>
        <pt x="402" y="1287" on="0"/>
        <pt x="321" y="1229" on="0"/>
        <pt x="276" y="1141" on="0"/>
        <pt x="276" y="1084" on="1"/>
        <pt x="276" y="1034" on="0"/>
        <pt x="305" y="967" on="0"/>
        <pt x="378" y="911" on="0"/>
        <pt x="500" y="860" on="0"/>
        <pt x="593" y="833" on="1"/>
        <pt x="704" y="796" on="0"/>
        <pt x="868" y="734" on="0"/>
        <pt x="977" y="641" on="0"/>
        <pt x="1031" y="499" on="0"/>
        <pt x="1031" y="389" on="1"/>
        <pt x="1031" y="295" on="0"/>
        <pt x="977" y="141" on="0"/>
        <pt x="859" y="33" on="0"/>
        <pt x="673" y="-24" on="0"/>
        <pt x="540" y="-24" on="1"/>
        <pt x="448" y="-24" on="0"/>
        <pt x="305" y="0" on="0"/>
        <pt x="254" y="15" on="1"/>
        <pt x="195" y="33" on="0"/>
        <pt x="150" y="55" on="1"/>
        <pt x="124" y="213" on="1"/>
        <pt x="177" y="188" on="0"/>
        <pt x="240" y="170" on="1"/>
        <pt x="294" y="151" on="0"/>
        <pt x="439" y="127" on="0"/>
        <pt x="522" y="127" on="1"/>
        <pt x="597" y="127" on="0"/>
        <pt x="716" y="149" on="0"/>
        <pt x="800" y="206" on="0"/>
        <pt x="845" y="300" on="0"/>
        <pt x="845" y="370" on="1"/>
        <pt x="845" y="439" on="0"/>
        <pt x="815" y="527" on="0"/>
        <pt x="737" y="596" on="0"/>
        <pt x="602" y="650" on="0"/>
        <pt x="497" y="684" on="1"/>
        <pt x="392" y="715" on="0"/>
        <pt x="243" y="785" on="0"/>
        <pt x="147" y="880" on="0"/>
        <pt x="103" y="1007" on="0"/>
      </contour>
    </TTGlyph>
    <TTGlyph name="Scaron" xMin="103" yMin="-24" xMax="1031" yMax="2068">
      <component glyphName="caron" x="210" y="387" flags="0x1004"/>
      <component glyphName="S" x="0" y="0" flags="0x1004"/>
    </TTGlyph>
    <TTGlyph name="T" xMin="49" yMin="0" xMax="1063" yMax="1437">
      <contour>
        <pt x="648" y="1293" on="1"/>
        <pt x="648" y="0" on="1"/>
        <pt x="461" y="0" on="1"/>
        <pt x="461" y="1293" on="1"/>
        <pt x="49" y="1293" on="1"/>
        <pt x="49" y="1437" on="1"/>
        <pt x="1063" y="1437" on="1"/>
        <pt x="1039" y="1293" on="1"/>
      </contour>
    </TTGlyph>
    <TTGlyph name="Thorn" xMin="185" yMin="0" xMax="1147" yMax="1409">
      <contour>
        <pt x="544" y="512" on="1"/>
        <pt x="665" y="512" on="0"/>
        <pt x="824" y="543" on="0"/>
        <pt x="917" y="610" on="0"/>
        <pt x="954" y="714" on="0"/>
        <pt x="954" y="787" on="1"/>
        <pt x="954" y="876" on="0"/>
        <pt x="918" y="987" on="0"/>
        <pt x="822" y="1049" on="0"/>
        <pt x="652" y="1071" on="0"/>
        <pt x="517" y="1071" on="1"/>
        <pt x="370" y="1071" on="1"/>
        <pt x="370" y="512" on="1"/>
      </contour>
      <contour>
        <pt x="1147" y="785" on="1"/>
        <pt x="1147" y="669" on="0"/>
        <pt x="1075" y="510" on="0"/>
        <pt x="924" y="411" on="0"/>
        <pt x="690" y="367" on="0"/>
        <pt x="528" y="367" on="1"/>
        <pt x="433" y="367" on="1"/>
        <pt x="403" y="367" on="0"/>
        <pt x="370" y="368" on="1"/>
        <pt x="370" y="0" on="1"/>
        <pt x="185" y="0" on="1"/>
        <pt x="185" y="1409" on="1"/>
        <pt x="370" y="1409" on="1"/>
        <pt x="371" y="1216" on="1"/>
        <pt x="494" y="1216" on="1"/>
        <pt x="688" y="1216" on="0"/>
        <pt x="940" y="1173" on="0"/>
        <pt x="1088" y="1072" on="0"/>
        <pt x="1147" y="907" on="0"/>
      </contour>
    </TTGlyph>
    <TTGlyph name="U" xMin="173" yMin="-24" xMax="1263" yMax="1437">
      <contour>
        <pt x="720" y="127" on="1"/>
        <pt x="808" y="127" on="0"/>
        <pt x="940" y="165" on="0"/>
        <pt x="1028" y="251" on="0"/>
        <pt x="1073" y="401" on="0"/>
        <pt x="1073" y="513" on="1"/>
        <pt x="1073" y="1437" on="1"/>
        <pt x="1263" y="1437" on="1"/>
        <pt x="1263" y="500" on="1"/>
        <pt x="1263" y="345" on="0"/>
        <pt x="1182" y="143" on="0"/>
        <pt x="1037" y="24" on="0"/>
        <pt x="838" y="-24" on="0"/>
        <pt x="721" y="-24" on="1"/>
        <pt x="600" y="-24" on="0"/>
        <pt x="398" y="25" on="0"/>
        <pt x="253" y="146" on="0"/>
        <pt x="173" y="348" on="0"/>
        <pt x="173" y="501" on="1"/>
        <pt x="173" y="1437" on="1"/>
        <pt x="364" y="1437" on="1"/>
        <pt x="364" y="513" on="1"/>
        <pt x="364" y="401" on="0"/>
        <pt x="405" y="251" on="0"/>
        <pt x="492" y="165" on="0"/>
        <pt x="627" y="127" on="0"/>
      </contour>
    </TTGlyph>
    <TTGlyph name="Uacute" xMin="173" yMin="-24" xMax="1263" yMax="2113">
      <component glyphName="U" x="0" y="0" flags="0x1204"/>
      <component glyphName="acute" x="487" y="406" flags="0x1004"/>
    </TTGlyph>
    <TTGlyph name="Ucircumflex" xMin="173" yMin="-24" xMax="1263" yMax="2071">
      <component glyphName="U" x="0" y="0" flags="0x1204"/>
      <component glyphName="circumflex" x="341" y="406" flags="0x1004"/>
    </TTGlyph>
    <TTGlyph name="Udieresis" xMin="173" yMin="-24" xMax="1263" yMax="1737">
      <component glyphName="U" x="0" y="0" flags="0x1204"/>
      <component glyphName="dieresis" x="294" y="406" flags="0x1004"/>
    </TTGlyph>
    <TTGlyph name="Ugrave" xMin="173" yMin="-24" xMax="1263" yMax="2141">
      <component glyphName="U" x="0" y="0" flags="0x1204"/>
      <component glyphName="grave" x="562" y="406" flags="0x1004"/>
    </TTGlyph>
    <TTGlyph name="V" xMin="45" yMin="0" xMax="1143" yMax="1437">
      <contour>
        <pt x="459" y="0" on="1"/>
        <pt x="45" y="1437" on="1"/>
        <pt x="256" y="1437" on="1"/>
        <pt x="520" y="421" on="1"/>
        <pt x="598" y="94" on="1"/>
        <pt x="672" y="421" on="1"/>
        <pt x="929" y="1437" on="1"/>
        <pt x="1143" y="1437" on="1"/>
        <pt x="731" y="0" on="1"/>
      </contour>
    </TTGlyph>
    <TTGlyph name="W" xMin="79" yMin="0" xMax="1777" yMax="1437">
      <contour>
        <pt x="1218" y="0" on="1"/>
        <pt x="994" y="943" on="1"/>
        <pt x="929" y="1262" on="1"/>
        <pt x="866" y="942" on="1"/>
        <pt x="642" y="0" on="1"/>
        <pt x="366" y="0" on="1"/>
        <pt x="79" y="1437" on="1"/>
        <pt x="272" y="1437" on="1"/>
        <pt x="476" y="325" on="1"/>
        <pt x="512" y="124" on="1"/>
        <pt x="550" y="322" on="1"/>
        <pt x="794" y="1376" on="1"/>
        <pt x="1066" y="1376" on="1"/>
        <pt x="1311" y="321" on="1"/>
        <pt x="1350" y="124" on="1"/>
        <pt x="1386" y="325" on="1"/>
        <pt x="1588" y="1437" on="1"/>
        <pt x="1777" y="1437" on="1"/>
        <pt x="1494" y="0" on="1"/>
      </contour>
    </TTGlyph>
    <TTGlyph name="X" xMin="61" yMin="0" xMax="1059" yMax="1437">
      <contour>
        <pt x="494" y="484" on="1"/>
        <pt x="269" y="0" on="1"/>
        <pt x="61" y="0" on="1"/>
        <pt x="419" y="728" on="1"/>
        <pt x="64" y="1437" on="1"/>
        <pt x="272" y="1437" on="1"/>
        <pt x="494" y="953" on="1"/>
        <pt x="560" y="809" on="1"/>
        <pt x="626" y="953" on="1"/>
        <pt x="848" y="1437" on="1"/>
        <pt x="1057" y="1437" on="1"/>
        <pt x="697" y="728" on="1"/>
        <pt x="1059" y="0" on="1"/>
        <pt x="851" y="0" on="1"/>
        <pt x="626" y="485" on="1"/>
        <pt x="560" y="626" on="1"/>
      </contour>
    </TTGlyph>
    <TTGlyph name="Y" xMin="27" yMin="0" xMax="1107" yMax="1437">
      <contour>
        <pt x="899" y="1437" on="1"/>
        <pt x="1107" y="1437" on="1"/>
        <pt x="667" y="450" on="1"/>
        <pt x="667" y="0" on="1"/>
        <pt x="465" y="0" on="1"/>
        <pt x="465" y="449" on="1"/>
        <pt x="27" y="1437" on="1"/>
        <pt x="237" y="1437" on="1"/>
        <pt x="467" y="871" on="1"/>
        <pt x="565" y="609" on="1"/>
        <pt x="572" y="609" on="1"/>
        <pt x="666" y="871" on="1"/>
      </contour>
    </TTGlyph>
    <TTGlyph name="Yacute" xMin="27" yMin="0" xMax="1107" yMax="2113">
      <component glyphName="Y" x="0" y="0" flags="0x1204"/>
      <component glyphName="acute" x="335" y="406" flags="0x1004"/>
    </TTGlyph>
    <TTGlyph name="Ydieresis" xMin="27" yMin="0" xMax="1107" yMax="1737">
      <component glyphName="Y" x="0" y="0" flags="0x1204"/>
      <component glyphName="dieresis" x="143" y="406" flags="0x1004"/>
    </TTGlyph>
    <TTGlyph name="Z" xMin="88" yMin="0" xMax="1020" yMax="1437">
      <contour>
        <pt x="92" y="156" on="1"/>
        <pt x="619" y="972" on="1"/>
        <pt x="840" y="1292" on="1"/>
        <pt x="638" y="1287" on="1"/>
        <pt x="88" y="1287" on="1"/>
        <pt x="112" y="1437" on="1"/>
        <pt x="1004" y="1437" on="1"/>
        <pt x="1020" y="1273" on="1"/>
        <pt x="392" y="291" on="1"/>
        <pt x="281" y="141" on="1"/>
        <pt x="484" y="147" on="1"/>
        <pt x="1006" y="147" on="1"/>
        <pt x="983" y="0" on="1"/>
        <pt x="107" y="0" on="1"/>
      </contour>
    </TTGlyph>
    <TTGlyph name="Zcaron" xMin="88" yMin="0" xMax="1020" yMax="2068">
      <component glyphName="caron" x="205" y="387" flags="0x1004"/>
      <component glyphName="Z" x="0" y="0" flags="0x1004"/>
    </TTGlyph>
    <TTGlyph name="a" xMin="82" yMin="-18" xMax="1012" yMax="1053">
      <contour>
        <pt x="570" y="453" on="1"/>
        <pt x="541" y="453" on="0"/>
        <pt x="470" y="450" on="0"/>
        <pt x="399" y="438" on="0"/>
        <pt x="333" y="414" on="0"/>
        <pt x="282" y="374" on="0"/>
        <pt x="251" y="311" on="0"/>
        <pt x="251" y="268" on="1"/>
        <pt x="251" y="191" on="0"/>
        <pt x="350" y="117" on="0"/>
        <pt x="441" y="117" on="1"/>
        <pt x="504" y="117" on="0"/>
        <pt x="607" y="143" on="0"/>
        <pt x="644" y="160" on="1"/>
        <pt x="687" y="179" on="0"/>
        <pt x="722" y="204" on="1"/>
        <pt x="722" y="447" on="1"/>
        <pt x="699" y="449" on="0"/>
        <pt x="673" y="450" on="1"/>
        <pt x="651" y="451" on="0"/>
        <pt x="597" y="452" on="0"/>
      </contour>
      <contour>
        <pt x="906" y="206" on="1"/>
        <pt x="906" y="170" on="0"/>
        <pt x="915" y="131" on="0"/>
        <pt x="928" y="126" on="1"/>
        <pt x="942" y="120" on="0"/>
        <pt x="991" y="122" on="0"/>
        <pt x="1012" y="122" on="1"/>
        <pt x="999" y="0" on="1"/>
        <pt x="985" y="-5" on="0"/>
        <pt x="967" y="-9" on="1"/>
        <pt x="952" y="-13" on="0"/>
        <pt x="911" y="-18" on="0"/>
        <pt x="887" y="-18" on="1"/>
        <pt x="846" y="-18" on="0"/>
        <pt x="789" y="11" on="0"/>
        <pt x="753" y="51" on="0"/>
        <pt x="736" y="105" on="0"/>
        <pt x="736" y="117" on="1"/>
        <pt x="709" y="79" on="0"/>
        <pt x="661" y="49" on="1"/>
        <pt x="620" y="23" on="0"/>
        <pt x="487" y="-18" on="0"/>
        <pt x="387" y="-18" on="1"/>
        <pt x="319" y="-18" on="0"/>
        <pt x="206" y="21" on="0"/>
        <pt x="126" y="97" on="0"/>
        <pt x="82" y="209" on="0"/>
        <pt x="82" y="275" on="1"/>
        <pt x="82" y="365" on="0"/>
        <pt x="160" y="479" on="0"/>
        <pt x="288" y="543" on="0"/>
        <pt x="453" y="568" on="0"/>
        <pt x="540" y="568" on="1"/>
        <pt x="575" y="568" on="0"/>
        <pt x="641" y="563" on="0"/>
        <pt x="667" y="561" on="1"/>
        <pt x="697" y="556" on="0"/>
        <pt x="722" y="553" on="1"/>
        <pt x="722" y="666" on="1"/>
        <pt x="722" y="745" on="0"/>
        <pt x="698" y="843" on="0"/>
        <pt x="643" y="895" on="0"/>
        <pt x="555" y="912" on="0"/>
        <pt x="491" y="912" on="1"/>
        <pt x="429" y="912" on="0"/>
        <pt x="313" y="893" on="0"/>
        <pt x="266" y="882" on="1"/>
        <pt x="211" y="869" on="0"/>
        <pt x="163" y="851" on="1"/>
        <pt x="183" y="990" on="1"/>
        <pt x="221" y="1007" on="0"/>
        <pt x="270" y="1021" on="1"/>
        <pt x="312" y="1033" on="0"/>
        <pt x="430" y="1053" on="0"/>
        <pt x="505" y="1053" on="1"/>
        <pt x="626" y="1053" on="0"/>
        <pt x="782" y="1006" on="0"/>
        <pt x="872" y="901" on="0"/>
        <pt x="906" y="732" on="0"/>
        <pt x="906" y="611" on="1"/>
      </contour>
    </TTGlyph>
    <TTGlyph name="aacute" xMin="82" yMin="-18" xMax="1012" yMax="1707">
      <component glyphName="a" x="0" y="0" flags="0x1204"/>
      <component glyphName="acute" x="309" y="0" flags="0x1004"/>
    </TTGlyph>
    <TTGlyph name="acircumflex" xMin="82" yMin="-18" xMax="1012" yMax="1665">
      <component glyphName="a" x="0" y="0" flags="0x1204"/>
      <component glyphName="circumflex" x="163" y="0" flags="0x1004"/>
    </TTGlyph>
    <TTGlyph name="acute" xMin="75" yMin="1155" xMax="387" yMax="1707">
      <contour>
        <pt x="162" y="1707" on="1"/>
        <pt x="387" y="1707" on="1"/>
        <pt x="147" y="1155" on="1"/>
        <pt x="75" y="1155" on="1"/>
      </contour>
    </TTGlyph>
    <TTGlyph name="adieresis" xMin="82" yMin="-18" xMax="1012" yMax="1331">
      <component glyphName="a" x="0" y="0" flags="0x1204"/>
      <component glyphName="dieresis" x="116" y="0" flags="0x1004"/>
    </TTGlyph>
    <TTGlyph name="ae" xMin="82" yMin="-28" xMax="1552" yMax="1035">
      <contour>
        <pt x="1486" y="20" on="1"/>
        <pt x="1449" y="7" on="0"/>
        <pt x="1402" y="-4" on="1"/>
        <pt x="1362" y="-13" on="0"/>
        <pt x="1254" y="-28" on="0"/>
        <pt x="1190" y="-28" on="1"/>
        <pt x="959" y="-28" on="0"/>
        <pt x="842" y="116" on="1"/>
        <pt x="827" y="101" on="0"/>
        <pt x="758" y="53" on="0"/>
        <pt x="646" y="6" on="0"/>
        <pt x="489" y="-28" on="0"/>
        <pt x="386" y="-28" on="1"/>
        <pt x="318" y="-28" on="0"/>
        <pt x="206" y="11" on="0"/>
        <pt x="126" y="86" on="0"/>
        <pt x="82" y="197" on="0"/>
        <pt x="82" y="268" on="1"/>
        <pt x="82" y="336" on="0"/>
        <pt x="130" y="433" on="0"/>
        <pt x="210" y="499" on="0"/>
        <pt x="316" y="536" on="0"/>
        <pt x="432" y="554" on="0"/>
        <pt x="551" y="557" on="0"/>
        <pt x="604" y="555" on="1"/>
        <pt x="625" y="553" on="0"/>
        <pt x="667" y="551" on="0"/>
        <pt x="684" y="549" on="1"/>
        <pt x="703" y="547" on="0"/>
        <pt x="722" y="546" on="1"/>
        <pt x="722" y="651" on="1"/>
        <pt x="722" y="717" on="0"/>
        <pt x="704" y="806" on="0"/>
        <pt x="665" y="861" on="0"/>
        <pt x="600" y="888" on="0"/>
        <pt x="554" y="892" on="1"/>
        <pt x="455" y="901" on="0"/>
        <pt x="257" y="869" on="0"/>
        <pt x="163" y="836" on="1"/>
        <pt x="183" y="969" on="1"/>
        <pt x="226" y="991" on="0"/>
        <pt x="322" y="1020" on="0"/>
        <pt x="422" y="1034" on="0"/>
        <pt x="524" y="1036" on="0"/>
        <pt x="572" y="1032" on="1"/>
        <pt x="681" y="1023" on="0"/>
        <pt x="821" y="933" on="0"/>
        <pt x="840" y="839" on="1"/>
        <pt x="868" y="895" on="0"/>
        <pt x="942" y="970" on="0"/>
        <pt x="1027" y="1016" on="0"/>
        <pt x="1121" y="1035" on="0"/>
        <pt x="1171" y="1035" on="1"/>
        <pt x="1266" y="1035" on="0"/>
        <pt x="1407" y="975" on="0"/>
        <pt x="1502" y="876" on="0"/>
        <pt x="1550" y="748" on="0"/>
        <pt x="1552" y="679" on="1"/>
        <pt x="1552" y="658" on="0"/>
        <pt x="1549" y="603" on="0"/>
        <pt x="1544" y="550" on="0"/>
        <pt x="1539" y="506" on="0"/>
        <pt x="1537" y="496" on="1"/>
        <pt x="914" y="496" on="1"/>
        <pt x="914" y="460" on="1"/>
        <pt x="914" y="371" on="0"/>
        <pt x="949" y="247" on="0"/>
        <pt x="1012" y="166" on="0"/>
        <pt x="1099" y="124" on="0"/>
        <pt x="1150" y="117" on="1"/>
        <pt x="1205" y="111" on="0"/>
        <pt x="1311" y="117" on="0"/>
        <pt x="1405" y="131" on="0"/>
        <pt x="1483" y="148" on="0"/>
        <pt x="1510" y="154" on="1"/>
      </contour>
      <contour>
        <pt x="570" y="445" on="1"/>
        <pt x="517" y="445" on="0"/>
        <pt x="404" y="436" on="0"/>
        <pt x="311" y="400" on="0"/>
        <pt x="251" y="326" on="0"/>
        <pt x="251" y="261" on="1"/>
        <pt x="251" y="179" on="0"/>
        <pt x="350" y="106" on="0"/>
        <pt x="441" y="106" on="1"/>
        <pt x="506" y="106" on="0"/>
        <pt x="619" y="135" on="0"/>
        <pt x="706" y="172" on="0"/>
        <pt x="763" y="209" on="0"/>
        <pt x="773" y="217" on="1"/>
        <pt x="763" y="240" on="0"/>
        <pt x="747" y="297" on="0"/>
        <pt x="734" y="356" on="0"/>
        <pt x="727" y="415" on="0"/>
        <pt x="726" y="439" on="1"/>
        <pt x="700" y="440" on="0"/>
        <pt x="674" y="442" on="1"/>
        <pt x="651" y="443" on="0"/>
        <pt x="596" y="445" on="0"/>
      </contour>
      <contour>
        <pt x="1176" y="898" on="1"/>
        <pt x="1126" y="898" on="0"/>
        <pt x="1038" y="869" on="0"/>
        <pt x="969" y="801" on="0"/>
        <pt x="923" y="690" on="0"/>
        <pt x="917" y="608" on="1"/>
        <pt x="1392" y="608" on="1"/>
        <pt x="1393" y="607" on="0"/>
        <pt x="1393" y="640" on="0"/>
        <pt x="1393" y="656" on="1"/>
        <pt x="1391" y="720" on="0"/>
        <pt x="1358" y="811" on="0"/>
        <pt x="1300" y="870" on="0"/>
        <pt x="1222" y="898" on="0"/>
      </contour>
    </TTGlyph>
    <TTGlyph name="agrave" xMin="82" yMin="-18" xMax="1012" yMax="1735">
      <component glyphName="a" x="0" y="0" flags="0x1204"/>
      <component glyphName="grave" x="384" y="0" flags="0x1004"/>
    </TTGlyph>
    <TTGlyph name="ampersand" xMin="94" yMin="-24" xMax="1418" yMax="1464">
      <contour>
        <pt x="1318" y="-20" on="1"/>
        <pt x="1112" y="164" on="1"/>
        <pt x="1034" y="69" on="0"/>
        <pt x="784" y="-24" on="0"/>
        <pt x="600" y="-24" on="1"/>
        <pt x="457" y="-24" on="0"/>
        <pt x="263" y="37" on="0"/>
        <pt x="145" y="141" on="0"/>
        <pt x="94" y="279" on="0"/>
        <pt x="94" y="353" on="1"/>
        <pt x="94" y="418" on="0"/>
        <pt x="137" y="544" on="0"/>
        <pt x="219" y="654" on="0"/>
        <pt x="347" y="753" on="0"/>
        <pt x="422" y="790" on="1"/>
        <pt x="378" y="830" on="0"/>
        <pt x="293" y="913" on="0"/>
        <pt x="236" y="1003" on="0"/>
        <pt x="203" y="1104" on="0"/>
        <pt x="203" y="1163" on="1"/>
        <pt x="203" y="1235" on="0"/>
        <pt x="250" y="1339" on="0"/>
        <pt x="346" y="1421" on="0"/>
        <pt x="491" y="1464" on="0"/>
        <pt x="590" y="1464" on="1"/>
        <pt x="689" y="1464" on="0"/>
        <pt x="828" y="1419" on="0"/>
        <pt x="915" y="1339" on="0"/>
        <pt x="955" y="1241" on="0"/>
        <pt x="955" y="1176" on="1"/>
        <pt x="955" y="1108" on="0"/>
        <pt x="911" y="992" on="0"/>
        <pt x="830" y="893" on="0"/>
        <pt x="717" y="810" on="0"/>
        <pt x="643" y="770" on="1"/>
        <pt x="1080" y="371" on="1"/>
        <pt x="1100" y="419" on="0"/>
        <pt x="1124" y="551" on="0"/>
        <pt x="1138" y="684" on="0"/>
        <pt x="1146" y="830" on="0"/>
        <pt x="1149" y="912" on="1"/>
        <pt x="1295" y="923" on="1"/>
        <pt x="1295" y="724" on="0"/>
        <pt x="1250" y="406" on="0"/>
        <pt x="1193" y="287" on="1"/>
        <pt x="1418" y="85" on="1"/>
      </contour>
      <contour>
        <pt x="603" y="123" on="1"/>
        <pt x="754" y="123" on="0"/>
        <pt x="946" y="194" on="0"/>
        <pt x="1003" y="259" on="1"/>
        <pt x="514" y="708" on="1"/>
        <pt x="390" y="640" on="0"/>
        <pt x="269" y="480" on="0"/>
        <pt x="269" y="374" on="1"/>
        <pt x="269" y="322" on="0"/>
        <pt x="298" y="232" on="0"/>
        <pt x="373" y="164" on="0"/>
        <pt x="503" y="123" on="0"/>
      </contour>
      <contour>
        <pt x="367" y="1149" on="1"/>
        <pt x="367" y="1110" on="0"/>
        <pt x="399" y="1030" on="0"/>
        <pt x="452" y="956" on="0"/>
        <pt x="518" y="882" on="0"/>
        <pt x="551" y="853" on="1"/>
        <pt x="596" y="880" on="0"/>
        <pt x="686" y="943" on="0"/>
        <pt x="758" y="1012" on="0"/>
        <pt x="803" y="1098" on="0"/>
        <pt x="803" y="1153" on="1"/>
        <pt x="803" y="1199" on="0"/>
        <pt x="781" y="1268" on="0"/>
        <pt x="728" y="1315" on="0"/>
        <pt x="643" y="1338" on="0"/>
        <pt x="580" y="1338" on="1"/>
        <pt x="522" y="1338" on="0"/>
        <pt x="441" y="1312" on="0"/>
        <pt x="390" y="1262" on="0"/>
        <pt x="367" y="1194" on="0"/>
      </contour>
    </TTGlyph>
    <TTGlyph name="approxequal" xMin="152" yMin="386" xMax="860" yMax="805">
      <contour>
        <pt x="860" y="782" on="1"/>
        <pt x="860" y="731" on="0"/>
        <pt x="842" y="691" on="1"/>
        <pt x="834" y="674" on="0"/>
        <pt x="807" y="642" on="0"/>
        <pt x="767" y="616" on="0"/>
        <pt x="712" y="601" on="0"/>
        <pt x="675" y="601" on="1"/>
        <pt x="632" y="601" on="0"/>
        <pt x="537" y="633" on="0"/>
        <pt x="447" y="671" on="0"/>
        <pt x="366" y="703" on="0"/>
        <pt x="336" y="703" on="1"/>
        <pt x="307" y="703" on="0"/>
        <pt x="277" y="678" on="0"/>
        <pt x="270" y="664" on="1"/>
        <pt x="262" y="647" on="0"/>
        <pt x="261" y="626" on="1"/>
        <pt x="152" y="626" on="1"/>
        <pt x="155" y="675" on="0"/>
        <pt x="176" y="715" on="1"/>
        <pt x="185" y="732" on="0"/>
        <pt x="212" y="764" on="0"/>
        <pt x="252" y="790" on="0"/>
        <pt x="305" y="805" on="0"/>
        <pt x="341" y="805" on="1"/>
        <pt x="386" y="805" on="0"/>
        <pt x="480" y="774" on="0"/>
        <pt x="568" y="738" on="0"/>
        <pt x="648" y="707" on="0"/>
        <pt x="679" y="707" on="1"/>
        <pt x="705" y="707" on="0"/>
        <pt x="734" y="725" on="0"/>
        <pt x="747" y="749" on="0"/>
        <pt x="749" y="774" on="0"/>
        <pt x="749" y="782" on="1"/>
      </contour>
      <contour>
        <pt x="860" y="566" on="1"/>
        <pt x="860" y="516" on="0"/>
        <pt x="842" y="476" on="1"/>
        <pt x="834" y="459" on="0"/>
        <pt x="807" y="427" on="0"/>
        <pt x="767" y="401" on="0"/>
        <pt x="712" y="386" on="0"/>
        <pt x="675" y="386" on="1"/>
        <pt x="632" y="386" on="0"/>
        <pt x="537" y="418" on="0"/>
        <pt x="447" y="455" on="0"/>
        <pt x="366" y="487" on="0"/>
        <pt x="336" y="487" on="1"/>
        <pt x="307" y="487" on="0"/>
        <pt x="277" y="462" on="0"/>
        <pt x="270" y="448" on="1"/>
        <pt x="262" y="431" on="0"/>
        <pt x="261" y="410" on="1"/>
        <pt x="152" y="410" on="1"/>
        <pt x="155" y="460" on="0"/>
        <pt x="176" y="500" on="1"/>
        <pt x="185" y="517" on="0"/>
        <pt x="212" y="549" on="0"/>
        <pt x="252" y="575" on="0"/>
        <pt x="305" y="590" on="0"/>
        <pt x="341" y="590" on="1"/>
        <pt x="386" y="590" on="0"/>
        <pt x="480" y="559" on="0"/>
        <pt x="568" y="522" on="0"/>
        <pt x="648" y="491" on="0"/>
        <pt x="679" y="491" on="1"/>
        <pt x="705" y="491" on="0"/>
        <pt x="734" y="508" on="0"/>
        <pt x="747" y="532" on="0"/>
        <pt x="749" y="558" on="0"/>
        <pt x="749" y="566" on="1"/>
      </contour>
    </TTGlyph>
    <TTGlyph name="aring" xMin="82" yMin="-18" xMax="1012" yMax="1587">
      <component glyphName="a" x="0" y="0" flags="0x1204"/>
      <component glyphName="ring" x="244" y="0" flags="0x1004"/>
    </TTGlyph>
    <TTGlyph name="asciicircum" xMin="52" yMin="279" xMax="836" yMax="1013">
      <contour>
        <pt x="836" y="279" on="1"/>
        <pt x="662" y="279" on="1"/>
        <pt x="656" y="293" on="0"/>
        <pt x="623" y="385" on="0"/>
        <pt x="578" y="509" on="0"/>
        <pt x="527" y="649" on="0"/>
        <pt x="483" y="773" on="0"/>
        <pt x="449" y="865" on="0"/>
        <pt x="444" y="880" on="1"/>
        <pt x="440" y="869" on="0"/>
        <pt x="418" y="811" on="0"/>
        <pt x="389" y="728" on="0"/>
        <pt x="354" y="630" on="0"/>
        <pt x="317" y="528" on="0"/>
        <pt x="282" y="429" on="0"/>
        <pt x="253" y="348" on="0"/>
        <pt x="232" y="289" on="0"/>
        <pt x="228" y="279" on="1"/>
        <pt x="52" y="279" on="1"/>
        <pt x="56" y="287" on="0"/>
        <pt x="85" y="356" on="0"/>
        <pt x="129" y="457" on="0"/>
        <pt x="182" y="582" on="0"/>
        <pt x="237" y="711" on="0"/>
        <pt x="290" y="836" on="0"/>
        <pt x="334" y="937" on="0"/>
        <pt x="363" y="1005" on="0"/>
        <pt x="367" y="1013" on="1"/>
        <pt x="522" y="1013" on="1"/>
      </contour>
    </TTGlyph>
    <TTGlyph name="asciitilde" xMin="136" yMin="490" xMax="760" yMax="721">
      <contour>
        <pt x="562" y="617" on="1"/>
        <pt x="588" y="611" on="0"/>
        <pt x="603" y="622" on="1"/>
        <pt x="618" y="633" on="0"/>
        <pt x="628" y="679" on="0"/>
        <pt x="629" y="705" on="1"/>
        <pt x="760" y="705" on="1"/>
        <pt x="761" y="646" on="0"/>
        <pt x="734" y="566" on="0"/>
        <pt x="691" y="516" on="0"/>
        <pt x="636" y="492" on="0"/>
        <pt x="609" y="491" on="1"/>
        <pt x="599" y="490" on="0"/>
        <pt x="579" y="491" on="0"/>
        <pt x="568" y="493" on="1"/>
        <pt x="534" y="497" on="0"/>
        <pt x="465" y="529" on="0"/>
        <pt x="401" y="565" on="0"/>
        <pt x="343" y="594" on="0"/>
        <pt x="321" y="595" on="1"/>
        <pt x="306" y="595" on="0"/>
        <pt x="285" y="579" on="0"/>
        <pt x="273" y="552" on="0"/>
        <pt x="268" y="517" on="0"/>
        <pt x="268" y="498" on="1"/>
        <pt x="136" y="498" on="1"/>
        <pt x="135" y="563" on="0"/>
        <pt x="165" y="650" on="0"/>
        <pt x="214" y="701" on="0"/>
        <pt x="278" y="722" on="0"/>
        <pt x="311" y="721" on="1"/>
        <pt x="348" y="719" on="0"/>
        <pt x="418" y="689" on="0"/>
        <pt x="482" y="653" on="0"/>
        <pt x="538" y="621" on="0"/>
      </contour>
    </TTGlyph>
    <TTGlyph name="asterisk" xMin="94" yMin="719" xMax="782" yMax="1409">
      <contour>
        <pt x="309" y="722" on="1"/>
        <pt x="212" y="777" on="1"/>
        <pt x="357" y="1017" on="1"/>
        <pt x="94" y="1008" on="1"/>
        <pt x="94" y="1118" on="1"/>
        <pt x="359" y="1110" on="1"/>
        <pt x="225" y="1348" on="1"/>
        <pt x="322" y="1403" on="1"/>
        <pt x="438" y="1163" on="1"/>
        <pt x="569" y="1409" on="1"/>
        <pt x="666" y="1351" on="1"/>
        <pt x="516" y="1109" on="1"/>
        <pt x="782" y="1118" on="1"/>
        <pt x="782" y="1008" on="1"/>
        <pt x="519" y="1017" on="1"/>
        <pt x="655" y="776" on="1"/>
        <pt x="551" y="719" on="1"/>
        <pt x="438" y="964" on="1"/>
      </contour>
    </TTGlyph>
    <TTGlyph name="at" xMin="94" yMin="-115" xMax="1511" yMax="1317">
      <contour>
        <pt x="1035" y="896" on="1"/>
        <pt x="1032" y="896" on="0"/>
        <pt x="995" y="903" on="0"/>
        <pt x="943" y="911" on="0"/>
        <pt x="886" y="918" on="0"/>
        <pt x="864" y="917" on="1"/>
        <pt x="794" y="914" on="0"/>
        <pt x="671" y="851" on="0"/>
        <pt x="577" y="751" on="0"/>
        <pt x="520" y="624" on="0"/>
        <pt x="517" y="557" on="1"/>
        <pt x="509" y="425" on="0"/>
        <pt x="607" y="299" on="0"/>
        <pt x="709" y="299" on="1"/>
        <pt x="777" y="299" on="0"/>
        <pt x="880" y="350" on="0"/>
        <pt x="955" y="448" on="0"/>
        <pt x="1001" y="591" on="0"/>
        <pt x="1012" y="681" on="1"/>
      </contour>
      <contour>
        <pt x="1511" y="685" on="1"/>
        <pt x="1511" y="577" on="0"/>
        <pt x="1469" y="418" on="0"/>
        <pt x="1400" y="306" on="0"/>
        <pt x="1313" y="235" on="0"/>
        <pt x="1223" y="197" on="0"/>
        <pt x="1140" y="183" on="0"/>
        <pt x="1109" y="183" on="1"/>
        <pt x="1071" y="183" on="0"/>
        <pt x="1028" y="208" on="0"/>
        <pt x="1007" y="251" on="0"/>
        <pt x="1004" y="311" on="0"/>
        <pt x="1007" y="345" on="1"/>
        <pt x="1008" y="348" on="0"/>
        <pt x="1014" y="382" on="0"/>
        <pt x="1017" y="401" on="1"/>
        <pt x="1025" y="449" on="1"/>
        <pt x="1016" y="450" on="1"/>
        <pt x="998" y="375" on="0"/>
        <pt x="957" y="315" on="1"/>
        <pt x="939" y="290" on="0"/>
        <pt x="890" y="240" on="0"/>
        <pt x="825" y="203" on="0"/>
        <pt x="742" y="180" on="0"/>
        <pt x="691" y="180" on="1"/>
        <pt x="619" y="180" on="0"/>
        <pt x="506" y="229" on="0"/>
        <pt x="426" y="322" on="0"/>
        <pt x="384" y="452" on="0"/>
        <pt x="384" y="533" on="1"/>
        <pt x="384" y="598" on="0"/>
        <pt x="422" y="725" on="0"/>
        <pt x="492" y="840" on="0"/>
        <pt x="591" y="937" on="0"/>
        <pt x="712" y="1003" on="0"/>
        <pt x="852" y="1032" on="0"/>
        <pt x="929" y="1022" on="1"/>
        <pt x="953" y="1019" on="0"/>
        <pt x="1016" y="1010" on="0"/>
        <pt x="1073" y="1001" on="0"/>
        <pt x="1113" y="994" on="0"/>
        <pt x="1114" y="994" on="1"/>
        <pt x="1160" y="895" on="1"/>
        <pt x="1105" y="287" on="1"/>
        <pt x="1128" y="287" on="0"/>
        <pt x="1187" y="297" on="0"/>
        <pt x="1248" y="327" on="0"/>
        <pt x="1306" y="383" on="0"/>
        <pt x="1351" y="472" on="0"/>
        <pt x="1378" y="599" on="0"/>
        <pt x="1378" y="688" on="1"/>
        <pt x="1378" y="818" on="0"/>
        <pt x="1299" y="1010" on="0"/>
        <pt x="1155" y="1136" on="0"/>
        <pt x="952" y="1198" on="0"/>
        <pt x="827" y="1198" on="1"/>
        <pt x="691" y="1198" on="0"/>
        <pt x="476" y="1096" on="0"/>
        <pt x="324" y="924" on="0"/>
        <pt x="238" y="697" on="0"/>
        <pt x="232" y="572" on="1"/>
        <pt x="225" y="444" on="0"/>
        <pt x="296" y="235" on="0"/>
        <pt x="445" y="86" on="0"/>
        <pt x="670" y="3" on="0"/>
        <pt x="817" y="3" on="1"/>
        <pt x="930" y="3" on="0"/>
        <pt x="1090" y="45" on="0"/>
        <pt x="1141" y="73" on="1"/>
        <pt x="1201" y="103" on="0"/>
        <pt x="1240" y="141" on="1"/>
        <pt x="1246" y="136" on="0"/>
        <pt x="1264" y="114" on="0"/>
        <pt x="1285" y="90" on="0"/>
        <pt x="1303" y="68" on="0"/>
        <pt x="1309" y="62" on="1"/>
        <pt x="1269" y="12" on="0"/>
        <pt x="1199" y="-26" on="1"/>
        <pt x="1169" y="-42" on="0"/>
        <pt x="1092" y="-75" on="0"/>
        <pt x="995" y="-100" on="0"/>
        <pt x="877" y="-115" on="0"/>
        <pt x="807" y="-115" on="1"/>
        <pt x="646" y="-115" on="0"/>
        <pt x="378" y="-21" on="0"/>
        <pt x="188" y="157" on="0"/>
        <pt x="88" y="410" on="0"/>
        <pt x="94" y="572" on="1"/>
        <pt x="100" y="731" on="0"/>
        <pt x="217" y="1005" on="0"/>
        <pt x="412" y="1204" on="0"/>
        <pt x="672" y="1317" on="0"/>
        <pt x="821" y="1317" on="1"/>
        <pt x="968" y="1317" on="0"/>
        <pt x="1221" y="1235" on="0"/>
        <pt x="1406" y="1077" on="0"/>
        <pt x="1511" y="839" on="0"/>
      </contour>
    </TTGlyph>
    <TTGlyph name="atilde" xMin="82" yMin="-18" xMax="1012" yMax="1414">
      <component glyphName="a" x="0" y="0" flags="0x1204"/>
      <component glyphName="tilde" x="92" y="0" flags="0x1004"/>
    </TTGlyph>
    <TTGlyph name="b" xMin="156" yMin="-18" xMax="1026" yMax="1437">
      <contour>
        <pt x="156" y="0" on="1"/>
        <pt x="156" y="1418" on="1"/>
        <pt x="341" y="1437" on="1"/>
        <pt x="341" y="956" on="1"/>
        <pt x="377" y="980" on="0"/>
        <pt x="423" y="999" on="1"/>
        <pt x="462" y="1016" on="0"/>
        <pt x="569" y="1043" on="0"/>
        <pt x="635" y="1043" on="1"/>
        <pt x="714" y="1043" on="0"/>
        <pt x="856" y="982" on="0"/>
        <pt x="963" y="852" on="0"/>
        <pt x="1026" y="648" on="0"/>
        <pt x="1026" y="507" on="1"/>
        <pt x="1026" y="361" on="0"/>
        <pt x="954" y="160" on="0"/>
        <pt x="837" y="36" on="0"/>
        <pt x="690" y="-18" on="0"/>
        <pt x="614" y="-18" on="1"/>
        <pt x="542" y="-18" on="0"/>
        <pt x="432" y="18" on="0"/>
        <pt x="394" y="41" on="1"/>
        <pt x="350" y="67" on="0"/>
        <pt x="318" y="101" on="1"/>
        <pt x="292" y="-9" on="1"/>
      </contour>
      <contour>
        <pt x="341" y="217" on="1"/>
        <pt x="371" y="190" on="0"/>
        <pt x="409" y="169" on="1"/>
        <pt x="441" y="151" on="0"/>
        <pt x="531" y="122" on="0"/>
        <pt x="586" y="122" on="1"/>
        <pt x="638" y="122" on="0"/>
        <pt x="731" y="163" on="0"/>
        <pt x="800" y="254" on="0"/>
        <pt x="841" y="399" on="0"/>
        <pt x="841" y="503" on="1"/>
        <pt x="841" y="692" on="0"/>
        <pt x="721" y="901" on="0"/>
        <pt x="599" y="901" on="1"/>
        <pt x="544" y="901" on="0"/>
        <pt x="451" y="876" on="0"/>
        <pt x="416" y="861" on="1"/>
        <pt x="376" y="843" on="0"/>
        <pt x="341" y="822" on="1"/>
      </contour>
    </TTGlyph>
    <TTGlyph name="backslash" xMin="78" yMin="-220" xMax="620" yMax="1533">
      <contour>
        <pt x="238" y="1533" on="1"/>
        <pt x="620" y="-179" on="1"/>
        <pt x="461" y="-220" on="1"/>
        <pt x="78" y="1492" on="1"/>
        <pt x="238" y="1533" on="1"/>
      </contour>
    </TTGlyph>
    <TTGlyph name="bar" xMin="173" yMin="-131" xMax="361" yMax="1473">
      <contour>
        <pt x="173" y="-131" on="1"/>
        <pt x="173" y="1473" on="1"/>
        <pt x="361" y="1473" on="1"/>
        <pt x="361" y="-131" on="1"/>
      </contour>
    </TTGlyph>
    <TTGlyph name="blacksun" xMin="5" yMin="-10" xMax="1351" yMax="1323">
      <contour>
        <pt x="988" y="529" on="1"/>
        <pt x="1156" y="189" on="1"/>
        <pt x="808" y="350" on="1"/>
        <pt x="679" y="-10" on="1"/>
        <pt x="551" y="348" on="1"/>
        <pt x="205" y="182" on="1"/>
        <pt x="368" y="528" on="1"/>
        <pt x="5" y="655" on="1"/>
        <pt x="366" y="783" on="1"/>
        <pt x="200" y="1123" on="1"/>
        <pt x="549" y="961" on="1"/>
        <pt x="677" y="1323" on="1"/>
        <pt x="806" y="963" on="1"/>
        <pt x="1150" y="1130" on="1"/>
        <pt x="988" y="783" on="1"/>
        <pt x="1351" y="657" on="1"/>
      </contour>
      <contour>
        <pt x="384" y="625" on="1"/>
        <pt x="391" y="565" on="0"/>
        <pt x="449" y="463" on="0"/>
        <pt x="539" y="390" on="0"/>
        <pt x="653" y="354" on="0"/>
        <pt x="716" y="361" on="1"/>
        <pt x="780" y="367" on="0"/>
        <pt x="886" y="427" on="0"/>
        <pt x="958" y="517" on="0"/>
        <pt x="991" y="630" on="0"/>
        <pt x="984" y="690" on="1"/>
        <pt x="978" y="754" on="0"/>
        <pt x="918" y="858" on="0"/>
        <pt x="827" y="928" on="0"/>
        <pt x="713" y="962" on="0"/>
        <pt x="652" y="955" on="1"/>
        <pt x="587" y="948" on="0"/>
        <pt x="483" y="889" on="0"/>
        <pt x="411" y="799" on="0"/>
        <pt x="378" y="686" on="0"/>
      </contour>
    </TTGlyph>
    <TTGlyph name="braceleft" xMin="74" yMin="-206" xMax="526" yMax="1412">
      <contour>
        <pt x="74" y="657" on="1"/>
        <pt x="199" y="752" on="1"/>
        <pt x="199" y="891" on="0"/>
        <pt x="213" y="1096" on="0"/>
        <pt x="244" y="1242" on="0"/>
        <pt x="294" y="1336" on="0"/>
        <pt x="367" y="1390" on="0"/>
        <pt x="464" y="1411" on="0"/>
        <pt x="526" y="1412" on="1"/>
        <pt x="526" y="1322" on="1"/>
        <pt x="489" y="1322" on="0"/>
        <pt x="438" y="1304" on="0"/>
        <pt x="405" y="1255" on="0"/>
        <pt x="387" y="1169" on="0"/>
        <pt x="378" y="1033" on="0"/>
        <pt x="377" y="839" on="0"/>
        <pt x="377" y="708" on="1"/>
        <pt x="211" y="605" on="1"/>
        <pt x="377" y="497" on="1"/>
        <pt x="377" y="366" on="0"/>
        <pt x="378" y="173" on="0"/>
        <pt x="387" y="37" on="0"/>
        <pt x="405" y="-49" on="0"/>
        <pt x="438" y="-98" on="0"/>
        <pt x="489" y="-116" on="0"/>
        <pt x="526" y="-116" on="1"/>
        <pt x="526" y="-206" on="1"/>
        <pt x="464" y="-205" on="0"/>
        <pt x="367" y="-184" on="0"/>
        <pt x="294" y="-130" on="0"/>
        <pt x="244" y="-36" on="0"/>
        <pt x="213" y="110" on="0"/>
        <pt x="199" y="315" on="0"/>
        <pt x="199" y="454" on="1"/>
        <pt x="74" y="550" on="1"/>
      </contour>
    </TTGlyph>
    <TTGlyph name="braceright" xMin="82" yMin="-206" xMax="535" yMax="1412">
      <contour>
        <pt x="535" y="550" on="1"/>
        <pt x="409" y="454" on="1"/>
        <pt x="409" y="315" on="0"/>
        <pt x="395" y="110" on="0"/>
        <pt x="364" y="-36" on="0"/>
        <pt x="314" y="-130" on="0"/>
        <pt x="241" y="-184" on="0"/>
        <pt x="144" y="-205" on="0"/>
        <pt x="82" y="-206" on="1"/>
        <pt x="82" y="-116" on="1"/>
        <pt x="119" y="-116" on="0"/>
        <pt x="170" y="-98" on="0"/>
        <pt x="203" y="-49" on="0"/>
        <pt x="220" y="37" on="0"/>
        <pt x="229" y="173" on="0"/>
        <pt x="230" y="366" on="0"/>
        <pt x="230" y="497" on="1"/>
        <pt x="397" y="605" on="1"/>
        <pt x="230" y="708" on="1"/>
        <pt x="230" y="839" on="0"/>
        <pt x="229" y="1033" on="0"/>
        <pt x="220" y="1169" on="0"/>
        <pt x="203" y="1255" on="0"/>
        <pt x="170" y="1304" on="0"/>
        <pt x="119" y="1322" on="0"/>
        <pt x="82" y="1322" on="1"/>
        <pt x="82" y="1412" on="1"/>
        <pt x="144" y="1411" on="0"/>
        <pt x="241" y="1390" on="0"/>
        <pt x="314" y="1336" on="0"/>
        <pt x="364" y="1242" on="0"/>
        <pt x="395" y="1096" on="0"/>
        <pt x="409" y="891" on="0"/>
        <pt x="409" y="752" on="1"/>
        <pt x="535" y="657" on="1"/>
      </contour>
    </TTGlyph>
    <TTGlyph name="bracketleft" xMin="172" yMin="-218" xMax="578" yMax="1437">
      <contour>
        <pt x="172" y="-218" on="1"/>
        <pt x="172" y="1437" on="1"/>
        <pt x="578" y="1437" on="1"/>
        <pt x="578" y="1319" on="1"/>
        <pt x="341" y="1319" on="1"/>
        <pt x="347" y="966" on="1"/>
        <pt x="347" y="337" on="1"/>
        <pt x="341" y="-102" on="1"/>
        <pt x="578" y="-102" on="1"/>
        <pt x="578" y="-218" on="1"/>
      </contour>
    </TTGlyph>
    <TTGlyph name="bracketright" xMin="69" yMin="-218" xMax="475" yMax="1437">
      <contour>
        <pt x="69" y="-218" on="1"/>
        <pt x="69" y="-102" on="1"/>
        <pt x="306" y="-102" on="1"/>
        <pt x="300" y="337" on="1"/>
        <pt x="300" y="966" on="1"/>
        <pt x="306" y="1319" on="1"/>
        <pt x="69" y="1319" on="1"/>
        <pt x="69" y="1437" on="1"/>
        <pt x="475" y="1437" on="1"/>
        <pt x="475" y="-218" on="1"/>
      </contour>
    </TTGlyph>
    <TTGlyph name="breve" xMin="85" yMin="1190" xMax="775" yMax="1456">
      <contour>
        <pt x="431" y="1190" on="1"/>
        <pt x="365" y="1190" on="0"/>
        <pt x="255" y="1224" on="0"/>
        <pt x="169" y="1279" on="0"/>
        <pt x="106" y="1349" on="0"/>
        <pt x="85" y="1384" on="1"/>
        <pt x="162" y="1456" on="1"/>
        <pt x="206" y="1399" on="0"/>
        <pt x="338" y="1322" on="0"/>
        <pt x="431" y="1322" on="1"/>
        <pt x="479" y="1322" on="0"/>
        <pt x="560" y="1344" on="0"/>
        <pt x="627" y="1381" on="0"/>
        <pt x="680" y="1430" on="0"/>
        <pt x="700" y="1456" on="1"/>
        <pt x="775" y="1384" on="1"/>
        <pt x="757" y="1352" on="0"/>
        <pt x="699" y="1284" on="0"/>
        <pt x="614" y="1227" on="0"/>
        <pt x="502" y="1190" on="0"/>
      </contour>
    </TTGlyph>
    <TTGlyph name="brokenbar" xMin="177" yMin="-138" xMax="357" yMax="1473">
      <contour>
        <pt x="177" y="-138" on="1"/>
        <pt x="177" y="576" on="1"/>
        <pt x="357" y="576" on="1"/>
        <pt x="357" y="-138" on="1"/>
      </contour>
      <contour>
        <pt x="177" y="815" on="1"/>
        <pt x="177" y="1473" on="1"/>
        <pt x="357" y="1473" on="1"/>
        <pt x="357" y="815" on="1"/>
      </contour>
    </TTGlyph>
    <TTGlyph name="bullet" xMin="116" yMin="264" xMax="811" yMax="949">
      <contour>
        <pt x="811" y="607" on="1"/>
        <pt x="811" y="521" on="0"/>
        <pt x="749" y="393" on="0"/>
        <pt x="649" y="307" on="0"/>
        <pt x="525" y="264" on="0"/>
        <pt x="464" y="264" on="1"/>
        <pt x="384" y="264" on="0"/>
        <pt x="256" y="319" on="0"/>
        <pt x="165" y="413" on="0"/>
        <pt x="116" y="537" on="0"/>
        <pt x="116" y="605" on="1"/>
        <pt x="116" y="677" on="0"/>
        <pt x="168" y="802" on="0"/>
        <pt x="261" y="895" on="0"/>
        <pt x="389" y="949" on="0"/>
        <pt x="464" y="949" on="1"/>
        <pt x="539" y="949" on="0"/>
        <pt x="666" y="894" on="0"/>
        <pt x="759" y="801" on="0"/>
        <pt x="811" y="676" on="0"/>
      </contour>
    </TTGlyph>
    <TTGlyph name="c" xMin="106" yMin="-18" xMax="854" yMax="1043">
      <contour>
        <pt x="106" y="506" on="1"/>
        <pt x="106" y="608" on="0"/>
        <pt x="141" y="769" on="0"/>
        <pt x="202" y="889" on="0"/>
        <pt x="285" y="970" on="0"/>
        <pt x="382" y="1021" on="0"/>
        <pt x="489" y="1043" on="0"/>
        <pt x="543" y="1043" on="1"/>
        <pt x="609" y="1043" on="0"/>
        <pt x="717" y="1026" on="0"/>
        <pt x="756" y="1015" on="1"/>
        <pt x="802" y="1003" on="0"/>
        <pt x="838" y="987" on="1"/>
        <pt x="853" y="852" on="1"/>
        <pt x="814" y="866" on="0"/>
        <pt x="768" y="877" on="1"/>
        <pt x="729" y="886" on="0"/>
        <pt x="627" y="902" on="0"/>
        <pt x="570" y="902" on="1"/>
        <pt x="503" y="902" on="0"/>
        <pt x="400" y="858" on="0"/>
        <pt x="331" y="763" on="0"/>
        <pt x="295" y="613" on="0"/>
        <pt x="295" y="509" on="1"/>
        <pt x="295" y="410" on="0"/>
        <pt x="331" y="260" on="0"/>
        <pt x="400" y="165" on="0"/>
        <pt x="503" y="122" on="0"/>
        <pt x="570" y="122" on="1"/>
        <pt x="627" y="122" on="0"/>
        <pt x="730" y="137" on="0"/>
        <pt x="769" y="146" on="1"/>
        <pt x="815" y="157" on="0"/>
        <pt x="854" y="170" on="1"/>
        <pt x="838" y="37" on="1"/>
        <pt x="802" y="21" on="0"/>
        <pt x="757" y="9" on="1"/>
        <pt x="719" y="-2" on="0"/>
        <pt x="612" y="-18" on="0"/>
        <pt x="548" y="-18" on="1"/>
        <pt x="465" y="-18" on="0"/>
        <pt x="307" y="33" on="0"/>
        <pt x="182" y="156" on="0"/>
        <pt x="106" y="361" on="0"/>
      </contour>
    </TTGlyph>
    <TTGlyph name="caron" xMin="60" yMin="1186" xMax="642" yMax="1681">
      <contour>
        <pt x="60" y="1681" on="1"/>
        <pt x="246" y="1681" on="1"/>
        <pt x="344" y="1309" on="1"/>
        <pt x="358" y="1309" on="1"/>
        <pt x="458" y="1681" on="1"/>
        <pt x="642" y="1681" on="1"/>
        <pt x="443" y="1186" on="1"/>
        <pt x="260" y="1186" on="1"/>
      </contour>
    </TTGlyph>
    <TTGlyph name="ccedilla" xMin="106" yMin="-538" xMax="854" yMax="1043">
      <component glyphName="c" x="0" y="0" flags="0x1204"/>
      <component glyphName="cedilla" x="326" y="0" flags="0x1004"/>
    </TTGlyph>
    <TTGlyph name="cedilla" xMin="101" yMin="-538" xMax="498" yMax="2">
      <contour>
        <pt x="498" y="-340" on="1"/>
        <pt x="498" y="-387" on="0"/>
        <pt x="465" y="-461" on="0"/>
        <pt x="406" y="-512" on="0"/>
        <pt x="328" y="-538" on="0"/>
        <pt x="283" y="-538" on="1"/>
        <pt x="243" y="-538" on="0"/>
        <pt x="180" y="-523" on="0"/>
        <pt x="157" y="-514" on="1"/>
        <pt x="131" y="-503" on="0"/>
        <pt x="111" y="-490" on="1"/>
        <pt x="101" y="-394" on="1"/>
        <pt x="130" y="-406" on="0"/>
        <pt x="161" y="-416" on="1"/>
        <pt x="187" y="-424" on="0"/>
        <pt x="249" y="-437" on="0"/>
        <pt x="278" y="-437" on="1"/>
        <pt x="314" y="-437" on="0"/>
        <pt x="356" y="-416" on="0"/>
        <pt x="379" y="-387" on="0"/>
        <pt x="386" y="-356" on="0"/>
        <pt x="386" y="-345" on="1"/>
        <pt x="386" y="-310" on="0"/>
        <pt x="348" y="-269" on="0"/>
        <pt x="279" y="-247" on="0"/>
        <pt x="182" y="-237" on="0"/>
        <pt x="123" y="-232" on="1"/>
        <pt x="123" y="-227" on="0"/>
        <pt x="127" y="-202" on="0"/>
        <pt x="133" y="-167" on="0"/>
        <pt x="140" y="-126" on="0"/>
        <pt x="143" y="-105" on="1"/>
        <pt x="151" y="-57" on="0"/>
        <pt x="161" y="2" on="1"/>
        <pt x="263" y="2" on="1"/>
        <pt x="254" y="-36" on="0"/>
        <pt x="246" y="-69" on="1"/>
        <pt x="239" y="-97" on="0"/>
        <pt x="228" y="-147" on="0"/>
        <pt x="226" y="-155" on="1"/>
        <pt x="250" y="-155" on="0"/>
        <pt x="309" y="-160" on="0"/>
        <pt x="370" y="-174" on="0"/>
        <pt x="427" y="-200" on="0"/>
        <pt x="471" y="-241" on="0"/>
        <pt x="498" y="-300" on="0"/>
      </contour>
    </TTGlyph>
    <TTGlyph name="cent" xMin="97" yMin="-129" xMax="885" yMax="1161">
      <contour>
        <pt x="562" y="-129" on="1"/>
        <pt x="500" y="-129" on="1"/>
        <pt x="528" y="1161" on="1"/>
        <pt x="588" y="1161" on="1"/>
      </contour>
      <contour>
        <pt x="97" y="504" on="1"/>
        <pt x="97" y="654" on="0"/>
        <pt x="178" y="858" on="0"/>
        <pt x="309" y="982" on="0"/>
        <pt x="472" y="1036" on="0"/>
        <pt x="555" y="1035" on="1"/>
        <pt x="625" y="1035" on="0"/>
        <pt x="749" y="998" on="0"/>
        <pt x="841" y="925" on="0"/>
        <pt x="890" y="816" on="0"/>
        <pt x="885" y="744" on="1"/>
        <pt x="733" y="750" on="1"/>
        <pt x="734" y="827" on="0"/>
        <pt x="641" y="894" on="0"/>
        <pt x="556" y="893" on="1"/>
        <pt x="496" y="892" on="0"/>
        <pt x="397" y="853" on="0"/>
        <pt x="325" y="763" on="0"/>
        <pt x="286" y="615" on="0"/>
        <pt x="286" y="507" on="1"/>
        <pt x="286" y="398" on="0"/>
        <pt x="323" y="246" on="0"/>
        <pt x="395" y="152" on="0"/>
        <pt x="500" y="109" on="0"/>
        <pt x="567" y="109" on="1"/>
        <pt x="626" y="109" on="0"/>
        <pt x="732" y="131" on="0"/>
        <pt x="813" y="157" on="0"/>
        <pt x="860" y="179" on="0"/>
        <pt x="860" y="179" on="1"/>
        <pt x="834" y="42" on="1"/>
        <pt x="822" y="34" on="0"/>
        <pt x="772" y="11" on="0"/>
        <pt x="699" y="-12" on="0"/>
        <pt x="605" y="-28" on="0"/>
        <pt x="551" y="-28" on="1"/>
        <pt x="496" y="-28" on="0"/>
        <pt x="386" y="-5" on="0"/>
        <pt x="286" y="46" on="0"/>
        <pt x="198" y="127" on="0"/>
        <pt x="134" y="246" on="0"/>
        <pt x="97" y="403" on="0"/>
      </contour>
    </TTGlyph>
    <TTGlyph name="circumflex" xMin="62" yMin="1172" xMax="692" yMax="1665">
      <contour>
        <pt x="281" y="1665" on="1"/>
        <pt x="470" y="1665" on="1"/>
        <pt x="692" y="1172" on="1"/>
        <pt x="496" y="1172" on="1"/>
        <pt x="381" y="1539" on="1"/>
        <pt x="369" y="1539" on="1"/>
        <pt x="257" y="1172" on="1"/>
        <pt x="62" y="1172" on="1"/>
      </contour>
    </TTGlyph>
    <TTGlyph name="colon" xMin="147" yMin="94" xMax="353" yMax="805">
      <contour>
        <pt x="353" y="306" on="1"/>
        <pt x="353" y="94" on="1"/>
        <pt x="147" y="94" on="1"/>
        <pt x="147" y="306" on="1"/>
      </contour>
      <contour>
        <pt x="353" y="805" on="1"/>
        <pt x="353" y="591" on="1"/>
        <pt x="148" y="591" on="1"/>
        <pt x="148" y="805" on="1"/>
      </contour>
    </TTGlyph>
    <TTGlyph name="comma" xMin="138" yMin="-213" xMax="375" yMax="216">
      <contour>
        <pt x="138" y="200" on="1"/>
        <pt x="364" y="216" on="1"/>
        <pt x="366" y="192" on="0"/>
        <pt x="369" y="164" on="1"/>
        <pt x="371" y="140" on="0"/>
        <pt x="375" y="78" on="0"/>
        <pt x="375" y="43" on="1"/>
        <pt x="375" y="-4" on="0"/>
        <pt x="355" y="-83" on="0"/>
        <pt x="309" y="-148" on="0"/>
        <pt x="232" y="-197" on="0"/>
        <pt x="174" y="-213" on="1"/>
        <pt x="147" y="-133" on="1"/>
        <pt x="203" y="-127" on="0"/>
        <pt x="258" y="-53" on="0"/>
        <pt x="258" y="0" on="1"/>
        <pt x="138" y="0" on="1"/>
      </contour>
    </TTGlyph>
    <TTGlyph name="copyright" xMin="92" yMin="-17" xMax="1520" yMax="1435">
      <contour>
        <pt x="1402" y="708" on="1"/>
        <pt x="1402" y="786" on="0"/>
        <pt x="1365" y="938" on="0"/>
        <pt x="1295" y="1076" on="0"/>
        <pt x="1192" y="1194" on="0"/>
        <pt x="1060" y="1280" on="0"/>
        <pt x="900" y="1329" on="0"/>
        <pt x="808" y="1329" on="1"/>
        <pt x="680" y="1329" on="0"/>
        <pt x="462" y="1233" on="0"/>
        <pt x="303" y="1065" on="0"/>
        <pt x="212" y="838" on="0"/>
        <pt x="212" y="708" on="1"/>
        <pt x="212" y="576" on="0"/>
        <pt x="300" y="350" on="0"/>
        <pt x="459" y="184" on="0"/>
        <pt x="677" y="89" on="0"/>
        <pt x="808" y="89" on="1"/>
        <pt x="928" y="89" on="0"/>
        <pt x="1144" y="178" on="0"/>
        <pt x="1307" y="340" on="0"/>
        <pt x="1402" y="568" on="0"/>
      </contour>
      <contour>
        <pt x="1520" y="708" on="1"/>
        <pt x="1520" y="597" on="0"/>
        <pt x="1465" y="403" on="0"/>
        <pt x="1366" y="242" on="0"/>
        <pt x="1231" y="116" on="0"/>
        <pt x="1073" y="29" on="0"/>
        <pt x="896" y="-17" on="0"/>
        <pt x="806" y="-17" on="1"/>
        <pt x="706" y="-17" on="0"/>
        <pt x="523" y="33" on="0"/>
        <pt x="364" y="124" on="0"/>
        <pt x="235" y="255" on="0"/>
        <pt x="142" y="416" on="0"/>
        <pt x="92" y="604" on="0"/>
        <pt x="92" y="708" on="1"/>
        <pt x="92" y="811" on="0"/>
        <pt x="143" y="998" on="0"/>
        <pt x="237" y="1160" on="0"/>
        <pt x="367" y="1291" on="0"/>
        <pt x="526" y="1384" on="0"/>
        <pt x="708" y="1435" on="0"/>
        <pt x="806" y="1435" on="1"/>
        <pt x="913" y="1435" on="0"/>
        <pt x="1102" y="1379" on="0"/>
        <pt x="1261" y="1280" on="0"/>
        <pt x="1386" y="1143" on="0"/>
        <pt x="1474" y="981" on="0"/>
        <pt x="1520" y="801" on="0"/>
      </contour>
      <contour>
        <pt x="1047" y="313" on="1"/>
        <pt x="1043" y="311" on="0"/>
        <pt x="1003" y="290" on="0"/>
        <pt x="941" y="267" on="0"/>
        <pt x="860" y="248" on="0"/>
        <pt x="816" y="248" on="1"/>
        <pt x="708" y="248" on="0"/>
        <pt x="557" y="326" on="0"/>
        <pt x="463" y="455" on="0"/>
        <pt x="421" y="621" on="0"/>
        <pt x="421" y="708" on="1"/>
        <pt x="421" y="807" on="0"/>
        <pt x="471" y="976" on="0"/>
        <pt x="570" y="1098" on="0"/>
        <pt x="718" y="1167" on="0"/>
        <pt x="816" y="1167" on="1"/>
        <pt x="859" y="1167" on="0"/>
        <pt x="939" y="1151" on="0"/>
        <pt x="1003" y="1130" on="0"/>
        <pt x="1044" y="1112" on="0"/>
        <pt x="1047" y="1110" on="1"/>
        <pt x="1053" y="1013" on="1"/>
        <pt x="1022" y="1025" on="0"/>
        <pt x="986" y="1036" on="1"/>
        <pt x="954" y="1045" on="0"/>
        <pt x="871" y="1060" on="0"/>
        <pt x="823" y="1060" on="1"/>
        <pt x="745" y="1060" on="0"/>
        <pt x="638" y="1004" on="0"/>
        <pt x="574" y="908" on="0"/>
        <pt x="546" y="780" on="0"/>
        <pt x="546" y="708" on="1"/>
        <pt x="546" y="631" on="0"/>
        <pt x="573" y="502" on="0"/>
        <pt x="638" y="408" on="0"/>
        <pt x="744" y="355" on="0"/>
        <pt x="823" y="355" on="1"/>
        <pt x="871" y="355" on="0"/>
        <pt x="953" y="373" on="0"/>
        <pt x="1015" y="395" on="0"/>
        <pt x="1051" y="415" on="0"/>
        <pt x="1053" y="417" on="1"/>
      </contour>
    </TTGlyph>
    <TTGlyph name="currency" xMin="145" yMin="490" xMax="1040" yMax="1409">
      <contour>
        <pt x="591" y="1354" on="1"/>
        <pt x="672" y="1354" on="0"/>
        <pt x="796" y="1315" on="0"/>
        <pt x="844" y="1281" on="1"/>
        <pt x="970" y="1409" on="1"/>
        <pt x="1040" y="1337" on="1"/>
        <pt x="916" y="1213" on="1"/>
        <pt x="962" y="1157" on="0"/>
        <pt x="1005" y="1019" on="0"/>
        <pt x="1005" y="945" on="1"/>
        <pt x="1005" y="872" on="0"/>
        <pt x="964" y="737" on="0"/>
        <pt x="919" y="682" on="1"/>
        <pt x="1040" y="560" on="1"/>
        <pt x="973" y="490" on="1"/>
        <pt x="850" y="613" on="1"/>
        <pt x="802" y="577" on="0"/>
        <pt x="674" y="536" on="0"/>
        <pt x="591" y="536" on="1"/>
        <pt x="508" y="536" on="0"/>
        <pt x="380" y="577" on="0"/>
        <pt x="331" y="612" on="1"/>
        <pt x="211" y="490" on="1"/>
        <pt x="145" y="560" on="1"/>
        <pt x="262" y="679" on="1"/>
        <pt x="217" y="735" on="0"/>
        <pt x="175" y="872" on="0"/>
        <pt x="175" y="945" on="1"/>
        <pt x="175" y="1020" on="0"/>
        <pt x="218" y="1159" on="0"/>
        <pt x="265" y="1215" on="1"/>
        <pt x="145" y="1337" on="1"/>
        <pt x="215" y="1409" on="1"/>
        <pt x="338" y="1283" on="1"/>
        <pt x="386" y="1316" on="0"/>
        <pt x="510" y="1354" on="0"/>
      </contour>
      <contour>
        <pt x="591" y="677" on="1"/>
        <pt x="661" y="677" on="0"/>
        <pt x="759" y="722" on="0"/>
        <pt x="821" y="797" on="0"/>
        <pt x="849" y="893" on="0"/>
        <pt x="849" y="945" on="1"/>
        <pt x="849" y="996" on="0"/>
        <pt x="821" y="1092" on="0"/>
        <pt x="760" y="1166" on="0"/>
        <pt x="661" y="1211" on="0"/>
        <pt x="591" y="1211" on="1"/>
        <pt x="520" y="1211" on="0"/>
        <pt x="421" y="1166" on="0"/>
        <pt x="360" y="1092" on="0"/>
        <pt x="332" y="996" on="0"/>
        <pt x="332" y="945" on="1"/>
        <pt x="332" y="893" on="0"/>
        <pt x="360" y="797" on="0"/>
        <pt x="422" y="722" on="0"/>
        <pt x="520" y="677" on="0"/>
      </contour>
    </TTGlyph>
    <TTGlyph name="cycle" xMin="136" yMin="-82" xMax="1416" yMax="1053">
      <contour>
        <pt x="1021" y="143" on="1"/>
        <pt x="674" y="-82" on="1"/>
        <pt x="674" y="81" on="1"/>
        <pt x="136" y="81" on="1"/>
        <pt x="136" y="888" on="1"/>
        <pt x="467" y="889" on="1"/>
        <pt x="467" y="762" on="1"/>
        <pt x="304" y="763" on="1"/>
        <pt x="304" y="210" on="1"/>
        <pt x="674" y="210" on="1"/>
        <pt x="674" y="363" on="1"/>
      </contour>
      <contour>
        <pt x="869" y="1053" on="1"/>
        <pt x="868" y="889" on="1"/>
        <pt x="1416" y="889" on="1"/>
        <pt x="1416" y="81" on="1"/>
        <pt x="1083" y="81" on="1"/>
        <pt x="1083" y="211" on="1"/>
        <pt x="1246" y="210" on="1"/>
        <pt x="1245" y="760" on="1"/>
        <pt x="869" y="762" on="1"/>
        <pt x="869" y="607" on="1"/>
        <pt x="525" y="840" on="1"/>
      </contour>
    </TTGlyph>
    <TTGlyph name="d" xMin="108" yMin="-18" xMax="981" yMax="1437">
      <contour>
        <pt x="514" y="-18" on="1"/>
        <pt x="440" y="-18" on="0"/>
        <pt x="294" y="36" on="0"/>
        <pt x="179" y="160" on="0"/>
        <pt x="108" y="361" on="0"/>
        <pt x="108" y="507" on="1"/>
        <pt x="108" y="648" on="0"/>
        <pt x="170" y="852" on="0"/>
        <pt x="277" y="982" on="0"/>
        <pt x="420" y="1043" on="0"/>
        <pt x="501" y="1043" on="1"/>
        <pt x="565" y="1043" on="0"/>
        <pt x="673" y="1018" on="0"/>
        <pt x="713" y="1004" on="1"/>
        <pt x="760" y="987" on="0"/>
        <pt x="798" y="966" on="1"/>
        <pt x="798" y="1418" on="1"/>
        <pt x="981" y="1437" on="1"/>
        <pt x="981" y="0" on="1"/>
        <pt x="838" y="-8" on="1"/>
        <pt x="806" y="102" on="1"/>
        <pt x="776" y="68" on="0"/>
        <pt x="734" y="42" on="1"/>
        <pt x="698" y="19" on="0"/>
        <pt x="589" y="-18" on="0"/>
      </contour>
      <contour>
        <pt x="543" y="122" on="1"/>
        <pt x="599" y="122" on="0"/>
        <pt x="692" y="152" on="0"/>
        <pt x="726" y="170" on="1"/>
        <pt x="766" y="191" on="0"/>
        <pt x="798" y="219" on="1"/>
        <pt x="798" y="833" on="1"/>
        <pt x="761" y="852" on="0"/>
        <pt x="719" y="867" on="1"/>
        <pt x="682" y="880" on="0"/>
        <pt x="586" y="901" on="0"/>
        <pt x="530" y="901" on="1"/>
        <pt x="410" y="901" on="0"/>
        <pt x="292" y="693" on="0"/>
        <pt x="292" y="503" on="1"/>
        <pt x="292" y="399" on="0"/>
        <pt x="332" y="254" on="0"/>
        <pt x="401" y="163" on="0"/>
        <pt x="492" y="122" on="0"/>
      </contour>
    </TTGlyph>
    <TTGlyph name="dagger" xMin="63" yMin="0" xMax="790" yMax="1334">
      <contour>
        <pt x="790" y="1008" on="1"/>
        <pt x="790" y="883" on="1"/>
        <pt x="507" y="883" on="1"/>
        <pt x="507" y="0" on="1"/>
        <pt x="346" y="0" on="1"/>
        <pt x="346" y="883" on="1"/>
        <pt x="63" y="883" on="1"/>
        <pt x="63" y="1008" on="1"/>
        <pt x="346" y="1008" on="1"/>
        <pt x="346" y="1334" on="1"/>
        <pt x="507" y="1334" on="1"/>
        <pt x="507" y="1008" on="1"/>
      </contour>
    </TTGlyph>
    <TTGlyph name="daggerdbl" xMin="117" yMin="129" xMax="714" yMax="1252">
      <contour>
        <pt x="117" y="410" on="1"/>
        <pt x="117" y="522" on="1"/>
        <pt x="332" y="522" on="1"/>
        <pt x="332" y="867" on="1"/>
        <pt x="117" y="867" on="1"/>
        <pt x="117" y="979" on="1"/>
        <pt x="332" y="979" on="1"/>
        <pt x="332" y="1252" on="1"/>
        <pt x="497" y="1252" on="1"/>
        <pt x="497" y="979" on="1"/>
        <pt x="714" y="979" on="1"/>
        <pt x="714" y="867" on="1"/>
        <pt x="497" y="867" on="1"/>
        <pt x="497" y="522" on="1"/>
        <pt x="714" y="522" on="1"/>
        <pt x="714" y="410" on="1"/>
        <pt x="497" y="410" on="1"/>
        <pt x="497" y="129" on="1"/>
        <pt x="332" y="129" on="1"/>
        <pt x="332" y="410" on="1"/>
      </contour>
    </TTGlyph>
    <TTGlyph name="degree" xMin="106" yMin="755" xMax="570" yMax="1213">
      <contour>
        <pt x="456" y="985" on="1"/>
        <pt x="456" y="1036" on="0"/>
        <pt x="393" y="1103" on="0"/>
        <pt x="337" y="1103" on="1"/>
        <pt x="283" y="1103" on="0"/>
        <pt x="218" y="1037" on="0"/>
        <pt x="218" y="985" on="1"/>
        <pt x="218" y="934" on="0"/>
        <pt x="280" y="869" on="0"/>
        <pt x="337" y="869" on="1"/>
        <pt x="391" y="869" on="0"/>
        <pt x="456" y="933" on="0"/>
      </contour>
      <contour>
        <pt x="570" y="985" on="1"/>
        <pt x="570" y="936" on="0"/>
        <pt x="535" y="852" on="0"/>
        <pt x="474" y="790" on="0"/>
        <pt x="388" y="755" on="0"/>
        <pt x="337" y="755" on="1"/>
        <pt x="287" y="755" on="0"/>
        <pt x="202" y="790" on="0"/>
        <pt x="140" y="851" on="0"/>
        <pt x="106" y="935" on="0"/>
        <pt x="106" y="985" on="1"/>
        <pt x="106" y="1034" on="0"/>
        <pt x="140" y="1118" on="0"/>
        <pt x="202" y="1179" on="0"/>
        <pt x="287" y="1213" on="0"/>
        <pt x="337" y="1213" on="1"/>
        <pt x="388" y="1213" on="0"/>
        <pt x="474" y="1178" on="0"/>
        <pt x="535" y="1117" on="0"/>
        <pt x="570" y="1034" on="0"/>
      </contour>
    </TTGlyph>
    <TTGlyph name="dieresis" xMin="149" yMin="1164" xMax="698" yMax="1331">
      <contour>
        <pt x="322" y="1331" on="1"/>
        <pt x="322" y="1164" on="1"/>
        <pt x="149" y="1164" on="1"/>
        <pt x="149" y="1331" on="1"/>
      </contour>
      <contour>
        <pt x="698" y="1331" on="1"/>
        <pt x="698" y="1164" on="1"/>
        <pt x="524" y="1164" on="1"/>
        <pt x="524" y="1331" on="1"/>
      </contour>
    </TTGlyph>
    <TTGlyph name="divide" xMin="127" yMin="243" xMax="896" yMax="908">
      <contour>
        <pt x="427" y="731" on="1"/>
        <pt x="427" y="908" on="1"/>
        <pt x="602" y="908" on="1"/>
        <pt x="602" y="731" on="1"/>
      </contour>
      <contour>
        <pt x="127" y="521" on="1"/>
        <pt x="127" y="641" on="1"/>
        <pt x="896" y="641" on="1"/>
        <pt x="896" y="521" on="1"/>
      </contour>
      <contour>
        <pt x="427" y="243" on="1"/>
        <pt x="427" y="421" on="1"/>
        <pt x="602" y="421" on="1"/>
        <pt x="602" y="243" on="1"/>
      </contour>
    </TTGlyph>
    <TTGlyph name="dollar" xMin="93" yMin="-201" xMax="930" yMax="1593">
      <contour>
        <pt x="473" y="32" on="1"/>
        <pt x="466" y="32" on="0"/>
        <pt x="442" y="33" on="0"/>
        <pt x="436" y="33" on="1"/>
        <pt x="367" y="36" on="0"/>
        <pt x="255" y="59" on="0"/>
        <pt x="216" y="72" on="1"/>
        <pt x="170" y="87" on="0"/>
        <pt x="135" y="104" on="1"/>
        <pt x="110" y="254" on="1"/>
        <pt x="154" y="234" on="0"/>
        <pt x="207" y="217" on="1"/>
        <pt x="252" y="203" on="0"/>
        <pt x="370" y="178" on="0"/>
        <pt x="438" y="175" on="1"/>
        <pt x="443" y="175" on="0"/>
        <pt x="464" y="174" on="0"/>
        <pt x="470" y="174" on="1"/>
        <pt x="458" y="651" on="1"/>
        <pt x="445" y="655" on="0"/>
        <pt x="421" y="663" on="0"/>
        <pt x="409" y="667" on="1"/>
        <pt x="329" y="694" on="0"/>
        <pt x="211" y="756" on="0"/>
        <pt x="132" y="838" on="0"/>
        <pt x="93" y="948" on="0"/>
        <pt x="93" y="1022" on="1"/>
        <pt x="93" y="1096" on="0"/>
        <pt x="144" y="1212" on="0"/>
        <pt x="236" y="1296" on="0"/>
        <pt x="365" y="1345" on="0"/>
        <pt x="442" y="1353" on="1"/>
        <pt x="437" y="1593" on="1"/>
        <pt x="544" y="1593" on="1"/>
        <pt x="549" y="1356" on="1"/>
        <pt x="613" y="1354" on="0"/>
        <pt x="723" y="1337" on="0"/>
        <pt x="764" y="1328" on="1"/>
        <pt x="812" y="1317" on="0"/>
        <pt x="851" y="1305" on="1"/>
        <pt x="871" y="1154" on="1"/>
        <pt x="828" y="1169" on="0"/>
        <pt x="777" y="1181" on="1"/>
        <pt x="733" y="1192" on="0"/>
        <pt x="618" y="1210" on="0"/>
        <pt x="552" y="1213" on="1"/>
        <pt x="563" y="787" on="1"/>
        <pt x="653" y="758" on="0"/>
        <pt x="791" y="702" on="0"/>
        <pt x="883" y="619" on="0"/>
        <pt x="930" y="495" on="0"/>
        <pt x="930" y="398" on="1"/>
        <pt x="930" y="323" on="0"/>
        <pt x="891" y="199" on="0"/>
        <pt x="807" y="105" on="0"/>
        <pt x="674" y="45" on="0"/>
        <pt x="580" y="35" on="1"/>
        <pt x="586" y="-201" on="1"/>
        <pt x="478" y="-201" on="1"/>
      </contour>
      <contour>
        <pt x="754" y="381" on="1"/>
        <pt x="754" y="429" on="0"/>
        <pt x="736" y="499" on="0"/>
        <pt x="693" y="553" on="0"/>
        <pt x="620" y="594" on="0"/>
        <pt x="566" y="613" on="1"/>
        <pt x="577" y="184" on="1"/>
        <pt x="618" y="191" on="0"/>
        <pt x="684" y="220" on="0"/>
        <pt x="730" y="268" on="0"/>
        <pt x="754" y="335" on="0"/>
      </contour>
      <contour>
        <pt x="257" y="1016" on="1"/>
        <pt x="257" y="979" on="0"/>
        <pt x="277" y="924" on="0"/>
        <pt x="323" y="879" on="0"/>
        <pt x="398" y="841" on="0"/>
        <pt x="454" y="822" on="1"/>
        <pt x="446" y="1206" on="1"/>
        <pt x="405" y="1200" on="0"/>
        <pt x="336" y="1171" on="0"/>
        <pt x="285" y="1125" on="0"/>
        <pt x="257" y="1059" on="0"/>
      </contour>
    </TTGlyph>
    <TTGlyph name="dotaccent" xMin="125" yMin="1179" xMax="303" yMax="1351">
      <contour>
        <pt x="293" y="1304" on="1"/>
        <pt x="302" y="1287" on="0"/>
        <pt x="304" y="1251" on="0"/>
        <pt x="294" y="1218" on="0"/>
        <pt x="272" y="1190" on="0"/>
        <pt x="256" y="1183" on="1"/>
        <pt x="222" y="1167" on="0"/>
        <pt x="152" y="1191" on="0"/>
        <pt x="135" y="1226" on="1"/>
        <pt x="126" y="1242" on="0"/>
        <pt x="124" y="1279" on="0"/>
        <pt x="135" y="1312" on="0"/>
        <pt x="157" y="1339" on="0"/>
        <pt x="174" y="1347" on="1"/>
        <pt x="206" y="1363" on="0"/>
        <pt x="276" y="1339" on="0"/>
      </contour>
    </TTGlyph>
    <TTGlyph name="dotlessi" xMin="158" yMin="0" xMax="334" yMax="1021">
      <contour>
        <pt x="158" y="0" on="1"/>
        <pt x="158" y="1021" on="1"/>
        <pt x="334" y="1021" on="1"/>
        <pt x="334" y="0" on="1"/>
      </contour>
    </TTGlyph>
    <TTGlyph name="e" xMin="105" yMin="-18" xMax="933" yMax="1043">
      <contour>
        <pt x="556" y="906" on="1"/>
        <pt x="509" y="906" on="0"/>
        <pt x="422" y="877" on="0"/>
        <pt x="352" y="809" on="0"/>
        <pt x="305" y="698" on="0"/>
        <pt x="299" y="608" on="1"/>
        <pt x="772" y="608" on="1"/>
        <pt x="772" y="624" on="0"/>
        <pt x="773" y="633" on="1"/>
        <pt x="774" y="641" on="0"/>
        <pt x="774" y="657" on="0"/>
        <pt x="774" y="664" on="1"/>
        <pt x="772" y="728" on="0"/>
        <pt x="738" y="819" on="0"/>
        <pt x="680" y="878" on="0"/>
        <pt x="602" y="906" on="0"/>
      </contour>
      <contour>
        <pt x="872" y="30" on="1"/>
        <pt x="836" y="17" on="0"/>
        <pt x="792" y="6" on="1"/>
        <pt x="754" y="-3" on="0"/>
        <pt x="652" y="-18" on="0"/>
        <pt x="591" y="-18" on="1"/>
        <pt x="349" y="-18" on="0"/>
        <pt x="105" y="242" on="0"/>
        <pt x="105" y="501" on="1"/>
        <pt x="105" y="646" on="0"/>
        <pt x="173" y="847" on="0"/>
        <pt x="293" y="979" on="0"/>
        <pt x="457" y="1043" on="0"/>
        <pt x="552" y="1043" on="1"/>
        <pt x="646" y="1043" on="0"/>
        <pt x="788" y="983" on="0"/>
        <pt x="882" y="884" on="0"/>
        <pt x="931" y="756" on="0"/>
        <pt x="933" y="687" on="1"/>
        <pt x="933" y="666" on="0"/>
        <pt x="930" y="603" on="0"/>
        <pt x="925" y="550" on="0"/>
        <pt x="920" y="506" on="0"/>
        <pt x="917" y="496" on="1"/>
        <pt x="296" y="496" on="1"/>
        <pt x="296" y="460" on="1"/>
        <pt x="296" y="368" on="0"/>
        <pt x="340" y="234" on="0"/>
        <pt x="421" y="155" on="0"/>
        <pt x="535" y="122" on="0"/>
        <pt x="604" y="122" on="1"/>
        <pt x="661" y="122" on="0"/>
        <pt x="764" y="135" on="0"/>
        <pt x="804" y="143" on="1"/>
        <pt x="851" y="152" on="0"/>
        <pt x="891" y="164" on="1"/>
      </contour>
    </TTGlyph>
    <TTGlyph name="eacute" xMin="105" yMin="-18" xMax="933" yMax="1707">
      <component glyphName="e" x="0" y="0" flags="0x1204"/>
      <component glyphName="acute" x="284" y="0" flags="0x1004"/>
    </TTGlyph>
    <TTGlyph name="ecircumflex" xMin="105" yMin="-18" xMax="933" yMax="1665">
      <component glyphName="e" x="0" y="0" flags="0x1204"/>
      <component glyphName="circumflex" x="138" y="0" flags="0x1004"/>
    </TTGlyph>
    <TTGlyph name="edieresis" xMin="105" yMin="-18" xMax="933" yMax="1331">
      <component glyphName="e" x="0" y="0" flags="0x1204"/>
      <component glyphName="dieresis" x="91" y="0" flags="0x1004"/>
    </TTGlyph>
    <TTGlyph name="egrave" xMin="105" yMin="-18" xMax="933" yMax="1735">
      <component glyphName="e" x="0" y="0" flags="0x1204"/>
      <component glyphName="grave" x="359" y="0" flags="0x1004"/>
    </TTGlyph>
    <TTGlyph name="eight" xMin="123" yMin="-24" xMax="1031" yMax="1367">
      <contour>
        <pt x="123" y="345" on="1"/>
        <pt x="123" y="414" on="0"/>
        <pt x="153" y="519" on="0"/>
        <pt x="203" y="597" on="0"/>
        <pt x="265" y="649" on="0"/>
        <pt x="329" y="686" on="0"/>
        <pt x="389" y="705" on="0"/>
        <pt x="412" y="711" on="1"/>
        <pt x="363" y="723" on="0"/>
        <pt x="275" y="774" on="0"/>
        <pt x="209" y="849" on="0"/>
        <pt x="170" y="949" on="0"/>
        <pt x="170" y="1013" on="1"/>
        <pt x="170" y="1087" on="0"/>
        <pt x="218" y="1215" on="0"/>
        <pt x="318" y="1312" on="0"/>
        <pt x="472" y="1367" on="0"/>
        <pt x="577" y="1367" on="1"/>
        <pt x="683" y="1367" on="0"/>
        <pt x="839" y="1311" on="0"/>
        <pt x="939" y="1214" on="0"/>
        <pt x="988" y="1086" on="0"/>
        <pt x="988" y="1013" on="1"/>
        <pt x="988" y="948" on="0"/>
        <pt x="944" y="847" on="0"/>
        <pt x="873" y="774" on="0"/>
        <pt x="781" y="723" on="0"/>
        <pt x="733" y="711" on="1"/>
        <pt x="775" y="702" on="0"/>
        <pt x="879" y="657" on="0"/>
        <pt x="970" y="575" on="0"/>
        <pt x="1031" y="442" on="0"/>
        <pt x="1031" y="345" on="1"/>
        <pt x="1031" y="241" on="0"/>
        <pt x="951" y="100" on="0"/>
        <pt x="822" y="13" on="0"/>
        <pt x="659" y="-24" on="0"/>
        <pt x="577" y="-24" on="1"/>
        <pt x="496" y="-24" on="0"/>
        <pt x="333" y="13" on="0"/>
        <pt x="204" y="100" on="0"/>
        <pt x="123" y="241" on="0"/>
      </contour>
      <contour>
        <pt x="579" y="785" on="1"/>
        <pt x="642" y="802" on="0"/>
        <pt x="691" y="833" on="1"/>
        <pt x="712" y="846" on="0"/>
        <pt x="752" y="883" on="0"/>
        <pt x="784" y="929" on="0"/>
        <pt x="803" y="988" on="0"/>
        <pt x="803" y="1023" on="1"/>
        <pt x="803" y="1081" on="0"/>
        <pt x="768" y="1156" on="0"/>
        <pt x="708" y="1203" on="0"/>
        <pt x="626" y="1222" on="0"/>
        <pt x="579" y="1222" on="1"/>
        <pt x="535" y="1222" on="0"/>
        <pt x="453" y="1203" on="0"/>
        <pt x="391" y="1156" on="0"/>
        <pt x="354" y="1081" on="0"/>
        <pt x="354" y="1023" on="1"/>
        <pt x="354" y="988" on="0"/>
        <pt x="373" y="928" on="0"/>
        <pt x="405" y="882" on="0"/>
        <pt x="445" y="845" on="0"/>
        <pt x="466" y="832" on="1"/>
        <pt x="515" y="801" on="0"/>
      </contour>
      <contour>
        <pt x="314" y="364" on="1"/>
        <pt x="314" y="297" on="0"/>
        <pt x="353" y="206" on="0"/>
        <pt x="422" y="150" on="0"/>
        <pt x="519" y="126" on="0"/>
        <pt x="577" y="126" on="1"/>
        <pt x="634" y="126" on="0"/>
        <pt x="733" y="149" on="0"/>
        <pt x="805" y="205" on="0"/>
        <pt x="846" y="296" on="0"/>
        <pt x="846" y="364" on="1"/>
        <pt x="846" y="407" on="0"/>
        <pt x="823" y="479" on="0"/>
        <pt x="785" y="534" on="0"/>
        <pt x="737" y="579" on="0"/>
        <pt x="712" y="594" on="1"/>
        <pt x="653" y="630" on="0"/>
        <pt x="578" y="646" on="1"/>
        <pt x="504" y="628" on="0"/>
        <pt x="446" y="592" on="1"/>
        <pt x="421" y="577" on="0"/>
        <pt x="374" y="533" on="0"/>
        <pt x="337" y="477" on="0"/>
        <pt x="314" y="406" on="0"/>
      </contour>
    </TTGlyph>
    <TTGlyph name="ellipsis" xMin="134" yMin="-4" xMax="1053" yMax="185">
      <contour>
        <pt x="688" y="185" on="1"/>
        <pt x="688" y="-4" on="1"/>
        <pt x="495" y="-4" on="1"/>
        <pt x="495" y="185" on="1"/>
      </contour>
      <contour>
        <pt x="1053" y="185" on="1"/>
        <pt x="1053" y="-4" on="1"/>
        <pt x="860" y="-4" on="1"/>
        <pt x="860" y="185" on="1"/>
      </contour>
      <contour>
        <pt x="324" y="185" on="1"/>
        <pt x="324" y="-4" on="1"/>
        <pt x="134" y="-4" on="1"/>
        <pt x="134" y="185" on="1"/>
      </contour>
    </TTGlyph>
    <TTGlyph name="emdash" xMin="134" yMin="704" xMax="1100" yMax="844">
      <contour>
        <pt x="134" y="704" on="1"/>
        <pt x="134" y="844" on="1"/>
        <pt x="1100" y="844" on="1"/>
        <pt x="1100" y="704" on="1"/>
      </contour>
    </TTGlyph>
    <TTGlyph name="endash" xMin="135" yMin="758" xMax="909" yMax="903">
      <contour>
        <pt x="135" y="758" on="1"/>
        <pt x="135" y="903" on="1"/>
        <pt x="909" y="903" on="1"/>
        <pt x="909" y="758" on="1"/>
      </contour>
    </TTGlyph>
    <TTGlyph name="equal" xMin="159" yMin="405" xMax="779" yMax="615">
      <contour>
        <pt x="159" y="615" on="1"/>
        <pt x="779" y="615" on="1"/>
        <pt x="779" y="487" on="1"/>
        <pt x="159" y="487" on="1"/>
      </contour>
      <contour>
        <pt x="160" y="534" on="1"/>
        <pt x="779" y="534" on="1"/>
        <pt x="779" y="405" on="1"/>
        <pt x="160" y="405" on="1"/>
      </contour>
    </TTGlyph>
    <TTGlyph name="eth" xMin="79" yMin="-18" xMax="1122" yMax="1372">
      <contour>
        <pt x="580" y="947" on="1"/>
        <pt x="544" y="1057" on="1"/>
        <pt x="739" y="1122" on="1"/>
        <pt x="721" y="1159" on="0"/>
        <pt x="669" y="1236" on="0"/>
        <pt x="612" y="1305" on="0"/>
        <pt x="557" y="1359" on="0"/>
        <pt x="535" y="1372" on="1"/>
        <pt x="699" y="1371" on="1"/>
        <pt x="758" y="1329" on="0"/>
        <pt x="850" y="1228" on="0"/>
        <pt x="885" y="1170" on="1"/>
        <pt x="1086" y="1240" on="1"/>
        <pt x="1122" y="1129" on="1"/>
        <pt x="944" y="1067" on="1"/>
        <pt x="1004" y="946" on="0"/>
        <pt x="1059" y="696" on="0"/>
        <pt x="1059" y="567" on="1"/>
        <pt x="1059" y="438" on="0"/>
        <pt x="997" y="223" on="0"/>
        <pt x="875" y="68" on="0"/>
        <pt x="693" y="-18" on="0"/>
        <pt x="572" y="-18" on="1"/>
        <pt x="443" y="-18" on="0"/>
        <pt x="257" y="57" on="0"/>
        <pt x="137" y="181" on="0"/>
        <pt x="79" y="343" on="0"/>
        <pt x="79" y="429" on="1"/>
        <pt x="79" y="514" on="0"/>
        <pt x="126" y="661" on="0"/>
        <pt x="228" y="769" on="0"/>
        <pt x="390" y="831" on="0"/>
        <pt x="505" y="831" on="1"/>
        <pt x="577" y="831" on="0"/>
        <pt x="701" y="797" on="0"/>
        <pt x="797" y="754" on="0"/>
        <pt x="859" y="712" on="0"/>
        <pt x="868" y="703" on="1"/>
        <pt x="867" y="741" on="0"/>
        <pt x="856" y="824" on="0"/>
        <pt x="836" y="906" on="0"/>
        <pt x="807" y="984" on="0"/>
        <pt x="788" y="1017" on="1"/>
      </contour>
      <contour>
        <pt x="519" y="693" on="1"/>
        <pt x="451" y="693" on="0"/>
        <pt x="352" y="655" on="0"/>
        <pt x="289" y="586" on="0"/>
        <pt x="259" y="487" on="0"/>
        <pt x="259" y="426" on="1"/>
        <pt x="259" y="272" on="0"/>
        <pt x="415" y="125" on="0"/>
        <pt x="564" y="125" on="1"/>
        <pt x="649" y="125" on="0"/>
        <pt x="764" y="188" on="0"/>
        <pt x="835" y="296" on="0"/>
        <pt x="866" y="441" on="0"/>
        <pt x="866" y="523" on="1"/>
        <pt x="866" y="582" on="1"/>
        <pt x="816" y="612" on="0"/>
        <pt x="760" y="637" on="1"/>
        <pt x="712" y="658" on="0"/>
        <pt x="586" y="693" on="0"/>
      </contour>
    </TTGlyph>
    <TTGlyph name="exclam" xMin="158" yMin="-14" xMax="362" yMax="1404">
      <contour>
        <pt x="348" y="-14" on="1"/>
        <pt x="173" y="-14" on="1"/>
        <pt x="173" y="165" on="1"/>
        <pt x="348" y="165" on="1"/>
      </contour>
      <contour>
        <pt x="217" y="355" on="1"/>
        <pt x="212" y="426" on="0"/>
        <pt x="204" y="540" on="1"/>
        <pt x="197" y="637" on="0"/>
        <pt x="177" y="944" on="0"/>
        <pt x="163" y="1162" on="1"/>
        <pt x="163" y="1169" on="0"/>
        <pt x="162" y="1200" on="0"/>
        <pt x="160" y="1257" on="0"/>
        <pt x="159" y="1343" on="0"/>
        <pt x="158" y="1404" on="1"/>
        <pt x="362" y="1404" on="1"/>
        <pt x="361" y="1343" on="0"/>
        <pt x="359" y="1257" on="0"/>
        <pt x="358" y="1200" on="0"/>
        <pt x="357" y="1169" on="0"/>
        <pt x="357" y="1162" on="1"/>
        <pt x="343" y="944" on="0"/>
        <pt x="323" y="637" on="0"/>
        <pt x="316" y="540" on="1"/>
        <pt x="308" y="426" on="0"/>
        <pt x="303" y="355" on="1"/>
      </contour>
    </TTGlyph>
    <TTGlyph name="exclamdown" xMin="159" yMin="0" xMax="363" yMax="1418">
      <component glyphName="exclam" x="1" y="1404" scalex="1.0" scaley="-0.999938964844" flags="0x1004"/>
    </TTGlyph>
    <TTGlyph name="f" xMin="53" yMin="0" xMax="727" yMax="1437">
      <contour>
        <pt x="229" y="0" on="1"/>
        <pt x="229" y="927" on="1"/>
        <pt x="53" y="927" on="1"/>
        <pt x="53" y="1031" on="1"/>
        <pt x="230" y="1031" on="1"/>
        <pt x="230" y="1034" on="1"/>
        <pt x="232" y="1140" on="0"/>
        <pt x="266" y="1293" on="0"/>
        <pt x="335" y="1391" on="0"/>
        <pt x="442" y="1437" on="0"/>
        <pt x="516" y="1437" on="1"/>
        <pt x="561" y="1437" on="0"/>
        <pt x="634" y="1425" on="0"/>
        <pt x="660" y="1417" on="1"/>
        <pt x="690" y="1408" on="0"/>
        <pt x="713" y="1398" on="1"/>
        <pt x="727" y="1278" on="1"/>
        <pt x="703" y="1285" on="0"/>
        <pt x="677" y="1291" on="1"/>
        <pt x="654" y="1296" on="0"/>
        <pt x="598" y="1304" on="0"/>
        <pt x="569" y="1304" on="1"/>
        <pt x="524" y="1304" on="0"/>
        <pt x="464" y="1285" on="0"/>
        <pt x="428" y="1235" on="0"/>
        <pt x="412" y="1145" on="0"/>
        <pt x="412" y="1075" on="1"/>
        <pt x="412" y="1031" on="1"/>
        <pt x="685" y="1031" on="1"/>
        <pt x="685" y="927" on="1"/>
        <pt x="412" y="927" on="1"/>
        <pt x="412" y="0" on="1"/>
      </contour>
    </TTGlyph>
    <TTGlyph name="fi" xMin="52" yMin="0" xMax="947" yMax="1471">
      <contour>
        <pt x="760" y="0" on="1"/>
        <pt x="760" y="917" on="1"/>
        <pt x="411" y="917" on="1"/>
        <pt x="411" y="0" on="1"/>
        <pt x="228" y="0" on="1"/>
        <pt x="228" y="917" on="1"/>
        <pt x="52" y="917" on="1"/>
        <pt x="52" y="1021" on="1"/>
        <pt x="229" y="1021" on="1"/>
        <pt x="229" y="1068" on="1"/>
        <pt x="231" y="1174" on="0"/>
        <pt x="266" y="1327" on="0"/>
        <pt x="335" y="1425" on="0"/>
        <pt x="442" y="1471" on="0"/>
        <pt x="516" y="1471" on="1"/>
        <pt x="559" y="1471" on="0"/>
        <pt x="628" y="1459" on="0"/>
        <pt x="652" y="1451" on="1"/>
        <pt x="680" y="1442" on="0"/>
        <pt x="702" y="1432" on="1"/>
        <pt x="710" y="1312" on="1"/>
        <pt x="689" y="1319" on="0"/>
        <pt x="666" y="1325" on="1"/>
        <pt x="646" y="1330" on="0"/>
        <pt x="595" y="1338" on="0"/>
        <pt x="569" y="1338" on="1"/>
        <pt x="524" y="1338" on="0"/>
        <pt x="463" y="1319" on="0"/>
        <pt x="427" y="1269" on="0"/>
        <pt x="411" y="1179" on="0"/>
        <pt x="411" y="1109" on="1"/>
        <pt x="411" y="1021" on="1"/>
        <pt x="944" y="1021" on="1"/>
        <pt x="944" y="0" on="1"/>
      </contour>
      <contour>
        <pt x="947" y="1369" on="1"/>
        <pt x="947" y="1187" on="1"/>
        <pt x="755" y="1187" on="1"/>
        <pt x="755" y="1369" on="1"/>
      </contour>
    </TTGlyph>
    <TTGlyph name="five" xMin="143" yMin="-24" xMax="920" yMax="1339">
      <contour>
        <pt x="197" y="667" on="1"/>
        <pt x="196" y="667" on="0"/>
        <pt x="180" y="684" on="0"/>
        <pt x="170" y="694" on="1"/>
        <pt x="143" y="721" on="1"/>
        <pt x="163" y="1339" on="1"/>
        <pt x="839" y="1339" on="1"/>
        <pt x="824" y="1209" on="1"/>
        <pt x="319" y="1209" on="1"/>
        <pt x="301" y="809" on="1"/>
        <pt x="332" y="815" on="0"/>
        <pt x="367" y="820" on="1"/>
        <pt x="397" y="825" on="0"/>
        <pt x="474" y="832" on="0"/>
        <pt x="516" y="832" on="1"/>
        <pt x="602" y="832" on="0"/>
        <pt x="750" y="785" on="0"/>
        <pt x="858" y="685" on="0"/>
        <pt x="920" y="530" on="0"/>
        <pt x="920" y="425" on="1"/>
        <pt x="920" y="314" on="0"/>
        <pt x="875" y="145" on="0"/>
        <pt x="767" y="32" on="0"/>
        <pt x="589" y="-24" on="0"/>
        <pt x="457" y="-24" on="1"/>
        <pt x="398" y="-24" on="0"/>
        <pt x="294" y="-8" on="0"/>
        <pt x="254" y="3" on="1"/>
        <pt x="207" y="15" on="0"/>
        <pt x="168" y="31" on="1"/>
        <pt x="149" y="183" on="1"/>
        <pt x="191" y="169" on="0"/>
        <pt x="240" y="157" on="1"/>
        <pt x="282" y="147" on="0"/>
        <pt x="390" y="132" on="0"/>
        <pt x="450" y="132" on="1"/>
        <pt x="535" y="132" on="0"/>
        <pt x="650" y="162" on="0"/>
        <pt x="719" y="229" on="0"/>
        <pt x="748" y="341" on="0"/>
        <pt x="748" y="424" on="1"/>
        <pt x="748" y="481" on="0"/>
        <pt x="715" y="577" on="0"/>
        <pt x="649" y="647" on="0"/>
        <pt x="549" y="689" on="0"/>
        <pt x="482" y="689" on="1"/>
        <pt x="396" y="689" on="0"/>
        <pt x="244" y="675" on="0"/>
      </contour>
    </TTGlyph>
    <TTGlyph name="fl" xMin="53" yMin="0" xMax="1054" yMax="1437">
      <component glyphName="l" x="712" y="0" flags="0x1004"/>
      <component glyphName="f" x="0" y="0" flags="0x1004"/>
    </TTGlyph>
    <TTGlyph name="florin" xMin="93" yMin="0" xMax="845" yMax="1459">
      <contour>
        <pt x="110" y="0" on="1"/>
        <pt x="270" y="886" on="1"/>
        <pt x="93" y="886" on="1"/>
        <pt x="112" y="991" on="1"/>
        <pt x="289" y="991" on="1"/>
        <pt x="313" y="1125" on="0"/>
        <pt x="378" y="1305" on="0"/>
        <pt x="469" y="1413" on="0"/>
        <pt x="588" y="1459" on="0"/>
        <pt x="666" y="1459" on="1"/>
        <pt x="709" y="1459" on="0"/>
        <pt x="775" y="1447" on="0"/>
        <pt x="798" y="1439" on="1"/>
        <pt x="824" y="1430" on="0"/>
        <pt x="845" y="1419" on="1"/>
        <pt x="839" y="1296" on="1"/>
        <pt x="817" y="1303" on="0"/>
        <pt x="791" y="1309" on="1"/>
        <pt x="769" y="1314" on="0"/>
        <pt x="715" y="1322" on="0"/>
        <pt x="686" y="1322" on="1"/>
        <pt x="639" y="1322" on="0"/>
        <pt x="575" y="1303" on="0"/>
        <pt x="529" y="1252" on="0"/>
        <pt x="498" y="1162" on="0"/>
        <pt x="485" y="1092" on="1"/>
        <pt x="468" y="991" on="1"/>
        <pt x="744" y="991" on="1"/>
        <pt x="725" y="886" on="1"/>
        <pt x="449" y="886" on="1"/>
        <pt x="290" y="0" on="1"/>
      </contour>
    </TTGlyph>
    <TTGlyph name="four" xMin="38" yMin="-19" xMax="1004" yMax="1335">
      <contour>
        <pt x="570" y="1335" on="1"/>
        <pt x="836" y="1328" on="1"/>
        <pt x="837" y="397" on="1"/>
        <pt x="1004" y="397" on="1"/>
        <pt x="1004" y="257" on="1"/>
        <pt x="837" y="257" on="1"/>
        <pt x="837" y="-14" on="1"/>
        <pt x="662" y="-19" on="1"/>
        <pt x="662" y="257" on="1"/>
        <pt x="84" y="257" on="1"/>
        <pt x="38" y="379" on="1"/>
      </contour>
      <contour>
        <pt x="662" y="397" on="1"/>
        <pt x="662" y="839" on="1"/>
        <pt x="672" y="1217" on="1"/>
        <pt x="488" y="853" on="1"/>
        <pt x="233" y="393" on="1"/>
        <pt x="424" y="397" on="1"/>
      </contour>
    </TTGlyph>
    <TTGlyph name="foursuperior" xMin="45" yMin="-6" xMax="865" yMax="963">
      <contour>
        <pt x="469" y="963" on="1"/>
        <pt x="705" y="956" on="1"/>
        <pt x="705" y="335" on="1"/>
        <pt x="865" y="335" on="1"/>
        <pt x="865" y="215" on="1"/>
        <pt x="705" y="215" on="1"/>
        <pt x="705" y="0" on="1"/>
        <pt x="548" y="-6" on="1"/>
        <pt x="548" y="215" on="1"/>
        <pt x="88" y="215" on="1"/>
        <pt x="45" y="320" on="1"/>
      </contour>
      <contour>
        <pt x="548" y="335" on="1"/>
        <pt x="548" y="613" on="1"/>
        <pt x="552" y="853" on="1"/>
        <pt x="396" y="601" on="1"/>
        <pt x="222" y="332" on="1"/>
        <pt x="408" y="335" on="1"/>
      </contour>
    </TTGlyph>
    <TTGlyph name="fraction" xMin="7" yMin="13" xMax="827" yMax="1432">
      <contour>
        <pt x="827" y="1381" on="1"/>
        <pt x="146" y="13" on="1"/>
        <pt x="7" y="67" on="1"/>
        <pt x="686" y="1432" on="1"/>
      </contour>
    </TTGlyph>
    <TTGlyph name="g" xMin="109" yMin="-461" xMax="974" yMax="1043">
      <contour>
        <pt x="286" y="-283" on="1"/>
        <pt x="320" y="-295" on="0"/>
        <pt x="360" y="-304" on="1"/>
        <pt x="394" y="-312" on="0"/>
        <pt x="483" y="-325" on="0"/>
        <pt x="534" y="-325" on="1"/>
        <pt x="609" y="-325" on="0"/>
        <pt x="706" y="-294" on="0"/>
        <pt x="764" y="-215" on="0"/>
        <pt x="787" y="-79" on="0"/>
        <pt x="788" y="39" on="1"/>
        <pt x="788" y="72" on="1"/>
        <pt x="756" y="52" on="0"/>
        <pt x="714" y="36" on="1"/>
        <pt x="678" y="22" on="0"/>
        <pt x="574" y="0" on="0"/>
        <pt x="507" y="0" on="1"/>
        <pt x="430" y="0" on="0"/>
        <pt x="287" y="57" on="0"/>
        <pt x="176" y="180" on="0"/>
        <pt x="109" y="375" on="0"/>
        <pt x="109" y="509" on="1"/>
        <pt x="109" y="649" on="0"/>
        <pt x="163" y="851" on="0"/>
        <pt x="266" y="981" on="0"/>
        <pt x="414" y="1043" on="0"/>
        <pt x="508" y="1043" on="1"/>
        <pt x="573" y="1043" on="0"/>
        <pt x="676" y="1017" on="0"/>
        <pt x="754" y="981" on="0"/>
        <pt x="806" y="944" on="0"/>
        <pt x="821" y="932" on="1"/>
        <pt x="854" y="1031" on="1"/>
        <pt x="974" y="1031" on="1"/>
        <pt x="974" y="67" on="1"/>
        <pt x="974" y="-79" on="0"/>
        <pt x="933" y="-280" on="0"/>
        <pt x="835" y="-405" on="0"/>
        <pt x="671" y="-461" on="0"/>
        <pt x="549" y="-461" on="1"/>
        <pt x="489" y="-461" on="0"/>
        <pt x="398" y="-447" on="0"/>
        <pt x="367" y="-439" on="1"/>
        <pt x="331" y="-429" on="0"/>
        <pt x="306" y="-417" on="1"/>
      </contour>
      <contour>
        <pt x="530" y="140" on="1"/>
        <pt x="542" y="140" on="1"/>
        <pt x="600" y="141" on="0"/>
        <pt x="691" y="160" on="0"/>
        <pt x="723" y="171" on="1"/>
        <pt x="760" y="184" on="0"/>
        <pt x="788" y="200" on="1"/>
        <pt x="788" y="822" on="1"/>
        <pt x="755" y="843" on="0"/>
        <pt x="715" y="861" on="1"/>
        <pt x="681" y="876" on="0"/>
        <pt x="590" y="901" on="0"/>
        <pt x="536" y="901" on="1"/>
        <pt x="468" y="901" on="0"/>
        <pt x="376" y="845" on="0"/>
        <pt x="319" y="745" on="0"/>
        <pt x="294" y="605" on="0"/>
        <pt x="294" y="520" on="1"/>
        <pt x="294" y="434" on="0"/>
        <pt x="322" y="292" on="0"/>
        <pt x="380" y="193" on="0"/>
        <pt x="468" y="141" on="0"/>
      </contour>
    </TTGlyph>
    <TTGlyph name="germandbls" xMin="158" yMin="-147" xMax="1223" yMax="1549">
      <contour>
        <pt x="544" y="1402" on="1"/>
        <pt x="482" y="1402" on="0"/>
        <pt x="404" y="1360" on="0"/>
        <pt x="360" y="1284" on="0"/>
        <pt x="345" y="1177" on="0"/>
        <pt x="345" y="1112" on="1"/>
        <pt x="345" y="-4" on="1"/>
        <pt x="158" y="-4" on="1"/>
        <pt x="158" y="1110" on="1"/>
        <pt x="158" y="1331" on="0"/>
        <pt x="350" y="1549" on="0"/>
        <pt x="544" y="1549" on="1"/>
        <pt x="636" y="1549" on="0"/>
        <pt x="765" y="1518" on="0"/>
        <pt x="850" y="1465" on="0"/>
        <pt x="897" y="1392" on="0"/>
        <pt x="915" y="1307" on="0"/>
        <pt x="909" y="1214" on="0"/>
        <pt x="900" y="1168" on="1"/>
        <pt x="900" y="1159" on="0"/>
        <pt x="890" y="1122" on="0"/>
        <pt x="874" y="1074" on="0"/>
        <pt x="853" y="1017" on="0"/>
        <pt x="843" y="989" on="1"/>
        <pt x="818" y="923" on="0"/>
        <pt x="787" y="844" on="1"/>
        <pt x="873" y="838" on="0"/>
        <pt x="1031" y="764" on="0"/>
        <pt x="1151" y="635" on="0"/>
        <pt x="1223" y="453" on="0"/>
        <pt x="1223" y="339" on="1"/>
        <pt x="1223" y="216" on="0"/>
        <pt x="1158" y="33" on="0"/>
        <pt x="1044" y="-89" on="0"/>
        <pt x="888" y="-149" on="0"/>
        <pt x="796" y="-147" on="1"/>
        <pt x="748" y="-146" on="0"/>
        <pt x="670" y="-134" on="0"/>
        <pt x="642" y="-126" on="1"/>
        <pt x="609" y="-117" on="0"/>
        <pt x="584" y="-107" on="1"/>
        <pt x="564" y="34" on="1"/>
        <pt x="589" y="23" on="0"/>
        <pt x="620" y="15" on="1"/>
        <pt x="646" y="8" on="0"/>
        <pt x="719" y="-3" on="0"/>
        <pt x="764" y="-3" on="1"/>
        <pt x="839" y="-3" on="0"/>
        <pt x="941" y="52" on="0"/>
        <pt x="1004" y="148" on="0"/>
        <pt x="1031" y="279" on="0"/>
        <pt x="1031" y="356" on="1"/>
        <pt x="1031" y="467" on="0"/>
        <pt x="969" y="618" on="0"/>
        <pt x="854" y="710" on="0"/>
        <pt x="688" y="751" on="0"/>
        <pt x="584" y="752" on="1"/>
        <pt x="622" y="857" on="0"/>
        <pt x="653" y="942" on="1"/>
        <pt x="666" y="978" on="0"/>
        <pt x="691" y="1049" on="0"/>
        <pt x="711" y="1107" on="0"/>
        <pt x="723" y="1147" on="0"/>
        <pt x="723" y="1153" on="1"/>
        <pt x="736" y="1201" on="0"/>
        <pt x="741" y="1291" on="0"/>
        <pt x="706" y="1360" on="0"/>
        <pt x="621" y="1402" on="0"/>
      </contour>
    </TTGlyph>
    <TTGlyph name="grave" xMin="9" yMin="1184" xMax="302" yMax="1735">
      <contour>
        <pt x="302" y="1184" on="1"/>
        <pt x="229" y="1184" on="1"/>
        <pt x="9" y="1713" on="1"/>
        <pt x="222" y="1735" on="1"/>
      </contour>
    </TTGlyph>
    <TTGlyph name="greater" xMin="132" yMin="138" xMax="909" yMax="987">
      <contour>
        <pt x="909" y="506" on="1"/>
        <pt x="181" y="138" on="1"/>
        <pt x="132" y="301" on="1"/>
        <pt x="702" y="561" on="1"/>
        <pt x="132" y="823" on="1"/>
        <pt x="181" y="987" on="1"/>
        <pt x="909" y="623" on="1"/>
      </contour>
    </TTGlyph>
    <TTGlyph name="greaterequal" xMin="155" yMin="-6" xMax="880" yMax="1008">
      <contour>
        <pt x="155" y="-6" on="1"/>
        <pt x="155" y="121" on="1"/>
        <pt x="880" y="121" on="1"/>
        <pt x="880" y="-6" on="1"/>
      </contour>
      <contour>
        <pt x="158" y="280" on="1"/>
        <pt x="158" y="446" on="1"/>
        <pt x="169" y="451" on="0"/>
        <pt x="245" y="481" on="0"/>
        <pt x="349" y="522" on="0"/>
        <pt x="466" y="568" on="0"/>
        <pt x="569" y="609" on="0"/>
        <pt x="645" y="639" on="0"/>
        <pt x="656" y="643" on="1"/>
        <pt x="634" y="652" on="0"/>
        <pt x="555" y="683" on="0"/>
        <pt x="460" y="721" on="0"/>
        <pt x="355" y="762" on="0"/>
        <pt x="259" y="799" on="0"/>
        <pt x="180" y="831" on="0"/>
        <pt x="158" y="840" on="1"/>
        <pt x="158" y="1008" on="1"/>
        <pt x="165" y="1005" on="0"/>
        <pt x="231" y="976" on="0"/>
        <pt x="329" y="932" on="0"/>
        <pt x="451" y="878" on="0"/>
        <pt x="577" y="822" on="0"/>
        <pt x="699" y="768" on="0"/>
        <pt x="798" y="725" on="0"/>
        <pt x="864" y="695" on="0"/>
        <pt x="872" y="692" on="1"/>
        <pt x="872" y="600" on="1"/>
      </contour>
    </TTGlyph>
    <TTGlyph name="guillemotleft" xMin="58" yMin="76" xMax="1040" yMax="1026">
      <contour>
        <pt x="603" y="189" on="1"/>
        <pt x="529" y="76" on="1"/>
        <pt x="58" y="552" on="1"/>
        <pt x="529" y="1026" on="1"/>
        <pt x="605" y="914" on="1"/>
        <pt x="243" y="552" on="1"/>
      </contour>
      <contour>
        <pt x="964" y="1011" on="1"/>
        <pt x="1039" y="900" on="1"/>
        <pt x="666" y="552" on="1"/>
        <pt x="1040" y="205" on="1"/>
        <pt x="966" y="93" on="1"/>
        <pt x="478" y="552" on="1"/>
      </contour>
    </TTGlyph>
    <TTGlyph name="guillemotright" xMin="110" yMin="76" xMax="1092" yMax="1026">
      <contour>
        <pt x="545" y="914" on="1"/>
        <pt x="620" y="1026" on="1"/>
        <pt x="1092" y="552" on="1"/>
        <pt x="620" y="76" on="1"/>
        <pt x="546" y="189" on="1"/>
        <pt x="907" y="552" on="1"/>
      </contour>
      <contour>
        <pt x="185" y="93" on="1"/>
        <pt x="110" y="205" on="1"/>
        <pt x="483" y="552" on="1"/>
        <pt x="111" y="900" on="1"/>
        <pt x="186" y="1011" on="1"/>
        <pt x="673" y="552" on="1"/>
      </contour>
    </TTGlyph>
    <TTGlyph name="guilsinglleft" xMin="57" yMin="76" xMax="604" yMax="1026">
      <contour>
        <pt x="603" y="189" on="1"/>
        <pt x="529" y="76" on="1"/>
        <pt x="57" y="552" on="1"/>
        <pt x="529" y="1026" on="1"/>
        <pt x="604" y="914" on="1"/>
        <pt x="242" y="552" on="1"/>
      </contour>
    </TTGlyph>
    <TTGlyph name="guilsinglright" xMin="105" yMin="76" xMax="652" yMax="1026">
      <contour>
        <pt x="105" y="914" on="1"/>
        <pt x="181" y="1026" on="1"/>
        <pt x="652" y="552" on="1"/>
        <pt x="181" y="76" on="1"/>
        <pt x="106" y="189" on="1"/>
        <pt x="467" y="552" on="1"/>
      </contour>
    </TTGlyph>
    <TTGlyph name="h" xMin="158" yMin="0" xMax="1011" yMax="1437">
      <contour>
        <pt x="158" y="1419" on="1"/>
        <pt x="343" y="1437" on="1"/>
        <pt x="343" y="925" on="1"/>
        <pt x="384" y="957" on="0"/>
        <pt x="464" y="1002" on="0"/>
        <pt x="548" y="1030" on="0"/>
        <pt x="637" y="1043" on="0"/>
        <pt x="688" y="1043" on="1"/>
        <pt x="775" y="1043" on="0"/>
        <pt x="898" y="992" on="0"/>
        <pt x="976" y="879" on="0"/>
        <pt x="1011" y="702" on="0"/>
        <pt x="1011" y="576" on="1"/>
        <pt x="1011" y="0" on="1"/>
        <pt x="826" y="0" on="1"/>
        <pt x="826" y="562" on="1"/>
        <pt x="826" y="664" on="0"/>
        <pt x="802" y="796" on="0"/>
        <pt x="755" y="872" on="0"/>
        <pt x="686" y="902" on="0"/>
        <pt x="641" y="902" on="1"/>
        <pt x="595" y="902" on="0"/>
        <pt x="503" y="873" on="0"/>
        <pt x="424" y="836" on="0"/>
        <pt x="361" y="801" on="0"/>
        <pt x="343" y="795" on="1"/>
        <pt x="343" y="0" on="1"/>
        <pt x="158" y="0" on="1"/>
      </contour>
    </TTGlyph>
    <TTGlyph name="hungarumlaut" xMin="118" yMin="1183" xMax="660" yMax="1687">
      <contour>
        <pt x="466" y="1687" on="1"/>
        <pt x="660" y="1687" on="1"/>
        <pt x="458" y="1183" on="1"/>
        <pt x="358" y="1183" on="1"/>
      </contour>
      <contour>
        <pt x="174" y="1687" on="1"/>
        <pt x="359" y="1687" on="1"/>
        <pt x="222" y="1183" on="1"/>
        <pt x="118" y="1183" on="1"/>
      </contour>
    </TTGlyph>
    <TTGlyph name="hyphen" xMin="146" yMin="448" xMax="659" yMax="578">
      <contour>
        <pt x="146" y="448" on="1"/>
        <pt x="146" y="578" on="1"/>
        <pt x="659" y="578" on="1"/>
        <pt x="659" y="448" on="1"/>
      </contour>
    </TTGlyph>
    <TTGlyph name="i" xMin="153" yMin="0" xMax="346" yMax="1408">
      <contour>
        <pt x="158" y="0" on="1"/>
        <pt x="158" y="1031" on="1"/>
        <pt x="342" y="1031" on="1"/>
        <pt x="342" y="0" on="1"/>
      </contour>
      <contour>
        <pt x="346" y="1408" on="1"/>
        <pt x="346" y="1226" on="1"/>
        <pt x="153" y="1226" on="1"/>
        <pt x="153" y="1408" on="1"/>
      </contour>
    </TTGlyph>
    <TTGlyph name="iacute" xMin="90" yMin="0" xMax="402" yMax="1707">
      <component glyphName="dotlessi" x="0" y="0" flags="0x1204"/>
      <component glyphName="acute" x="15" y="0" flags="0x1004"/>
    </TTGlyph>
    <TTGlyph name="icircumflex" xMin="-68" yMin="0" xMax="562" yMax="1665">
      <component glyphName="dotlessi" x="0" y="0" flags="0x1204"/>
      <component glyphName="circumflex" x="-130" y="0" flags="0x1004"/>
    </TTGlyph>
    <TTGlyph name="idieresis" xMin="-27" yMin="0" xMax="522" yMax="1331">
      <component glyphName="dotlessi" x="0" y="0" flags="0x1204"/>
      <component glyphName="dieresis" x="-176" y="0" flags="0x1004"/>
    </TTGlyph>
    <TTGlyph name="igrave" xMin="99" yMin="0" xMax="392" yMax="1735">
      <component glyphName="dotlessi" x="0" y="0" flags="0x1204"/>
      <component glyphName="grave" x="90" y="0" flags="0x1004"/>
    </TTGlyph>
    <TTGlyph name="infinity" xMin="129" yMin="213" xMax="1842" yMax="1072">
      <contour>
        <pt x="911" y="643" on="1"/>
        <pt x="896" y="660" on="0"/>
        <pt x="851" y="719" on="0"/>
        <pt x="793" y="787" on="0"/>
        <pt x="725" y="856" on="0"/>
        <pt x="649" y="913" on="0"/>
        <pt x="568" y="949" on="0"/>
        <pt x="526" y="949" on="1"/>
        <pt x="470" y="949" on="0"/>
        <pt x="375" y="912" on="0"/>
        <pt x="305" y="836" on="0"/>
        <pt x="266" y="721" on="0"/>
        <pt x="266" y="644" on="1"/>
        <pt x="266" y="564" on="0"/>
        <pt x="305" y="447" on="0"/>
        <pt x="373" y="370" on="0"/>
        <pt x="467" y="332" on="0"/>
        <pt x="523" y="332" on="1"/>
        <pt x="571" y="332" on="0"/>
        <pt x="656" y="366" on="0"/>
        <pt x="730" y="420" on="0"/>
        <pt x="794" y="488" on="0"/>
        <pt x="848" y="557" on="0"/>
        <pt x="893" y="621" on="0"/>
      </contour>
      <contour>
        <pt x="1703" y="645" on="1"/>
        <pt x="1703" y="722" on="0"/>
        <pt x="1660" y="836" on="0"/>
        <pt x="1588" y="911" on="0"/>
        <pt x="1493" y="948" on="0"/>
        <pt x="1440" y="948" on="1"/>
        <pt x="1396" y="948" on="0"/>
        <pt x="1316" y="914" on="0"/>
        <pt x="1244" y="861" on="0"/>
        <pt x="1181" y="793" on="0"/>
        <pt x="1126" y="725" on="0"/>
        <pt x="1081" y="662" on="0"/>
        <pt x="1064" y="641" on="1"/>
        <pt x="1082" y="619" on="0"/>
        <pt x="1128" y="557" on="0"/>
        <pt x="1184" y="490" on="0"/>
        <pt x="1249" y="424" on="0"/>
        <pt x="1321" y="371" on="0"/>
        <pt x="1399" y="339" on="0"/>
        <pt x="1440" y="339" on="1"/>
        <pt x="1496" y="339" on="0"/>
        <pt x="1592" y="376" on="0"/>
        <pt x="1663" y="452" on="0"/>
        <pt x="1703" y="567" on="0"/>
      </contour>
      <contour>
        <pt x="1842" y="645" on="1"/>
        <pt x="1842" y="546" on="0"/>
        <pt x="1783" y="386" on="0"/>
        <pt x="1679" y="275" on="0"/>
        <pt x="1537" y="215" on="0"/>
        <pt x="1453" y="215" on="1"/>
        <pt x="1370" y="215" on="0"/>
        <pt x="1247" y="263" on="0"/>
        <pt x="1144" y="349" on="0"/>
        <pt x="1047" y="468" on="0"/>
        <pt x="991" y="538" on="1"/>
        <pt x="934" y="466" on="0"/>
        <pt x="831" y="347" on="0"/>
        <pt x="721" y="261" on="0"/>
        <pt x="597" y="213" on="0"/>
        <pt x="520" y="213" on="1"/>
        <pt x="432" y="213" on="0"/>
        <pt x="288" y="273" on="0"/>
        <pt x="185" y="384" on="0"/>
        <pt x="129" y="544" on="0"/>
        <pt x="129" y="644" on="1"/>
        <pt x="129" y="736" on="0"/>
        <pt x="185" y="892" on="0"/>
        <pt x="287" y="1006" on="0"/>
        <pt x="430" y="1070" on="0"/>
        <pt x="516" y="1070" on="1"/>
        <pt x="599" y="1070" on="0"/>
        <pt x="725" y="1020" on="0"/>
        <pt x="831" y="933" on="0"/>
        <pt x="930" y="814" on="0"/>
        <pt x="987" y="745" on="1"/>
        <pt x="1045" y="818" on="0"/>
        <pt x="1143" y="938" on="0"/>
        <pt x="1247" y="1024" on="0"/>
        <pt x="1369" y="1072" on="0"/>
        <pt x="1450" y="1072" on="1"/>
        <pt x="1539" y="1072" on="0"/>
        <pt x="1684" y="1009" on="0"/>
        <pt x="1786" y="895" on="0"/>
        <pt x="1842" y="738" on="0"/>
      </contour>
    </TTGlyph>
    <TTGlyph name="integral" xMin="28" yMin="-352" xMax="842" yMax="1454">
      <contour>
        <pt x="526" y="886" on="1"/>
        <pt x="526" y="111" on="1"/>
        <pt x="526" y="6" on="0"/>
        <pt x="498" y="-173" on="0"/>
        <pt x="421" y="-299" on="0"/>
        <pt x="284" y="-362" on="0"/>
        <pt x="175" y="-352" on="1"/>
        <pt x="145" y="-350" on="0"/>
        <pt x="97" y="-338" on="0"/>
        <pt x="80" y="-332" on="1"/>
        <pt x="60" y="-325" on="0"/>
        <pt x="45" y="-317" on="1"/>
        <pt x="28" y="-195" on="1"/>
        <pt x="51" y="-203" on="0"/>
        <pt x="77" y="-208" on="1"/>
        <pt x="99" y="-213" on="0"/>
        <pt x="156" y="-220" on="0"/>
        <pt x="185" y="-220" on="1"/>
        <pt x="232" y="-220" on="0"/>
        <pt x="294" y="-201" on="0"/>
        <pt x="331" y="-150" on="0"/>
        <pt x="346" y="-61" on="0"/>
        <pt x="346" y="9" on="1"/>
        <pt x="345" y="886" on="1"/>
        <pt x="168" y="886" on="1"/>
        <pt x="168" y="991" on="1"/>
        <pt x="345" y="991" on="1"/>
        <pt x="348" y="1106" on="0"/>
        <pt x="377" y="1286" on="0"/>
        <pt x="454" y="1408" on="0"/>
        <pt x="588" y="1464" on="0"/>
        <pt x="696" y="1454" on="1"/>
        <pt x="725" y="1452" on="0"/>
        <pt x="774" y="1441" on="0"/>
        <pt x="791" y="1435" on="1"/>
        <pt x="811" y="1428" on="0"/>
        <pt x="826" y="1419" on="1"/>
        <pt x="842" y="1296" on="1"/>
        <pt x="819" y="1303" on="0"/>
        <pt x="793" y="1309" on="1"/>
        <pt x="771" y="1314" on="0"/>
        <pt x="715" y="1322" on="0"/>
        <pt x="686" y="1322" on="1"/>
        <pt x="641" y="1322" on="0"/>
        <pt x="579" y="1303" on="0"/>
        <pt x="541" y="1252" on="0"/>
        <pt x="525" y="1162" on="0"/>
        <pt x="525" y="1092" on="1"/>
        <pt x="525" y="991" on="1"/>
        <pt x="799" y="991" on="1"/>
        <pt x="799" y="886" on="1"/>
      </contour>
    </TTGlyph>
    <TTGlyph name="j" xMin="-52" yMin="-326" xMax="347" yMax="1408">
      <contour>
        <pt x="343" y="1031" on="1"/>
        <pt x="343" y="133" on="1"/>
        <pt x="343" y="52" on="0"/>
        <pt x="308" y="-83" on="0"/>
        <pt x="228" y="-196" on="0"/>
        <pt x="98" y="-289" on="0"/>
        <pt x="3" y="-326" on="1"/>
        <pt x="-52" y="-203" on="1"/>
        <pt x="7" y="-170" on="0"/>
        <pt x="88" y="-105" on="0"/>
        <pt x="138" y="-24" on="0"/>
        <pt x="160" y="80" on="0"/>
        <pt x="160" y="152" on="1"/>
        <pt x="160" y="1031" on="1"/>
      </contour>
      <contour>
        <pt x="347" y="1408" on="1"/>
        <pt x="347" y="1226" on="1"/>
        <pt x="155" y="1226" on="1"/>
        <pt x="155" y="1408" on="1"/>
      </contour>
    </TTGlyph>
    <TTGlyph name="k" xMin="158" yMin="0" xMax="1027" yMax="1437">
      <contour>
        <pt x="1027" y="0" on="1"/>
        <pt x="841" y="0" on="1"/>
        <pt x="439" y="457" on="1"/>
        <pt x="343" y="373" on="1"/>
        <pt x="343" y="0" on="1"/>
        <pt x="158" y="0" on="1"/>
        <pt x="158" y="1419" on="1"/>
        <pt x="343" y="1437" on="1"/>
        <pt x="343" y="560" on="1"/>
        <pt x="808" y="1031" on="1"/>
        <pt x="999" y="1031" on="1"/>
        <pt x="999" y="997" on="1"/>
        <pt x="559" y="550" on="1"/>
        <pt x="1027" y="35" on="1"/>
      </contour>
    </TTGlyph>
    <TTGlyph name="l" xMin="158" yMin="0" xMax="342" yMax="1437">
      <contour>
        <pt x="158" y="1419" on="1"/>
        <pt x="342" y="1437" on="1"/>
        <pt x="342" y="0" on="1"/>
        <pt x="158" y="0" on="1"/>
      </contour>
    </TTGlyph>
    <TTGlyph name="less" xMin="79" yMin="138" xMax="857" yMax="987">
      <contour>
        <pt x="79" y="623" on="1"/>
        <pt x="808" y="987" on="1"/>
        <pt x="857" y="823" on="1"/>
        <pt x="285" y="561" on="1"/>
        <pt x="857" y="301" on="1"/>
        <pt x="808" y="138" on="1"/>
        <pt x="79" y="506" on="1"/>
      </contour>
    </TTGlyph>
    <TTGlyph name="lessequal" xMin="127" yMin="-6" xMax="852" yMax="1008">
      <contour>
        <pt x="127" y="-6" on="1"/>
        <pt x="127" y="121" on="1"/>
        <pt x="852" y="121" on="1"/>
        <pt x="852" y="-6" on="1"/>
      </contour>
      <contour>
        <pt x="849" y="280" on="1"/>
        <pt x="841" y="283" on="0"/>
        <pt x="775" y="313" on="0"/>
        <pt x="677" y="357" on="0"/>
        <pt x="555" y="411" on="0"/>
        <pt x="429" y="468" on="0"/>
        <pt x="307" y="523" on="0"/>
        <pt x="209" y="567" on="0"/>
        <pt x="142" y="597" on="0"/>
        <pt x="135" y="600" on="1"/>
        <pt x="135" y="692" on="1"/>
        <pt x="142" y="695" on="0"/>
        <pt x="209" y="725" on="0"/>
        <pt x="307" y="768" on="0"/>
        <pt x="429" y="822" on="0"/>
        <pt x="555" y="878" on="0"/>
        <pt x="677" y="932" on="0"/>
        <pt x="775" y="976" on="0"/>
        <pt x="841" y="1005" on="0"/>
        <pt x="849" y="1008" on="1"/>
        <pt x="849" y="840" on="1"/>
        <pt x="827" y="831" on="0"/>
        <pt x="748" y="800" on="0"/>
        <pt x="653" y="762" on="0"/>
        <pt x="548" y="721" on="0"/>
        <pt x="453" y="683" on="0"/>
        <pt x="374" y="652" on="0"/>
        <pt x="352" y="643" on="1"/>
        <pt x="363" y="639" on="0"/>
        <pt x="439" y="609" on="0"/>
        <pt x="542" y="568" on="0"/>
        <pt x="659" y="522" on="0"/>
        <pt x="763" y="481" on="0"/>
        <pt x="838" y="450" on="0"/>
        <pt x="849" y="446" on="1"/>
      </contour>
    </TTGlyph>
    <TTGlyph name="logicalnot" xMin="104" yMin="119" xMax="1205" yMax="836">
      <contour>
        <pt x="1025" y="119" on="1"/>
        <pt x="1025" y="692" on="1"/>
        <pt x="104" y="692" on="1"/>
        <pt x="104" y="836" on="1"/>
        <pt x="1205" y="836" on="1"/>
        <pt x="1205" y="119" on="1"/>
      </contour>
    </TTGlyph>
    <TTGlyph name="lozenge" xMin="56" yMin="-6" xMax="922" yMax="1119">
      <contour>
        <pt x="235" y="554" on="1"/>
        <pt x="489" y="101" on="1"/>
        <pt x="742" y="554" on="1"/>
        <pt x="489" y="1001" on="1"/>
      </contour>
      <contour>
        <pt x="391" y="1119" on="1"/>
        <pt x="583" y="1119" on="1"/>
        <pt x="922" y="554" on="1"/>
        <pt x="587" y="-6" on="1"/>
        <pt x="387" y="-6" on="1"/>
        <pt x="56" y="554" on="1"/>
      </contour>
    </TTGlyph>
    <TTGlyph name="lslash" xMin="37" yMin="0" xMax="664" yMax="1496">
      <contour>
        <pt x="261" y="713" on="1"/>
        <pt x="37" y="605" on="1"/>
        <pt x="37" y="750" on="1"/>
        <pt x="261" y="858" on="1"/>
        <pt x="261" y="1470" on="1"/>
        <pt x="445" y="1496" on="1"/>
        <pt x="445" y="949" on="1"/>
        <pt x="664" y="1055" on="1"/>
        <pt x="664" y="911" on="1"/>
        <pt x="445" y="805" on="1"/>
        <pt x="445" y="0" on="1"/>
        <pt x="261" y="0" on="1"/>
      </contour>
    </TTGlyph>
    <TTGlyph name="m" xMin="158" yMin="0" xMax="1542" yMax="1043">
      <contour>
        <pt x="1266" y="1043" on="1"/>
        <pt x="1408" y="1043" on="0"/>
        <pt x="1542" y="844" on="0"/>
        <pt x="1542" y="642" on="1"/>
        <pt x="1542" y="0" on="1"/>
        <pt x="1356" y="0" on="1"/>
        <pt x="1356" y="562" on="1"/>
        <pt x="1356" y="654" on="0"/>
        <pt x="1342" y="783" on="0"/>
        <pt x="1309" y="864" on="0"/>
        <pt x="1253" y="901" on="0"/>
        <pt x="1211" y="901" on="1"/>
        <pt x="1176" y="901" on="0"/>
        <pt x="1090" y="881" on="0"/>
        <pt x="1010" y="853" on="0"/>
        <pt x="947" y="820" on="0"/>
        <pt x="935" y="808" on="1"/>
        <pt x="938" y="787" on="0"/>
        <pt x="942" y="754" on="1"/>
        <pt x="945" y="725" on="0"/>
        <pt x="950" y="636" on="0"/>
        <pt x="950" y="573" on="1"/>
        <pt x="950" y="0" on="1"/>
        <pt x="764" y="0" on="1"/>
        <pt x="764" y="597" on="1"/>
        <pt x="764" y="688" on="0"/>
        <pt x="751" y="806" on="0"/>
        <pt x="721" y="875" on="0"/>
        <pt x="670" y="901" on="0"/>
        <pt x="632" y="901" on="1"/>
        <pt x="588" y="901" on="0"/>
        <pt x="504" y="882" on="0"/>
        <pt x="429" y="854" on="0"/>
        <pt x="366" y="821" on="0"/>
        <pt x="343" y="808" on="1"/>
        <pt x="343" y="0" on="1"/>
        <pt x="158" y="0" on="1"/>
        <pt x="158" y="1031" on="1"/>
        <pt x="287" y="1043" on="1"/>
        <pt x="314" y="922" on="1"/>
        <pt x="394" y="981" on="0"/>
        <pt x="569" y="1043" on="0"/>
        <pt x="669" y="1043" on="1"/>
        <pt x="769" y="1043" on="0"/>
        <pt x="884" y="978" on="0"/>
        <pt x="907" y="919" on="1"/>
        <pt x="938" y="945" on="0"/>
        <pt x="1011" y="991" on="0"/>
        <pt x="1099" y="1024" on="0"/>
        <pt x="1203" y="1043" on="0"/>
      </contour>
    </TTGlyph>
    <TTGlyph name="macron" xMin="150" yMin="1185" xMax="741" yMax="1319">
      <contour>
        <pt x="150" y="1185" on="1"/>
        <pt x="150" y="1319" on="1"/>
        <pt x="741" y="1319" on="1"/>
        <pt x="741" y="1185" on="1"/>
      </contour>
    </TTGlyph>
    <TTGlyph name="minus" xMin="159" yMin="455" xMax="825" yMax="591">
      <contour>
        <pt x="825" y="455" on="1"/>
        <pt x="159" y="455" on="1"/>
        <pt x="159" y="591" on="1"/>
        <pt x="825" y="591" on="1"/>
      </contour>
    </TTGlyph>
    <TTGlyph name="mu" xMin="171" yMin="-300" xMax="1020" yMax="1019">
      <contour>
        <pt x="1020" y="3" on="1"/>
        <pt x="887" y="-8" on="1"/>
        <pt x="862" y="132" on="1"/>
        <pt x="827" y="87" on="0"/>
        <pt x="779" y="52" on="1"/>
        <pt x="737" y="22" on="0"/>
        <pt x="615" y="-28" on="0"/>
        <pt x="534" y="-28" on="1"/>
        <pt x="489" y="-28" on="0"/>
        <pt x="419" y="-5" on="0"/>
        <pt x="368" y="35" on="0"/>
        <pt x="336" y="89" on="0"/>
        <pt x="330" y="120" on="1"/>
        <pt x="326" y="-300" on="1"/>
        <pt x="171" y="-300" on="1"/>
        <pt x="171" y="1019" on="1"/>
        <pt x="354" y="1019" on="1"/>
        <pt x="354" y="435" on="1"/>
        <pt x="354" y="348" on="0"/>
        <pt x="374" y="226" on="0"/>
        <pt x="420" y="148" on="0"/>
        <pt x="495" y="113" on="0"/>
        <pt x="551" y="113" on="1"/>
        <pt x="614" y="113" on="0"/>
        <pt x="717" y="149" on="0"/>
        <pt x="755" y="172" on="1"/>
        <pt x="799" y="198" on="0"/>
        <pt x="835" y="231" on="1"/>
        <pt x="835" y="1019" on="1"/>
        <pt x="1020" y="1019" on="1"/>
      </contour>
    </TTGlyph>
    <TTGlyph name="multiply" xMin="134" yMin="226" xMax="731" yMax="823">
      <contour>
        <pt x="529" y="524" on="1"/>
        <pt x="731" y="323" on="1"/>
        <pt x="633" y="226" on="1"/>
        <pt x="432" y="427" on="1"/>
        <pt x="231" y="226" on="1"/>
        <pt x="134" y="323" on="1"/>
        <pt x="334" y="524" on="1"/>
        <pt x="134" y="725" on="1"/>
        <pt x="231" y="823" on="1"/>
        <pt x="432" y="622" on="1"/>
        <pt x="633" y="823" on="1"/>
        <pt x="731" y="725" on="1"/>
      </contour>
    </TTGlyph>
    <TTGlyph name="n" xMin="158" yMin="0" xMax="1007" yMax="1043">
      <contour>
        <pt x="158" y="1031" on="1"/>
        <pt x="287" y="1043" on="1"/>
        <pt x="314" y="922" on="1"/>
        <pt x="338" y="940" on="0"/>
        <pt x="409" y="983" on="0"/>
        <pt x="500" y="1019" on="0"/>
        <pt x="611" y="1043" on="0"/>
        <pt x="674" y="1043" on="1"/>
        <pt x="753" y="1043" on="0"/>
        <pt x="876" y="998" on="0"/>
        <pt x="962" y="899" on="0"/>
        <pt x="1007" y="739" on="0"/>
        <pt x="1007" y="624" on="1"/>
        <pt x="1007" y="0" on="1"/>
        <pt x="822" y="0" on="1"/>
        <pt x="822" y="584" on="1"/>
        <pt x="822" y="666" on="0"/>
        <pt x="804" y="786" on="0"/>
        <pt x="762" y="864" on="0"/>
        <pt x="691" y="901" on="0"/>
        <pt x="638" y="901" on="1"/>
        <pt x="582" y="901" on="0"/>
        <pt x="477" y="871" on="0"/>
        <pt x="435" y="854" on="1"/>
        <pt x="387" y="834" on="0"/>
        <pt x="343" y="808" on="1"/>
        <pt x="343" y="0" on="1"/>
        <pt x="158" y="0" on="1"/>
      </contour>
    </TTGlyph>
    <TTGlyph name="nine" xMin="86" yMin="-18" xMax="1066" yMax="1365">
      <contour>
        <pt x="255" y="142" on="1"/>
        <pt x="342" y="131" on="0"/>
        <pt x="487" y="129" on="0"/>
        <pt x="549" y="137" on="1"/>
        <pt x="636" y="147" on="0"/>
        <pt x="759" y="218" on="0"/>
        <pt x="837" y="339" on="0"/>
        <pt x="874" y="514" on="0"/>
        <pt x="875" y="629" on="1"/>
        <pt x="855" y="611" on="0"/>
        <pt x="789" y="566" on="0"/>
        <pt x="698" y="523" on="0"/>
        <pt x="583" y="496" on="0"/>
        <pt x="514" y="496" on="1"/>
        <pt x="425" y="496" on="0"/>
        <pt x="269" y="551" on="0"/>
        <pt x="153" y="657" on="0"/>
        <pt x="86" y="812" on="0"/>
        <pt x="86" y="911" on="1"/>
        <pt x="86" y="999" on="0"/>
        <pt x="144" y="1162" on="0"/>
        <pt x="265" y="1290" on="0"/>
        <pt x="451" y="1365" on="0"/>
        <pt x="580" y="1365" on="1"/>
        <pt x="698" y="1365" on="0"/>
        <pt x="879" y="1282" on="0"/>
        <pt x="1002" y="1119" on="0"/>
        <pt x="1066" y="886" on="0"/>
        <pt x="1066" y="735" on="1"/>
        <pt x="1066" y="565" on="0"/>
        <pt x="1014" y="299" on="0"/>
        <pt x="896" y="112" on="0"/>
        <pt x="704" y="5" on="0"/>
        <pt x="563" y="-8" on="1"/>
        <pt x="500" y="-18" on="0"/>
        <pt x="360" y="-18" on="0"/>
        <pt x="278" y="-10" on="1"/>
      </contour>
      <contour>
        <pt x="548" y="642" on="1"/>
        <pt x="617" y="642" on="0"/>
        <pt x="735" y="678" on="0"/>
        <pt x="779" y="698" on="1"/>
        <pt x="830" y="722" on="0"/>
        <pt x="873" y="753" on="1"/>
        <pt x="873" y="756" on="0"/>
        <pt x="874" y="774" on="0"/>
        <pt x="874" y="792" on="0"/>
        <pt x="874" y="807" on="0"/>
        <pt x="874" y="810" on="1"/>
        <pt x="874" y="908" on="0"/>
        <pt x="835" y="1059" on="0"/>
        <pt x="759" y="1165" on="0"/>
        <pt x="645" y="1220" on="0"/>
        <pt x="570" y="1220" on="1"/>
        <pt x="421" y="1220" on="0"/>
        <pt x="267" y="1070" on="0"/>
        <pt x="267" y="913" on="1"/>
        <pt x="267" y="850" on="0"/>
        <pt x="299" y="750" on="0"/>
        <pt x="367" y="681" on="0"/>
        <pt x="473" y="642" on="0"/>
      </contour>
    </TTGlyph>
    <TTGlyph name="notequal" xMin="104" yMin="181" xMax="771" yMax="830">
      <contour>
        <pt x="448" y="334" on="1"/>
        <pt x="390" y="181" on="1"/>
        <pt x="268" y="229" on="1"/>
        <pt x="310" y="334" on="1"/>
        <pt x="106" y="336" on="1"/>
        <pt x="106" y="449" on="1"/>
        <pt x="348" y="449" on="1"/>
        <pt x="387" y="548" on="1"/>
        <pt x="104" y="548" on="1"/>
        <pt x="104" y="663" on="1"/>
        <pt x="425" y="663" on="1"/>
        <pt x="488" y="830" on="1"/>
        <pt x="613" y="788" on="1"/>
        <pt x="563" y="663" on="1"/>
        <pt x="769" y="663" on="1"/>
        <pt x="769" y="548" on="1"/>
        <pt x="526" y="548" on="1"/>
        <pt x="486" y="449" on="1"/>
        <pt x="771" y="449" on="1"/>
        <pt x="771" y="334" on="1"/>
      </contour>
    </TTGlyph>
    <TTGlyph name="ntilde" xMin="158" yMin="0" xMax="1007" yMax="1414">
      <component glyphName="n" x="0" y="0" flags="0x1204"/>
      <component glyphName="tilde" x="130" y="0" flags="0x1004"/>
    </TTGlyph>
    <TTGlyph name="numbersign" xMin="88" yMin="102" xMax="1139" yMax="1462">
      <contour>
        <pt x="429" y="430" on="1"/>
        <pt x="395" y="103" on="1"/>
        <pt x="245" y="103" on="1"/>
        <pt x="278" y="430" on="1"/>
        <pt x="88" y="430" on="1"/>
        <pt x="98" y="559" on="1"/>
        <pt x="290" y="559" on="1"/>
        <pt x="334" y="992" on="1"/>
        <pt x="139" y="992" on="1"/>
        <pt x="153" y="1119" on="1"/>
        <pt x="348" y="1119" on="1"/>
        <pt x="382" y="1462" on="1"/>
        <pt x="533" y="1462" on="1"/>
        <pt x="498" y="1119" on="1"/>
        <pt x="809" y="1119" on="1"/>
        <pt x="841" y="1460" on="1"/>
        <pt x="993" y="1460" on="1"/>
        <pt x="960" y="1119" on="1"/>
        <pt x="1139" y="1119" on="1"/>
        <pt x="1124" y="992" on="1"/>
        <pt x="945" y="992" on="1"/>
        <pt x="901" y="559" on="1"/>
        <pt x="1092" y="559" on="1"/>
        <pt x="1082" y="430" on="1"/>
        <pt x="888" y="430" on="1"/>
        <pt x="856" y="102" on="1"/>
        <pt x="703" y="102" on="1"/>
        <pt x="739" y="430" on="1"/>
      </contour>
      <contour>
        <pt x="749" y="559" on="1"/>
        <pt x="792" y="992" on="1"/>
        <pt x="486" y="992" on="1"/>
        <pt x="443" y="559" on="1"/>
      </contour>
    </TTGlyph>
    <TTGlyph name="o" xMin="106" yMin="-18" xMax="1013" yMax="1043">
      <contour>
        <pt x="560" y="1043" on="1"/>
        <pt x="675" y="1043" on="0"/>
        <pt x="846" y="967" on="0"/>
        <pt x="958" y="828" on="0"/>
        <pt x="1013" y="632" on="0"/>
        <pt x="1013" y="510" on="1"/>
        <pt x="1013" y="394" on="0"/>
        <pt x="958" y="198" on="0"/>
        <pt x="846" y="59" on="0"/>
        <pt x="675" y="-18" on="0"/>
        <pt x="560" y="-18" on="1"/>
        <pt x="444" y="-18" on="0"/>
        <pt x="273" y="59" on="0"/>
        <pt x="161" y="198" on="0"/>
        <pt x="106" y="394" on="0"/>
        <pt x="106" y="510" on="1"/>
        <pt x="106" y="632" on="0"/>
        <pt x="161" y="828" on="0"/>
        <pt x="273" y="967" on="0"/>
        <pt x="444" y="1043" on="0"/>
      </contour>
      <contour>
        <pt x="560" y="122" on="1"/>
        <pt x="635" y="122" on="0"/>
        <pt x="737" y="178" on="0"/>
        <pt x="800" y="282" on="0"/>
        <pt x="827" y="427" on="0"/>
        <pt x="827" y="512" on="1"/>
        <pt x="827" y="606" on="0"/>
        <pt x="799" y="750" on="0"/>
        <pt x="736" y="849" on="0"/>
        <pt x="634" y="901" on="0"/>
        <pt x="560" y="901" on="1"/>
        <pt x="485" y="901" on="0"/>
        <pt x="383" y="849" on="0"/>
        <pt x="320" y="750" on="0"/>
        <pt x="293" y="606" on="0"/>
        <pt x="293" y="512" on="1"/>
        <pt x="293" y="427" on="0"/>
        <pt x="320" y="282" on="0"/>
        <pt x="383" y="178" on="0"/>
        <pt x="485" y="122" on="0"/>
      </contour>
    </TTGlyph>
    <TTGlyph name="oacute" xMin="106" yMin="-18" xMax="1013" yMax="1707">
      <component glyphName="o" x="0" y="0" flags="0x1204"/>
      <component glyphName="acute" x="328" y="0" flags="0x1004"/>
    </TTGlyph>
    <TTGlyph name="ocircumflex" xMin="106" yMin="-18" xMax="1013" yMax="1665">
      <component glyphName="o" x="0" y="0" flags="0x1204"/>
      <component glyphName="circumflex" x="182" y="0" flags="0x1004"/>
    </TTGlyph>
    <TTGlyph name="odieresis" xMin="106" yMin="-18" xMax="1013" yMax="1331">
      <component glyphName="o" x="0" y="0" flags="0x1204"/>
      <component glyphName="dieresis" x="136" y="0" flags="0x1004"/>
    </TTGlyph>
    <TTGlyph name="oe" xMin="106" yMin="-18" xMax="1654" yMax="1043">
      <component glyphName="e" x="721" y="0" flags="0x1004"/>
      <component glyphName="o" x="0" y="0" flags="0x1004"/>
    </TTGlyph>
    <TTGlyph name="ogonek" xMin="81" yMin="-468" xMax="540" yMax="75">
      <contour>
        <pt x="526" y="-428" on="1"/>
        <pt x="510" y="-439" on="0"/>
        <pt x="486" y="-448" on="1"/>
        <pt x="466" y="-456" on="0"/>
        <pt x="406" y="-468" on="0"/>
        <pt x="364" y="-468" on="1"/>
        <pt x="290" y="-468" on="0"/>
        <pt x="184" y="-427" on="0"/>
        <pt x="114" y="-358" on="0"/>
        <pt x="81" y="-268" on="0"/>
        <pt x="81" y="-218" on="1"/>
        <pt x="81" y="-152" on="0"/>
        <pt x="133" y="-54" on="0"/>
        <pt x="216" y="17" on="0"/>
        <pt x="320" y="62" on="0"/>
        <pt x="373" y="75" on="1"/>
        <pt x="373" y="12" on="1"/>
        <pt x="289" y="-20" on="0"/>
        <pt x="202" y="-127" on="0"/>
        <pt x="202" y="-193" on="1"/>
        <pt x="202" y="-277" on="0"/>
        <pt x="286" y="-351" on="0"/>
        <pt x="373" y="-351" on="1"/>
        <pt x="410" y="-351" on="0"/>
        <pt x="470" y="-338" on="0"/>
        <pt x="493" y="-330" on="1"/>
        <pt x="519" y="-321" on="0"/>
        <pt x="540" y="-309" on="1"/>
      </contour>
    </TTGlyph>
    <TTGlyph name="ograve" xMin="106" yMin="-18" xMax="1013" yMax="1735">
      <component glyphName="o" x="0" y="0" flags="0x1204"/>
      <component glyphName="grave" x="404" y="0" flags="0x1004"/>
    </TTGlyph>
    <TTGlyph name="one" xMin="39" yMin="0" xMax="471" yMax="1336">
      <contour>
        <pt x="296" y="972" on="1"/>
        <pt x="299" y="1158" on="1"/>
        <pt x="204" y="1106" on="1"/>
        <pt x="97" y="1050" on="1"/>
        <pt x="39" y="1191" on="1"/>
        <pt x="338" y="1336" on="1"/>
        <pt x="471" y="1309" on="1"/>
        <pt x="471" y="0" on="1"/>
        <pt x="295" y="0" on="1"/>
      </contour>
    </TTGlyph>
    <TTGlyph name="onehalf" xMin="48" yMin="0" xMax="1877" yMax="1432">
      <component glyphName="twosuperior" x="1140" y="0" flags="0x1004"/>
      <component glyphName="onesuperior" x="5" y="442" flags="0x1004"/>
      <component glyphName="fraction" x="472" y="0" flags="0x1004"/>
    </TTGlyph>
    <TTGlyph name="onequarter" xMin="47" yMin="-6" xMax="1836" yMax="1432">
      <component glyphName="foursuperior" x="971" y="0" flags="0x1004"/>
      <component glyphName="onesuperior" x="4" y="443" flags="0x1004"/>
      <component glyphName="fraction" x="459" y="0" flags="0x1004"/>
    </TTGlyph>
    <TTGlyph name="onesuperior" xMin="43" yMin="0" xMax="448" yMax="966">
      <contour>
        <pt x="289" y="599" on="1"/>
        <pt x="289" y="798" on="1"/>
        <pt x="203" y="751" on="1"/>
        <pt x="98" y="697" on="1"/>
        <pt x="43" y="829" on="1"/>
        <pt x="326" y="966" on="1"/>
        <pt x="448" y="939" on="1"/>
        <pt x="448" y="0" on="1"/>
        <pt x="289" y="0" on="1"/>
      </contour>
    </TTGlyph>
    <TTGlyph name="ordfeminine" xMin="119" yMin="297" xMax="804" yMax="1302">
      <contour>
        <pt x="198" y="375" on="1"/>
        <pt x="798" y="375" on="1"/>
        <pt x="798" y="297" on="1"/>
        <pt x="198" y="297" on="1"/>
      </contour>
      <contour>
        <pt x="479" y="860" on="1"/>
        <pt x="457" y="860" on="0"/>
        <pt x="405" y="858" on="0"/>
        <pt x="353" y="849" on="0"/>
        <pt x="304" y="832" on="0"/>
        <pt x="267" y="802" on="0"/>
        <pt x="244" y="756" on="0"/>
        <pt x="244" y="724" on="1"/>
        <pt x="244" y="668" on="0"/>
        <pt x="317" y="613" on="0"/>
        <pt x="384" y="613" on="1"/>
        <pt x="430" y="613" on="0"/>
        <pt x="506" y="632" on="0"/>
        <pt x="533" y="645" on="1"/>
        <pt x="565" y="659" on="0"/>
        <pt x="591" y="677" on="1"/>
        <pt x="591" y="856" on="1"/>
        <pt x="574" y="857" on="0"/>
        <pt x="554" y="858" on="1"/>
        <pt x="538" y="859" on="0"/>
        <pt x="499" y="860" on="0"/>
      </contour>
      <contour>
        <pt x="726" y="679" on="1"/>
        <pt x="726" y="652" on="0"/>
        <pt x="733" y="623" on="0"/>
        <pt x="742" y="620" on="1"/>
        <pt x="753" y="615" on="0"/>
        <pt x="789" y="617" on="0"/>
        <pt x="804" y="617" on="1"/>
        <pt x="794" y="527" on="1"/>
        <pt x="784" y="523" on="0"/>
        <pt x="771" y="520" on="1"/>
        <pt x="760" y="517" on="0"/>
        <pt x="730" y="514" on="0"/>
        <pt x="712" y="514" on="1"/>
        <pt x="682" y="514" on="0"/>
        <pt x="640" y="535" on="0"/>
        <pt x="613" y="565" on="0"/>
        <pt x="601" y="604" on="0"/>
        <pt x="601" y="613" on="1"/>
        <pt x="581" y="585" on="0"/>
        <pt x="546" y="563" on="1"/>
        <pt x="515" y="544" on="0"/>
        <pt x="418" y="514" on="0"/>
        <pt x="344" y="514" on="1"/>
        <pt x="294" y="514" on="0"/>
        <pt x="211" y="542" on="0"/>
        <pt x="152" y="598" on="0"/>
        <pt x="119" y="681" on="0"/>
        <pt x="119" y="729" on="1"/>
        <pt x="119" y="796" on="0"/>
        <pt x="177" y="879" on="0"/>
        <pt x="271" y="926" on="0"/>
        <pt x="393" y="945" on="0"/>
        <pt x="457" y="945" on="1"/>
        <pt x="482" y="945" on="0"/>
        <pt x="531" y="941" on="0"/>
        <pt x="550" y="940" on="1"/>
        <pt x="572" y="936" on="0"/>
        <pt x="591" y="934" on="1"/>
        <pt x="591" y="1017" on="1"/>
        <pt x="591" y="1075" on="0"/>
        <pt x="573" y="1147" on="0"/>
        <pt x="532" y="1185" on="0"/>
        <pt x="468" y="1198" on="0"/>
        <pt x="420" y="1198" on="1"/>
        <pt x="375" y="1198" on="0"/>
        <pt x="289" y="1184" on="0"/>
        <pt x="255" y="1176" on="1"/>
        <pt x="214" y="1166" on="0"/>
        <pt x="179" y="1153" on="1"/>
        <pt x="194" y="1255" on="1"/>
        <pt x="222" y="1268" on="0"/>
        <pt x="258" y="1278" on="1"/>
        <pt x="289" y="1287" on="0"/>
        <pt x="376" y="1302" on="0"/>
        <pt x="431" y="1302" on="1"/>
        <pt x="520" y="1302" on="0"/>
        <pt x="635" y="1267" on="0"/>
        <pt x="701" y="1190" on="0"/>
        <pt x="726" y="1066" on="0"/>
        <pt x="726" y="977" on="1"/>
      </contour>
    </TTGlyph>
    <TTGlyph name="ordmasculine" xMin="131" yMin="297" xMax="797" yMax="1295">
      <contour>
        <pt x="190" y="375" on="1"/>
        <pt x="739" y="375" on="1"/>
        <pt x="739" y="297" on="1"/>
        <pt x="190" y="297" on="1"/>
      </contour>
      <contour>
        <pt x="464" y="1295" on="1"/>
        <pt x="548" y="1295" on="0"/>
        <pt x="674" y="1239" on="0"/>
        <pt x="756" y="1137" on="0"/>
        <pt x="797" y="993" on="0"/>
        <pt x="797" y="903" on="1"/>
        <pt x="797" y="818" on="0"/>
        <pt x="756" y="674" on="0"/>
        <pt x="674" y="571" on="0"/>
        <pt x="548" y="515" on="0"/>
        <pt x="464" y="515" on="1"/>
        <pt x="379" y="515" on="0"/>
        <pt x="253" y="571" on="0"/>
        <pt x="171" y="674" on="0"/>
        <pt x="131" y="818" on="0"/>
        <pt x="131" y="903" on="1"/>
        <pt x="131" y="993" on="0"/>
        <pt x="171" y="1137" on="0"/>
        <pt x="253" y="1239" on="0"/>
        <pt x="379" y="1295" on="0"/>
      </contour>
      <contour>
        <pt x="464" y="618" on="1"/>
        <pt x="519" y="618" on="0"/>
        <pt x="594" y="659" on="0"/>
        <pt x="640" y="735" on="0"/>
        <pt x="660" y="842" on="0"/>
        <pt x="660" y="904" on="1"/>
        <pt x="660" y="973" on="0"/>
        <pt x="639" y="1079" on="0"/>
        <pt x="593" y="1152" on="0"/>
        <pt x="518" y="1190" on="0"/>
        <pt x="464" y="1190" on="1"/>
        <pt x="409" y="1190" on="0"/>
        <pt x="334" y="1152" on="0"/>
        <pt x="288" y="1079" on="0"/>
        <pt x="268" y="973" on="0"/>
        <pt x="268" y="904" on="1"/>
        <pt x="268" y="842" on="0"/>
        <pt x="288" y="735" on="0"/>
        <pt x="334" y="659" on="0"/>
        <pt x="409" y="618" on="0"/>
      </contour>
    </TTGlyph>
    <TTGlyph name="oslash" xMin="105" yMin="-197" xMax="1012" yMax="1226">
      <contour>
        <pt x="559" y="1035" on="1"/>
        <pt x="610" y="1035" on="0"/>
        <pt x="701" y="1018" on="0"/>
        <pt x="740" y="1000" on="1"/>
        <pt x="840" y="1226" on="1"/>
        <pt x="922" y="1183" on="1"/>
        <pt x="918" y="1175" on="0"/>
        <pt x="898" y="1133" on="0"/>
        <pt x="870" y="1072" on="0"/>
        <pt x="836" y="998" on="0"/>
        <pt x="819" y="960" on="1"/>
        <pt x="917" y="892" on="0"/>
        <pt x="1012" y="654" on="0"/>
        <pt x="1012" y="504" on="1"/>
        <pt x="1012" y="391" on="0"/>
        <pt x="957" y="196" on="0"/>
        <pt x="845" y="53" on="0"/>
        <pt x="675" y="-28" on="0"/>
        <pt x="559" y="-28" on="1"/>
        <pt x="511" y="-28" on="0"/>
        <pt x="428" y="-13" on="0"/>
        <pt x="391" y="0" on="1"/>
        <pt x="359" y="-75" on="0"/>
        <pt x="313" y="-179" on="0"/>
        <pt x="305" y="-197" on="1"/>
        <pt x="220" y="-157" on="1"/>
        <pt x="310" y="38" on="1"/>
        <pt x="258" y="72" on="0"/>
        <pt x="181" y="169" on="0"/>
        <pt x="130" y="289" on="0"/>
        <pt x="105" y="428" on="0"/>
        <pt x="105" y="504" on="1"/>
        <pt x="105" y="618" on="0"/>
        <pt x="160" y="812" on="0"/>
        <pt x="272" y="955" on="0"/>
        <pt x="443" y="1035" on="0"/>
      </contour>
      <contour>
        <pt x="292" y="506" on="1"/>
        <pt x="292" y="408" on="0"/>
        <pt x="334" y="245" on="0"/>
        <pt x="382" y="192" on="1"/>
        <pt x="681" y="868" on="1"/>
        <pt x="655" y="882" on="0"/>
        <pt x="595" y="896" on="0"/>
        <pt x="559" y="896" on="1"/>
        <pt x="484" y="896" on="0"/>
        <pt x="382" y="839" on="0"/>
        <pt x="319" y="735" on="0"/>
        <pt x="292" y="592" on="0"/>
      </contour>
      <contour>
        <pt x="559" y="109" on="1"/>
        <pt x="634" y="109" on="0"/>
        <pt x="736" y="171" on="0"/>
        <pt x="799" y="278" on="0"/>
        <pt x="826" y="423" on="0"/>
        <pt x="826" y="506" on="1"/>
        <pt x="826" y="600" on="0"/>
        <pt x="787" y="752" on="0"/>
        <pt x="744" y="803" on="1"/>
        <pt x="448" y="131" on="1"/>
        <pt x="495" y="109" on="0"/>
      </contour>
    </TTGlyph>
    <TTGlyph name="otilde" xMin="106" yMin="-18" xMax="1013" yMax="1414">
      <component glyphName="o" x="0" y="0" flags="0x1204"/>
      <component glyphName="tilde" x="112" y="0" flags="0x1004"/>
    </TTGlyph>
    <TTGlyph name="p" xMin="158" yMin="-415" xMax="1030" yMax="1043">
      <contour>
        <pt x="278" y="1043" on="1"/>
        <pt x="311" y="927" on="1"/>
        <pt x="344" y="951" on="0"/>
        <pt x="417" y="994" on="0"/>
        <pt x="503" y="1025" on="0"/>
        <pt x="604" y="1043" on="0"/>
        <pt x="666" y="1043" on="1"/>
        <pt x="752" y="1043" on="0"/>
        <pt x="887" y="980" on="0"/>
        <pt x="981" y="851" on="0"/>
        <pt x="1030" y="651" on="0"/>
        <pt x="1030" y="514" on="1"/>
        <pt x="1030" y="374" on="0"/>
        <pt x="972" y="171" on="0"/>
        <pt x="871" y="42" on="0"/>
        <pt x="734" y="-18" on="0"/>
        <pt x="655" y="-18" on="1"/>
        <pt x="586" y="-18" on="0"/>
        <pt x="472" y="9" on="0"/>
        <pt x="430" y="26" on="1"/>
        <pt x="382" y="45" on="0"/>
        <pt x="343" y="71" on="1"/>
        <pt x="343" y="-399" on="1"/>
        <pt x="158" y="-415" on="1"/>
        <pt x="158" y="1032" on="1"/>
      </contour>
      <contour>
        <pt x="343" y="198" on="1"/>
        <pt x="378" y="177" on="0"/>
        <pt x="419" y="160" on="1"/>
        <pt x="454" y="146" on="0"/>
        <pt x="550" y="122" on="0"/>
        <pt x="606" y="122" on="1"/>
        <pt x="665" y="122" on="0"/>
        <pt x="754" y="165" on="0"/>
        <pt x="814" y="262" on="0"/>
        <pt x="844" y="416" on="0"/>
        <pt x="844" y="524" on="1"/>
        <pt x="844" y="722" on="0"/>
        <pt x="737" y="901" on="0"/>
        <pt x="631" y="901" on="1"/>
        <pt x="571" y="901" on="0"/>
        <pt x="467" y="874" on="0"/>
        <pt x="428" y="858" on="1"/>
        <pt x="382" y="840" on="0"/>
        <pt x="343" y="816" on="1"/>
      </contour>
    </TTGlyph>
    <TTGlyph name="paragraph" xMin="67" yMin="-3" xMax="1126" yMax="1437">
      <contour>
        <pt x="440" y="878" on="1"/>
        <pt x="354" y="875" on="0"/>
        <pt x="216" y="898" on="0"/>
        <pt x="119" y="961" on="0"/>
        <pt x="67" y="1068" on="0"/>
        <pt x="67" y="1148" on="1"/>
        <pt x="68" y="1248" on="0"/>
        <pt x="141" y="1364" on="0"/>
        <pt x="278" y="1422" on="0"/>
        <pt x="476" y="1437" on="0"/>
        <pt x="603" y="1437" on="1"/>
        <pt x="1101" y="1437" on="1"/>
        <pt x="1126" y="1298" on="1"/>
        <pt x="901" y="1298" on="1"/>
        <pt x="901" y="-3" on="1"/>
        <pt x="733" y="-3" on="1"/>
        <pt x="733" y="1298" on="1"/>
        <pt x="608" y="1298" on="1"/>
        <pt x="608" y="-3" on="1"/>
        <pt x="440" y="-3" on="1"/>
      </contour>
    </TTGlyph>
    <TTGlyph name="parenleft" xMin="107" yMin="-186" xMax="541" yMax="1423">
      <contour>
        <pt x="107" y="619" on="1"/>
        <pt x="107" y="729" on="0"/>
        <pt x="137" y="915" on="0"/>
        <pt x="186" y="1069" on="0"/>
        <pt x="248" y="1193" on="0"/>
        <pt x="281" y="1241" on="1"/>
        <pt x="358" y="1354" on="0"/>
        <pt x="456" y="1423" on="1"/>
        <pt x="541" y="1326" on="1"/>
        <pt x="469" y="1262" on="0"/>
        <pt x="413" y="1162" on="1"/>
        <pt x="389" y="1119" on="0"/>
        <pt x="343" y="1010" on="0"/>
        <pt x="308" y="874" on="0"/>
        <pt x="286" y="712" on="0"/>
        <pt x="286" y="617" on="1"/>
        <pt x="286" y="522" on="0"/>
        <pt x="308" y="360" on="0"/>
        <pt x="343" y="225" on="0"/>
        <pt x="389" y="115" on="0"/>
        <pt x="413" y="73" on="1"/>
        <pt x="469" y="-26" on="0"/>
        <pt x="541" y="-90" on="1"/>
        <pt x="456" y="-186" on="1"/>
        <pt x="358" y="-117" on="0"/>
        <pt x="281" y="-4" on="1"/>
        <pt x="248" y="44" on="0"/>
        <pt x="186" y="168" on="0"/>
        <pt x="137" y="322" on="0"/>
        <pt x="107" y="509" on="0"/>
      </contour>
    </TTGlyph>
    <TTGlyph name="parenright" xMin="55" yMin="-186" xMax="489" yMax="1423">
      <contour>
        <pt x="489" y="619" on="1"/>
        <pt x="489" y="509" on="0"/>
        <pt x="459" y="322" on="0"/>
        <pt x="410" y="168" on="0"/>
        <pt x="348" y="44" on="0"/>
        <pt x="315" y="-4" on="1"/>
        <pt x="238" y="-117" on="0"/>
        <pt x="141" y="-186" on="1"/>
        <pt x="55" y="-90" on="1"/>
        <pt x="127" y="-26" on="0"/>
        <pt x="183" y="73" on="1"/>
        <pt x="207" y="115" on="0"/>
        <pt x="253" y="225" on="0"/>
        <pt x="289" y="360" on="0"/>
        <pt x="311" y="522" on="0"/>
        <pt x="311" y="617" on="1"/>
        <pt x="311" y="712" on="0"/>
        <pt x="289" y="874" on="0"/>
        <pt x="253" y="1010" on="0"/>
        <pt x="207" y="1119" on="0"/>
        <pt x="183" y="1162" on="1"/>
        <pt x="127" y="1262" on="0"/>
        <pt x="55" y="1326" on="1"/>
        <pt x="141" y="1423" on="1"/>
        <pt x="238" y="1354" on="0"/>
        <pt x="315" y="1241" on="1"/>
        <pt x="348" y="1193" on="0"/>
        <pt x="410" y="1069" on="0"/>
        <pt x="459" y="915" on="0"/>
        <pt x="489" y="729" on="0"/>
      </contour>
    </TTGlyph>
    <TTGlyph name="partialdiff" xMin="92" yMin="-29" xMax="974" yMax="1539">
      <contour>
        <pt x="533" y="1539" on="1"/>
        <pt x="624" y="1539" on="0"/>
        <pt x="760" y="1477" on="0"/>
        <pt x="858" y="1369" on="0"/>
        <pt x="922" y="1220" on="0"/>
        <pt x="959" y="1047" on="0"/>
        <pt x="974" y="855" on="0"/>
        <pt x="974" y="757" on="1"/>
        <pt x="974" y="524" on="0"/>
        <pt x="917" y="220" on="0"/>
        <pt x="802" y="42" on="0"/>
        <pt x="629" y="-29" on="0"/>
        <pt x="514" y="-29" on="1"/>
        <pt x="461" y="-29" on="0"/>
        <pt x="358" y="-9" on="0"/>
        <pt x="264" y="39" on="0"/>
        <pt x="184" y="118" on="0"/>
        <pt x="125" y="237" on="0"/>
        <pt x="92" y="399" on="0"/>
        <pt x="92" y="505" on="1"/>
        <pt x="92" y="621" on="0"/>
        <pt x="143" y="816" on="0"/>
        <pt x="244" y="958" on="0"/>
        <pt x="396" y="1038" on="0"/>
        <pt x="497" y="1038" on="1"/>
        <pt x="569" y="1038" on="0"/>
        <pt x="682" y="992" on="0"/>
        <pt x="722" y="965" on="1"/>
        <pt x="769" y="933" on="0"/>
        <pt x="805" y="893" on="1"/>
        <pt x="802" y="950" on="0"/>
        <pt x="794" y="1073" on="0"/>
        <pt x="775" y="1191" on="0"/>
        <pt x="738" y="1297" on="0"/>
        <pt x="673" y="1377" on="0"/>
        <pt x="574" y="1424" on="0"/>
        <pt x="503" y="1424" on="1"/>
        <pt x="459" y="1424" on="0"/>
        <pt x="383" y="1410" on="0"/>
        <pt x="354" y="1402" on="1"/>
        <pt x="321" y="1392" on="0"/>
        <pt x="293" y="1381" on="1"/>
        <pt x="293" y="1388" on="0"/>
        <pt x="297" y="1419" on="0"/>
        <pt x="300" y="1453" on="0"/>
        <pt x="304" y="1484" on="0"/>
        <pt x="304" y="1492" on="1"/>
        <pt x="332" y="1504" on="0"/>
        <pt x="367" y="1515" on="1"/>
        <pt x="397" y="1524" on="0"/>
        <pt x="481" y="1539" on="0"/>
      </contour>
      <contour>
        <pt x="525" y="109" on="1"/>
        <pt x="571" y="109" on="0"/>
        <pt x="648" y="128" on="0"/>
        <pt x="711" y="180" on="0"/>
        <pt x="759" y="270" on="0"/>
        <pt x="791" y="414" on="0"/>
        <pt x="806" y="616" on="0"/>
        <pt x="806" y="753" on="1"/>
        <pt x="767" y="792" on="0"/>
        <pt x="721" y="824" on="1"/>
        <pt x="682" y="851" on="0"/>
        <pt x="579" y="895" on="0"/>
        <pt x="522" y="896" on="1"/>
        <pt x="453" y="897" on="0"/>
        <pt x="355" y="836" on="0"/>
        <pt x="293" y="734" on="0"/>
        <pt x="264" y="603" on="0"/>
        <pt x="264" y="533" on="1"/>
        <pt x="264" y="422" on="0"/>
        <pt x="296" y="261" on="0"/>
        <pt x="360" y="158" on="0"/>
        <pt x="459" y="109" on="0"/>
      </contour>
    </TTGlyph>
    <TTGlyph name="percent" xMin="83" yMin="-77" xMax="1310" yMax="1490">
      <contour>
        <pt x="351" y="864" on="1"/>
        <pt x="394" y="864" on="0"/>
        <pt x="450" y="897" on="0"/>
        <pt x="483" y="958" on="0"/>
        <pt x="496" y="1045" on="0"/>
        <pt x="496" y="1099" on="1"/>
        <pt x="496" y="1154" on="0"/>
        <pt x="483" y="1241" on="0"/>
        <pt x="450" y="1302" on="0"/>
        <pt x="394" y="1335" on="0"/>
        <pt x="351" y="1335" on="1"/>
        <pt x="307" y="1335" on="0"/>
        <pt x="251" y="1302" on="0"/>
        <pt x="218" y="1241" on="0"/>
        <pt x="205" y="1154" on="0"/>
        <pt x="205" y="1099" on="1"/>
        <pt x="205" y="1045" on="0"/>
        <pt x="218" y="958" on="0"/>
        <pt x="251" y="897" on="0"/>
        <pt x="307" y="864" on="0"/>
      </contour>
      <contour>
        <pt x="83" y="1099" on="1"/>
        <pt x="83" y="1270" on="0"/>
        <pt x="221" y="1438" on="0"/>
        <pt x="351" y="1438" on="1"/>
        <pt x="483" y="1438" on="0"/>
        <pt x="619" y="1270" on="0"/>
        <pt x="619" y="1099" on="1"/>
        <pt x="619" y="761" on="0"/>
        <pt x="351" y="761" on="1"/>
        <pt x="219" y="761" on="0"/>
        <pt x="83" y="928" on="0"/>
      </contour>
      <contour>
        <pt x="205" y="-12" on="1"/>
        <pt x="1083" y="1490" on="1"/>
        <pt x="1196" y="1423" on="1"/>
        <pt x="314" y="-77" on="1"/>
      </contour>
      <contour>
        <pt x="1187" y="321" on="1"/>
        <pt x="1187" y="375" on="0"/>
        <pt x="1174" y="463" on="0"/>
        <pt x="1141" y="524" on="0"/>
        <pt x="1085" y="557" on="0"/>
        <pt x="1042" y="557" on="1"/>
        <pt x="998" y="557" on="0"/>
        <pt x="941" y="524" on="0"/>
        <pt x="908" y="463" on="0"/>
        <pt x="895" y="375" on="0"/>
        <pt x="895" y="321" on="1"/>
        <pt x="895" y="267" on="0"/>
        <pt x="908" y="179" on="0"/>
        <pt x="941" y="118" on="0"/>
        <pt x="998" y="85" on="0"/>
        <pt x="1042" y="85" on="1"/>
        <pt x="1085" y="85" on="0"/>
        <pt x="1141" y="118" on="0"/>
        <pt x="1174" y="179" on="0"/>
        <pt x="1187" y="267" on="0"/>
      </contour>
      <contour>
        <pt x="774" y="321" on="1"/>
        <pt x="774" y="492" on="0"/>
        <pt x="909" y="660" on="0"/>
        <pt x="1042" y="660" on="1"/>
        <pt x="1174" y="660" on="0"/>
        <pt x="1310" y="492" on="0"/>
        <pt x="1310" y="321" on="1"/>
        <pt x="1310" y="-18" on="0"/>
        <pt x="1042" y="-18" on="1"/>
        <pt x="910" y="-18" on="0"/>
        <pt x="774" y="150" on="0"/>
      </contour>
    </TTGlyph>
    <TTGlyph name="period" xMin="139" yMin="-9" xMax="329" yMax="202">
      <contour>
        <pt x="329" y="202" on="1"/>
        <pt x="329" y="-9" on="1"/>
        <pt x="139" y="-9" on="1"/>
        <pt x="139" y="202" on="1"/>
      </contour>
    </TTGlyph>
    <TTGlyph name="periodcentered" xMin="148" yMin="477" xMax="321" yMax="672">
      <contour>
        <pt x="321" y="672" on="1"/>
        <pt x="321" y="477" on="1"/>
        <pt x="148" y="477" on="1"/>
        <pt x="148" y="672" on="1"/>
      </contour>
    </TTGlyph>
    <TTGlyph name="perthousand" xMin="84" yMin="-87" xMax="1958" yMax="1481">
      <contour>
        <pt x="1073" y="1481" on="1"/>
        <pt x="1186" y="1414" on="1"/>
        <pt x="305" y="-87" on="1"/>
        <pt x="196" y="-21" on="1"/>
      </contour>
      <contour>
        <pt x="84" y="1098" on="1"/>
        <pt x="84" y="1183" on="0"/>
        <pt x="124" y="1310" on="0"/>
        <pt x="196" y="1395" on="0"/>
        <pt x="294" y="1437" on="0"/>
        <pt x="352" y="1437" on="1"/>
        <pt x="412" y="1437" on="0"/>
        <pt x="511" y="1395" on="0"/>
        <pt x="582" y="1310" on="0"/>
        <pt x="621" y="1183" on="0"/>
        <pt x="621" y="1098" on="1"/>
        <pt x="621" y="1013" on="0"/>
        <pt x="582" y="886" on="0"/>
        <pt x="512" y="802" on="0"/>
        <pt x="413" y="760" on="0"/>
        <pt x="352" y="760" on="1"/>
        <pt x="293" y="760" on="0"/>
        <pt x="194" y="802" on="0"/>
        <pt x="123" y="886" on="0"/>
        <pt x="84" y="1013" on="0"/>
      </contour>
      <contour>
        <pt x="498" y="1098" on="1"/>
        <pt x="498" y="1153" on="0"/>
        <pt x="482" y="1240" on="0"/>
        <pt x="447" y="1301" on="0"/>
        <pt x="392" y="1334" on="0"/>
        <pt x="352" y="1334" on="1"/>
        <pt x="313" y="1334" on="0"/>
        <pt x="257" y="1301" on="0"/>
        <pt x="222" y="1240" on="0"/>
        <pt x="206" y="1153" on="0"/>
        <pt x="206" y="1098" on="1"/>
        <pt x="206" y="1044" on="0"/>
        <pt x="222" y="957" on="0"/>
        <pt x="257" y="896" on="0"/>
        <pt x="313" y="863" on="0"/>
        <pt x="352" y="863" on="1"/>
        <pt x="431" y="863" on="0"/>
        <pt x="498" y="989" on="0"/>
      </contour>
      <contour>
        <pt x="1423" y="310" on="1"/>
        <pt x="1423" y="395" on="0"/>
        <pt x="1461" y="522" on="0"/>
        <pt x="1532" y="606" on="0"/>
        <pt x="1630" y="648" on="0"/>
        <pt x="1690" y="648" on="1"/>
        <pt x="1750" y="648" on="0"/>
        <pt x="1849" y="606" on="0"/>
        <pt x="1919" y="522" on="0"/>
        <pt x="1958" y="395" on="0"/>
        <pt x="1958" y="310" on="1"/>
        <pt x="1958" y="225" on="0"/>
        <pt x="1920" y="98" on="0"/>
        <pt x="1850" y="13" on="0"/>
        <pt x="1751" y="-29" on="0"/>
        <pt x="1690" y="-29" on="1"/>
        <pt x="1631" y="-29" on="0"/>
        <pt x="1533" y="13" on="0"/>
        <pt x="1463" y="98" on="0"/>
        <pt x="1423" y="225" on="0"/>
      </contour>
      <contour>
        <pt x="1835" y="310" on="1"/>
        <pt x="1835" y="364" on="0"/>
        <pt x="1820" y="451" on="0"/>
        <pt x="1785" y="512" on="0"/>
        <pt x="1730" y="545" on="0"/>
        <pt x="1690" y="545" on="1"/>
        <pt x="1651" y="545" on="0"/>
        <pt x="1595" y="512" on="0"/>
        <pt x="1560" y="451" on="0"/>
        <pt x="1544" y="364" on="0"/>
        <pt x="1544" y="310" on="1"/>
        <pt x="1544" y="255" on="0"/>
        <pt x="1560" y="168" on="0"/>
        <pt x="1595" y="107" on="0"/>
        <pt x="1651" y="74" on="0"/>
        <pt x="1690" y="74" on="1"/>
        <pt x="1730" y="74" on="0"/>
        <pt x="1785" y="107" on="0"/>
        <pt x="1820" y="168" on="0"/>
        <pt x="1835" y="255" on="0"/>
      </contour>
      <contour>
        <pt x="754" y="310" on="1"/>
        <pt x="754" y="395" on="0"/>
        <pt x="793" y="522" on="0"/>
        <pt x="863" y="606" on="0"/>
        <pt x="962" y="648" on="0"/>
        <pt x="1022" y="648" on="1"/>
        <pt x="1082" y="648" on="0"/>
        <pt x="1180" y="606" on="0"/>
        <pt x="1250" y="522" on="0"/>
        <pt x="1289" y="395" on="0"/>
        <pt x="1289" y="310" on="1"/>
        <pt x="1289" y="225" on="0"/>
        <pt x="1251" y="98" on="0"/>
        <pt x="1181" y="13" on="0"/>
        <pt x="1082" y="-29" on="0"/>
        <pt x="1022" y="-29" on="1"/>
        <pt x="963" y="-29" on="0"/>
        <pt x="865" y="13" on="0"/>
        <pt x="794" y="98" on="0"/>
        <pt x="754" y="225" on="0"/>
      </contour>
      <contour>
        <pt x="1167" y="310" on="1"/>
        <pt x="1167" y="364" on="0"/>
        <pt x="1151" y="451" on="0"/>
        <pt x="1117" y="512" on="0"/>
        <pt x="1062" y="545" on="0"/>
        <pt x="1022" y="545" on="1"/>
        <pt x="982" y="545" on="0"/>
        <pt x="927" y="512" on="0"/>
        <pt x="892" y="451" on="0"/>
        <pt x="876" y="364" on="0"/>
        <pt x="876" y="310" on="1"/>
        <pt x="876" y="255" on="0"/>
        <pt x="892" y="168" on="0"/>
        <pt x="927" y="107" on="0"/>
        <pt x="982" y="74" on="0"/>
        <pt x="1022" y="74" on="1"/>
        <pt x="1101" y="74" on="0"/>
        <pt x="1167" y="200" on="0"/>
      </contour>
    </TTGlyph>
    <TTGlyph name="pi" xMin="36" yMin="-20" xMax="1163" yMax="997">
      <contour>
        <pt x="805" y="866" on="1"/>
        <pt x="570" y="866" on="1"/>
        <pt x="462" y="421" on="1"/>
        <pt x="436" y="319" on="0"/>
        <pt x="376" y="176" on="0"/>
        <pt x="311" y="82" on="0"/>
        <pt x="243" y="29" on="0"/>
        <pt x="173" y="3" on="0"/>
        <pt x="104" y="-3" on="0"/>
        <pt x="71" y="-3" on="1"/>
        <pt x="69" y="6" on="0"/>
        <pt x="59" y="47" on="0"/>
        <pt x="48" y="91" on="0"/>
        <pt x="38" y="131" on="0"/>
        <pt x="36" y="140" on="1"/>
        <pt x="84" y="140" on="0"/>
        <pt x="161" y="166" on="0"/>
        <pt x="224" y="236" on="0"/>
        <pt x="278" y="358" on="0"/>
        <pt x="304" y="455" on="1"/>
        <pt x="316" y="501" on="0"/>
        <pt x="344" y="606" on="0"/>
        <pt x="373" y="715" on="0"/>
        <pt x="401" y="820" on="0"/>
        <pt x="413" y="866" on="1"/>
        <pt x="219" y="866" on="1"/>
        <pt x="224" y="898" on="0"/>
        <pt x="236" y="964" on="0"/>
        <pt x="242" y="997" on="1"/>
        <pt x="1163" y="997" on="1"/>
        <pt x="1157" y="964" on="0"/>
        <pt x="1146" y="898" on="0"/>
        <pt x="1140" y="866" on="1"/>
        <pt x="970" y="866" on="1"/>
        <pt x="949" y="732" on="0"/>
        <pt x="908" y="468" on="0"/>
        <pt x="887" y="334" on="1"/>
        <pt x="878" y="277" on="0"/>
        <pt x="875" y="195" on="0"/>
        <pt x="891" y="142" on="0"/>
        <pt x="932" y="116" on="0"/>
        <pt x="967" y="116" on="1"/>
        <pt x="997" y="116" on="0"/>
        <pt x="1050" y="125" on="0"/>
        <pt x="1070" y="130" on="1"/>
        <pt x="1093" y="136" on="0"/>
        <pt x="1112" y="145" on="1"/>
        <pt x="1104" y="110" on="0"/>
        <pt x="1088" y="42" on="0"/>
        <pt x="1080" y="6" on="1"/>
        <pt x="1061" y="-2" on="0"/>
        <pt x="1037" y="-7" on="1"/>
        <pt x="1016" y="-12" on="0"/>
        <pt x="958" y="-20" on="0"/>
        <pt x="922" y="-20" on="1"/>
        <pt x="863" y="-20" on="0"/>
        <pt x="774" y="18" on="0"/>
        <pt x="721" y="101" on="0"/>
        <pt x="706" y="234" on="0"/>
        <pt x="720" y="329" on="1"/>
      </contour>
    </TTGlyph>
    <TTGlyph name="plus" xMin="91" yMin="153" xMax="757" yMax="895">
      <contour>
        <pt x="493" y="455" on="1"/>
        <pt x="493" y="153" on="1"/>
        <pt x="355" y="153" on="1"/>
        <pt x="355" y="455" on="1"/>
        <pt x="91" y="455" on="1"/>
        <pt x="91" y="591" on="1"/>
        <pt x="355" y="591" on="1"/>
        <pt x="355" y="895" on="1"/>
        <pt x="493" y="895" on="1"/>
        <pt x="493" y="591" on="1"/>
        <pt x="757" y="591" on="1"/>
        <pt x="757" y="455" on="1"/>
      </contour>
    </TTGlyph>
    <TTGlyph name="plusminus" xMin="132" yMin="-5" xMax="916" yMax="1247">
      <contour>
        <pt x="132" y="-5" on="1"/>
        <pt x="132" y="109" on="1"/>
        <pt x="916" y="109" on="1"/>
        <pt x="916" y="-5" on="1"/>
      </contour>
      <contour>
        <pt x="598" y="762" on="1"/>
        <pt x="598" y="403" on="1"/>
        <pt x="453" y="403" on="1"/>
        <pt x="453" y="762" on="1"/>
        <pt x="132" y="762" on="1"/>
        <pt x="132" y="884" on="1"/>
        <pt x="453" y="884" on="1"/>
        <pt x="453" y="1247" on="1"/>
        <pt x="598" y="1247" on="1"/>
        <pt x="598" y="884" on="1"/>
        <pt x="916" y="884" on="1"/>
        <pt x="916" y="762" on="1"/>
      </contour>
    </TTGlyph>
    <TTGlyph name="product" xMin="190" yMin="0" xMax="1233" yMax="1409">
      <contour>
        <pt x="1233" y="1409" on="1"/>
        <pt x="1233" y="0" on="1"/>
        <pt x="1045" y="0" on="1"/>
        <pt x="1045" y="874" on="1"/>
        <pt x="1056" y="1286" on="1"/>
        <pt x="367" y="1286" on="1"/>
        <pt x="377" y="848" on="1"/>
        <pt x="377" y="0" on="1"/>
        <pt x="190" y="0" on="1"/>
        <pt x="190" y="1409" on="1"/>
      </contour>
    </TTGlyph>
    <TTGlyph name="q" xMin="110" yMin="-417" xMax="956" yMax="1043">
      <contour>
        <pt x="956" y="-390" on="1"/>
        <pt x="771" y="-417" on="1"/>
        <pt x="771" y="71" on="1"/>
        <pt x="732" y="45" on="0"/>
        <pt x="684" y="26" on="1"/>
        <pt x="643" y="9" on="0"/>
        <pt x="534" y="-18" on="0"/>
        <pt x="470" y="-18" on="1"/>
        <pt x="389" y="-18" on="0"/>
        <pt x="256" y="52" on="0"/>
        <pt x="162" y="188" on="0"/>
        <pt x="110" y="385" on="0"/>
        <pt x="110" y="509" on="1"/>
        <pt x="110" y="641" on="0"/>
        <pt x="163" y="840" on="0"/>
        <pt x="263" y="975" on="0"/>
        <pt x="408" y="1043" on="0"/>
        <pt x="501" y="1043" on="1"/>
        <pt x="548" y="1043" on="0"/>
        <pt x="653" y="1035" on="0"/>
        <pt x="754" y="1021" on="0"/>
        <pt x="846" y="1001" on="0"/>
        <pt x="915" y="985" on="0"/>
        <pt x="935" y="979" on="1"/>
        <pt x="956" y="974" on="1"/>
      </contour>
      <contour>
        <pt x="543" y="901" on="1"/>
        <pt x="487" y="901" on="0"/>
        <pt x="395" y="865" on="0"/>
        <pt x="330" y="776" on="0"/>
        <pt x="294" y="627" on="0"/>
        <pt x="294" y="512" on="1"/>
        <pt x="294" y="316" on="0"/>
        <pt x="410" y="122" on="0"/>
        <pt x="531" y="122" on="1"/>
        <pt x="576" y="122" on="0"/>
        <pt x="661" y="145" on="0"/>
        <pt x="695" y="159" on="1"/>
        <pt x="735" y="175" on="0"/>
        <pt x="771" y="196" on="1"/>
        <pt x="771" y="875" on="1"/>
        <pt x="731" y="883" on="0"/>
        <pt x="691" y="889" on="1"/>
        <pt x="656" y="894" on="0"/>
        <pt x="578" y="901" on="0"/>
      </contour>
    </TTGlyph>
    <TTGlyph name="question" xMin="96" yMin="-28" xMax="804" yMax="1437">
      <contour>
        <pt x="804" y="1093" on="1"/>
        <pt x="804" y="998" on="0"/>
        <pt x="736" y="868" on="0"/>
        <pt x="633" y="779" on="0"/>
        <pt x="514" y="722" on="0"/>
        <pt x="411" y="675" on="0"/>
        <pt x="343" y="631" on="0"/>
        <pt x="343" y="600" on="1"/>
        <pt x="343" y="302" on="1"/>
        <pt x="192" y="302" on="1"/>
        <pt x="192" y="590" on="1"/>
        <pt x="192" y="643" on="0"/>
        <pt x="230" y="720" on="0"/>
        <pt x="293" y="777" on="0"/>
        <pt x="372" y="820" on="0"/>
        <pt x="456" y="861" on="0"/>
        <pt x="535" y="904" on="0"/>
        <pt x="598" y="961" on="0"/>
        <pt x="636" y="1037" on="0"/>
        <pt x="636" y="1090" on="1"/>
        <pt x="636" y="1143" on="0"/>
        <pt x="610" y="1218" on="0"/>
        <pt x="553" y="1266" on="0"/>
        <pt x="460" y="1288" on="0"/>
        <pt x="393" y="1288" on="1"/>
        <pt x="340" y="1288" on="0"/>
        <pt x="235" y="1274" on="0"/>
        <pt x="192" y="1266" on="1"/>
        <pt x="142" y="1256" on="0"/>
        <pt x="96" y="1244" on="1"/>
        <pt x="96" y="1246" on="0"/>
        <pt x="98" y="1290" on="0"/>
        <pt x="99" y="1342" on="0"/>
        <pt x="101" y="1386" on="0"/>
        <pt x="101" y="1388" on="1"/>
        <pt x="146" y="1401" on="0"/>
        <pt x="195" y="1412" on="1"/>
        <pt x="237" y="1421" on="0"/>
        <pt x="341" y="1437" on="0"/>
        <pt x="394" y="1437" on="1"/>
        <pt x="511" y="1437" on="0"/>
        <pt x="669" y="1382" on="0"/>
        <pt x="764" y="1288" on="0"/>
        <pt x="804" y="1163" on="0"/>
      </contour>
      <contour>
        <pt x="173" y="78" on="1"/>
        <pt x="173" y="101" on="0"/>
        <pt x="189" y="142" on="0"/>
        <pt x="216" y="173" on="0"/>
        <pt x="253" y="191" on="0"/>
        <pt x="274" y="191" on="1"/>
        <pt x="296" y="191" on="0"/>
        <pt x="334" y="173" on="0"/>
        <pt x="363" y="142" on="0"/>
        <pt x="379" y="101" on="0"/>
        <pt x="379" y="78" on="1"/>
        <pt x="379" y="56" on="0"/>
        <pt x="363" y="18" on="0"/>
        <pt x="334" y="-11" on="0"/>
        <pt x="296" y="-28" on="0"/>
        <pt x="274" y="-28" on="1"/>
        <pt x="253" y="-28" on="0"/>
        <pt x="216" y="-11" on="0"/>
        <pt x="189" y="18" on="0"/>
        <pt x="173" y="56" on="0"/>
      </contour>
    </TTGlyph>
    <TTGlyph name="questiondown" xMin="95" yMin="-18" xMax="804" yMax="1447">
      <component glyphName="question" x="900" y="1419" scale="-0.999938964844" flags="0x1004"/>
    </TTGlyph>
    <TTGlyph name="quotedbl" xMin="120" yMin="1007" xMax="497" yMax="1436">
      <contour>
        <pt x="273" y="1436" on="1"/>
        <pt x="273" y="1362" on="0"/>
        <pt x="258" y="1211" on="0"/>
        <pt x="249" y="1148" on="1"/>
        <pt x="238" y="1075" on="0"/>
        <pt x="225" y="1007" on="1"/>
        <pt x="152" y="1007" on="1"/>
        <pt x="143" y="1061" on="0"/>
        <pt x="137" y="1128" on="1"/>
        <pt x="131" y="1185" on="0"/>
        <pt x="122" y="1342" on="0"/>
        <pt x="120" y="1436" on="1"/>
      </contour>
      <contour>
        <pt x="497" y="1436" on="1"/>
        <pt x="497" y="1362" on="0"/>
        <pt x="479" y="1211" on="0"/>
        <pt x="468" y="1148" on="1"/>
        <pt x="455" y="1075" on="0"/>
        <pt x="439" y="1007" on="1"/>
        <pt x="369" y="1007" on="1"/>
        <pt x="364" y="1027" on="0"/>
        <pt x="356" y="1116" on="0"/>
        <pt x="350" y="1233" on="0"/>
        <pt x="347" y="1368" on="0"/>
        <pt x="347" y="1436" on="1"/>
      </contour>
    </TTGlyph>
    <TTGlyph name="quotedblbase" xMin="133" yMin="-198" xMax="641" yMax="205">
      <contour>
        <pt x="631" y="205" on="1"/>
        <pt x="633" y="185" on="0"/>
        <pt x="636" y="160" on="1"/>
        <pt x="638" y="139" on="0"/>
        <pt x="641" y="83" on="0"/>
        <pt x="641" y="50" on="1"/>
        <pt x="641" y="-63" on="0"/>
        <pt x="548" y="-189" on="0"/>
        <pt x="443" y="-198" on="1"/>
        <pt x="443" y="-197" on="0"/>
        <pt x="437" y="-178" on="0"/>
        <pt x="431" y="-156" on="0"/>
        <pt x="425" y="-137" on="0"/>
        <pt x="425" y="-136" on="1"/>
        <pt x="464" y="-130" on="0"/>
        <pt x="511" y="-106" on="0"/>
        <pt x="537" y="-72" on="0"/>
        <pt x="545" y="-29" on="0"/>
        <pt x="545" y="-3" on="1"/>
        <pt x="426" y="-3" on="1"/>
        <pt x="426" y="195" on="1"/>
      </contour>
      <contour>
        <pt x="338" y="205" on="1"/>
        <pt x="341" y="185" on="0"/>
        <pt x="344" y="160" on="1"/>
        <pt x="346" y="139" on="0"/>
        <pt x="350" y="83" on="0"/>
        <pt x="350" y="50" on="1"/>
        <pt x="350" y="-63" on="0"/>
        <pt x="256" y="-189" on="0"/>
        <pt x="151" y="-198" on="1"/>
        <pt x="151" y="-197" on="0"/>
        <pt x="145" y="-178" on="0"/>
        <pt x="139" y="-156" on="0"/>
        <pt x="133" y="-137" on="0"/>
        <pt x="133" y="-136" on="1"/>
        <pt x="172" y="-130" on="0"/>
        <pt x="219" y="-106" on="0"/>
        <pt x="244" y="-72" on="0"/>
        <pt x="253" y="-29" on="0"/>
        <pt x="253" y="-3" on="1"/>
        <pt x="133" y="-3" on="1"/>
        <pt x="133" y="195" on="1"/>
      </contour>
    </TTGlyph>
    <TTGlyph name="quotedblleft" xMin="121" yMin="1113" xMax="717" yMax="1562">
      <contour>
        <pt x="712" y="1129" on="1"/>
        <pt x="484" y="1113" on="1"/>
        <pt x="481" y="1138" on="0"/>
        <pt x="478" y="1167" on="1"/>
        <pt x="476" y="1191" on="0"/>
        <pt x="473" y="1254" on="0"/>
        <pt x="473" y="1286" on="1"/>
        <pt x="473" y="1394" on="0"/>
        <pt x="575" y="1527" on="0"/>
        <pt x="691" y="1562" on="1"/>
        <pt x="717" y="1481" on="1"/>
        <pt x="682" y="1476" on="0"/>
        <pt x="631" y="1446" on="0"/>
        <pt x="598" y="1406" on="0"/>
        <pt x="581" y="1358" on="0"/>
        <pt x="581" y="1334" on="1"/>
        <pt x="712" y="1334" on="1"/>
      </contour>
      <contour>
        <pt x="361" y="1129" on="1"/>
        <pt x="133" y="1113" on="1"/>
        <pt x="130" y="1138" on="0"/>
        <pt x="127" y="1167" on="1"/>
        <pt x="125" y="1191" on="0"/>
        <pt x="121" y="1254" on="0"/>
        <pt x="121" y="1286" on="1"/>
        <pt x="121" y="1394" on="0"/>
        <pt x="222" y="1527" on="0"/>
        <pt x="338" y="1562" on="1"/>
        <pt x="366" y="1481" on="1"/>
        <pt x="331" y="1476" on="0"/>
        <pt x="278" y="1446" on="0"/>
        <pt x="244" y="1406" on="0"/>
        <pt x="227" y="1358" on="0"/>
        <pt x="227" y="1334" on="1"/>
        <pt x="361" y="1334" on="1"/>
      </contour>
    </TTGlyph>
    <TTGlyph name="quotedblright" xMin="111" yMin="1109" xMax="709" yMax="1557">
      <contour>
        <pt x="470" y="1542" on="1"/>
        <pt x="698" y="1557" on="1"/>
        <pt x="700" y="1531" on="0"/>
        <pt x="703" y="1503" on="1"/>
        <pt x="705" y="1479" on="0"/>
        <pt x="709" y="1418" on="0"/>
        <pt x="709" y="1386" on="1"/>
        <pt x="709" y="1277" on="0"/>
        <pt x="608" y="1144" on="0"/>
        <pt x="492" y="1109" on="1"/>
        <pt x="465" y="1190" on="1"/>
        <pt x="500" y="1195" on="0"/>
        <pt x="552" y="1224" on="0"/>
        <pt x="586" y="1264" on="0"/>
        <pt x="603" y="1313" on="0"/>
        <pt x="603" y="1337" on="1"/>
        <pt x="470" y="1337" on="1"/>
      </contour>
      <contour>
        <pt x="116" y="1542" on="1"/>
        <pt x="345" y="1557" on="1"/>
        <pt x="347" y="1531" on="0"/>
        <pt x="350" y="1503" on="1"/>
        <pt x="352" y="1479" on="0"/>
        <pt x="355" y="1418" on="0"/>
        <pt x="355" y="1386" on="1"/>
        <pt x="355" y="1277" on="0"/>
        <pt x="254" y="1144" on="0"/>
        <pt x="138" y="1109" on="1"/>
        <pt x="111" y="1190" on="1"/>
        <pt x="146" y="1195" on="0"/>
        <pt x="197" y="1224" on="0"/>
        <pt x="231" y="1265" on="0"/>
        <pt x="247" y="1313" on="0"/>
        <pt x="247" y="1337" on="1"/>
        <pt x="116" y="1337" on="1"/>
      </contour>
    </TTGlyph>
    <TTGlyph name="quoteleft" xMin="119" yMin="1118" xMax="364" yMax="1566">
      <contour>
        <pt x="359" y="1134" on="1"/>
        <pt x="131" y="1118" on="1"/>
        <pt x="128" y="1144" on="0"/>
        <pt x="125" y="1172" on="1"/>
        <pt x="123" y="1196" on="0"/>
        <pt x="119" y="1258" on="0"/>
        <pt x="119" y="1290" on="1"/>
        <pt x="119" y="1398" on="0"/>
        <pt x="220" y="1531" on="0"/>
        <pt x="336" y="1566" on="1"/>
        <pt x="364" y="1486" on="1"/>
        <pt x="329" y="1481" on="0"/>
        <pt x="276" y="1452" on="0"/>
        <pt x="242" y="1411" on="0"/>
        <pt x="225" y="1363" on="0"/>
        <pt x="225" y="1339" on="1"/>
        <pt x="359" y="1339" on="1"/>
      </contour>
    </TTGlyph>
    <TTGlyph name="quoteright" xMin="112" yMin="1104" xMax="357" yMax="1553">
      <contour>
        <pt x="117" y="1537" on="1"/>
        <pt x="345" y="1553" on="1"/>
        <pt x="348" y="1527" on="0"/>
        <pt x="351" y="1499" on="1"/>
        <pt x="353" y="1475" on="0"/>
        <pt x="357" y="1413" on="0"/>
        <pt x="357" y="1381" on="1"/>
        <pt x="357" y="1272" on="0"/>
        <pt x="256" y="1139" on="0"/>
        <pt x="140" y="1104" on="1"/>
        <pt x="112" y="1185" on="1"/>
        <pt x="147" y="1190" on="0"/>
        <pt x="199" y="1219" on="0"/>
        <pt x="233" y="1260" on="0"/>
        <pt x="250" y="1309" on="0"/>
        <pt x="250" y="1333" on="1"/>
        <pt x="117" y="1333" on="1"/>
      </contour>
    </TTGlyph>
</ttFont>
